<ttFont>
    <TTGlyph name=".notdef" xMin="53" yMin="0" xMax="645" yMax="809">
      <contour>
        <pt x="645" y="0" on="1"/>
        <pt x="53" y="0" on="1"/>
        <pt x="53" y="809" on="1"/>
        <pt x="645" y="809" on="1"/>
      </contour>
      <contour>
        <pt x="609" y="31" on="1"/>
        <pt x="609" y="778" on="1"/>
        <pt x="89" y="778" on="1"/>
        <pt x="89" y="31" on="1"/>
      </contour>
    </TTGlyph>
    <TTGlyph name="A" xMin="-45" yMin="0" xMax="408" yMax="483">
      <contour>
        <pt x="408" y="0" on="1"/>
        <pt x="339" y="0" on="1"/>
        <pt x="309" y="159" on="1"/>
        <pt x="118" y="159" on="1"/>
        <pt x="23" y="0" on="1"/>
        <pt x="-45" y="0" on="1"/>
        <pt x="257" y="483" on="1"/>
        <pt x="311" y="483" on="1"/>
      </contour>
      <contour>
        <pt x="297" y="213" on="1"/>
        <pt x="269" y="411" on="1"/>
        <pt x="153" y="213" on="1"/>
      </contour>
    </TTGlyph>
    <TTGlyph name="AE" xMin="-54" yMin="0" xMax="601" yMax="483">
      <contour>
        <pt x="511" y="0" on="1"/>
        <pt x="282" y="0" on="1"/>
        <pt x="295" y="190" on="1"/>
        <pt x="155" y="190" on="1"/>
        <pt x="14" y="0" on="1"/>
        <pt x="-54" y="0" on="1"/>
        <pt x="307" y="483" on="1"/>
        <pt x="601" y="483" on="1"/>
        <pt x="589" y="428" on="1"/>
        <pt x="371" y="428" on="1"/>
        <pt x="359" y="281" on="1"/>
        <pt x="548" y="281" on="1"/>
        <pt x="537" y="226" on="1"/>
        <pt x="357" y="226" on="1"/>
        <pt x="346" y="55" on="1"/>
        <pt x="522" y="55" on="1"/>
      </contour>
      <contour>
        <pt x="298" y="244" on="1"/>
        <pt x="314" y="405" on="1"/>
        <pt x="193" y="244" on="1"/>
      </contour>
    </TTGlyph>
    <TTGlyph name="Aacute" xMin="-45" yMin="0" xMax="408" yMax="636">
      <component glyphName="A" x="0" y="0" flags="0x204"/>
      <component glyphName="acutecomb" x="394" y="136" flags="0x4"/>
    </TTGlyph>
    <TTGlyph name="Abreve" xMin="-45" yMin="0" xMax="1160" yMax="1307">
      <component glyphName="A" x="0" y="0" flags="0x204"/>
      <component glyphName="breve" x="83" y="136" flags="0x4"/>
    </TTGlyph>
    <TTGlyph name="Acircumflex" xMin="-45" yMin="0" xMax="408" yMax="636">
      <component glyphName="A" x="0" y="0" flags="0x204"/>
      <component glyphName="circumflex" x="145" y="136" flags="0x4"/>
    </TTGlyph>
    <TTGlyph name="Adieresis" xMin="-45" yMin="0" xMax="422" yMax="605">
      <component glyphName="A" x="0" y="0" flags="0x204"/>
      <component glyphName="dieresis" x="84" y="136" flags="0x4"/>
    </TTGlyph>
    <TTGlyph name="Agrave" xMin="-45" yMin="0" xMax="408" yMax="636">
      <component glyphName="A" x="0" y="0" flags="0x204"/>
      <component glyphName="gravecomb" x="372" y="136" flags="0x4"/>
    </TTGlyph>
    <TTGlyph name="Aring" xMin="-45" yMin="0" xMax="408" yMax="680">
      <component glyphName="A" x="0" y="0" flags="0x204"/>
      <component glyphName="ring" x="121" y="136" flags="0x4"/>
    </TTGlyph>
    <TTGlyph name="Atilde" xMin="-45" yMin="0" xMax="408" yMax="592">
      <component glyphName="A" x="0" y="0" flags="0x204"/>
      <component glyphName="tildecomb" x="383" y="136" flags="0x4"/>
    </TTGlyph>
    <TTGlyph name="B" xMin="7" yMin="-6" xMax="405" yMax="482">
      <contour>
        <pt x="351" y="138" on="1"/>
        <pt x="320" y="-6" on="0"/>
        <pt x="108" y="-6" on="1"/>
        <pt x="63" y="-6" on="0"/>
        <pt x="7" y="7" on="1"/>
        <pt x="105" y="467" on="1"/>
        <pt x="170" y="482" on="0"/>
        <pt x="222" y="482" on="1"/>
        <pt x="405" y="482" on="0"/>
        <pt x="378" y="356" on="1"/>
        <pt x="365" y="292" on="0"/>
        <pt x="297" y="255" on="1"/>
        <pt x="368" y="218" on="0"/>
      </contour>
      <contour>
        <pt x="315" y="355" on="1"/>
        <pt x="330" y="427" on="0"/>
        <pt x="210" y="427" on="1"/>
        <pt x="189" y="427" on="0"/>
        <pt x="159" y="424" on="1"/>
        <pt x="128" y="278" on="1"/>
        <pt x="199" y="278" on="1"/>
        <pt x="243" y="278" on="0"/>
        <pt x="307" y="319" on="0"/>
      </contour>
      <contour>
        <pt x="289" y="137" on="1"/>
        <pt x="299" y="185" on="0"/>
        <pt x="258" y="208" on="1"/>
        <pt x="226" y="225" on="0"/>
        <pt x="174" y="225" on="1"/>
        <pt x="116" y="225" on="1"/>
        <pt x="79" y="51" on="1"/>
        <pt x="96" y="48" on="0"/>
        <pt x="129" y="48" on="1"/>
        <pt x="194" y="48" on="0"/>
        <pt x="279" y="94" on="0"/>
      </contour>
    </TTGlyph>
    <TTGlyph name="C" xMin="9" yMin="-7" xMax="462" yMax="483">
      <contour>
        <pt x="371" y="25" on="1"/>
        <pt x="291" y="-7" on="0"/>
        <pt x="190" y="-7" on="1"/>
        <pt x="95" y="-7" on="0"/>
        <pt x="9" y="128" on="0"/>
        <pt x="32" y="237" on="1"/>
        <pt x="55" y="345" on="0"/>
        <pt x="125" y="411" on="1"/>
        <pt x="202" y="483" on="0"/>
        <pt x="313" y="483" on="1"/>
        <pt x="398" y="483" on="0"/>
        <pt x="462" y="454" on="1"/>
        <pt x="431" y="404" on="1"/>
        <pt x="377" y="429" on="0"/>
        <pt x="304" y="429" on="1"/>
        <pt x="212" y="429" on="0"/>
        <pt x="154" y="361" on="1"/>
        <pt x="112" y="311" on="0"/>
        <pt x="95" y="235" on="1"/>
        <pt x="81" y="165" on="0"/>
        <pt x="105" y="113" on="1"/>
        <pt x="134" y="47" on="0"/>
        <pt x="214" y="47" on="1"/>
        <pt x="297" y="47" on="0"/>
        <pt x="365" y="77" on="1"/>
      </contour>
    </TTGlyph>
    <TTGlyph name="Cacute" xMin="9" yMin="-7" xMax="10152" yMax="3053">
      <component glyphName="C" x="0" y="0" flags="0x204"/>
      <component glyphName="acutecomb" x="385" y="136" flags="0x4"/>
    </TTGlyph>
    <TTGlyph name="Ccaron" xMin="9" yMin="-7" xMax="583" yMax="908">
      <component glyphName="C" x="0" y="0" flags="0x204"/>
      <component glyphName="caron" x="91" y="136" flags="0x4"/>
    </TTGlyph>
    <TTGlyph name="Ccedilla" xMin="9" yMin="-159" xMax="462" yMax="483">
      <component glyphName="C" x="0" y="0" flags="0x204"/>
      <component glyphName="cedilla" x="91" y="0" flags="0x4"/>
    </TTGlyph>
    <TTGlyph name="D" xMin="7" yMin="-4" xMax="463" yMax="481">
      <contour>
        <pt x="441" y="248" on="1"/>
        <pt x="418" y="140" on="0"/>
        <pt x="352" y="75" on="1"/>
        <pt x="272" y="-4" on="0"/>
        <pt x="139" y="-4" on="1"/>
        <pt x="98" y="-4" on="0"/>
        <pt x="7" y="6" on="1"/>
        <pt x="105" y="468" on="1"/>
        <pt x="222" y="481" on="0"/>
        <pt x="262" y="481" on="1"/>
        <pt x="384" y="481" on="0"/>
        <pt x="427" y="408" on="1"/>
        <pt x="463" y="349" on="0"/>
      </contour>
      <contour>
        <pt x="377" y="248" on="1"/>
        <pt x="415" y="427" on="0"/>
        <pt x="247" y="427" on="1"/>
        <pt x="219" y="427" on="0"/>
        <pt x="158" y="421" on="1"/>
        <pt x="80" y="53" on="1"/>
        <pt x="112" y="50" on="0"/>
        <pt x="162" y="50" on="1"/>
        <pt x="259" y="50" on="0"/>
        <pt x="318" y="119" on="1"/>
        <pt x="361" y="170" on="0"/>
      </contour>
    </TTGlyph>
    <TTGlyph name="Dcroat" xMin="7" yMin="-4" xMax="463" yMax="481">
      <contour>
        <pt x="441" y="248" on="1"/>
        <pt x="418" y="140" on="0"/>
        <pt x="352" y="75" on="1"/>
        <pt x="272" y="-4" on="0"/>
        <pt x="139" y="-4" on="1"/>
        <pt x="98" y="-4" on="0"/>
        <pt x="7" y="6" on="1"/>
        <pt x="49" y="206" on="1"/>
        <pt x="8" y="206" on="1"/>
        <pt x="20" y="260" on="1"/>
        <pt x="61" y="260" on="1"/>
        <pt x="105" y="468" on="1"/>
        <pt x="222" y="481" on="0"/>
        <pt x="262" y="481" on="1"/>
        <pt x="384" y="481" on="0"/>
        <pt x="427" y="408" on="1"/>
        <pt x="463" y="349" on="0"/>
      </contour>
      <contour>
        <pt x="377" y="248" on="1"/>
        <pt x="415" y="427" on="0"/>
        <pt x="247" y="427" on="1"/>
        <pt x="219" y="427" on="0"/>
        <pt x="158" y="421" on="1"/>
        <pt x="124" y="260" on="1"/>
        <pt x="284" y="260" on="1"/>
        <pt x="272" y="206" on="1"/>
        <pt x="112" y="206" on="1"/>
        <pt x="80" y="53" on="1"/>
        <pt x="112" y="50" on="0"/>
        <pt x="162" y="50" on="1"/>
        <pt x="259" y="50" on="0"/>
        <pt x="318" y="119" on="1"/>
        <pt x="361" y="170" on="0"/>
      </contour>
    </TTGlyph>
    <TTGlyph name="Delta" xMin="-41" yMin="0" xMax="433" yMax="472">
      <contour>
        <pt x="358" y="47" on="1"/>
        <pt x="272" y="361" on="1"/>
        <pt x="52" y="47" on="1"/>
      </contour>
      <contour>
        <pt x="433" y="0" on="1"/>
        <pt x="-41" y="0" on="1"/>
        <pt x="296" y="472" on="1"/>
      </contour>
    </TTGlyph>
    <TTGlyph name="E" xMin="6" yMin="0" xMax="390" yMax="476">
      <contour>
        <pt x="289" y="0" on="1"/>
        <pt x="6" y="0" on="1"/>
        <pt x="107" y="476" on="1"/>
        <pt x="390" y="476" on="1"/>
        <pt x="378" y="422" on="1"/>
        <pt x="158" y="422" on="1"/>
        <pt x="128" y="278" on="1"/>
        <pt x="324" y="278" on="1"/>
        <pt x="312" y="224" on="1"/>
        <pt x="116" y="224" on="1"/>
        <pt x="80" y="54" on="1"/>
        <pt x="300" y="54" on="1"/>
      </contour>
    </TTGlyph>
    <TTGlyph name="Eacute" xMin="6" yMin="0" xMax="726" yMax="772">
      <component glyphName="E" x="0" y="0" flags="0x204"/>
      <component glyphName="acutecomb" x="348" y="136" flags="0x4"/>
    </TTGlyph>
    <TTGlyph name="Ecircumflex" xMin="6" yMin="0" xMax="485" yMax="772">
      <component glyphName="E" x="0" y="0" flags="0x204"/>
      <component glyphName="circumflex" x="99" y="136" flags="0x4"/>
    </TTGlyph>
    <TTGlyph name="Edieresis" xMin="6" yMin="0" xMax="459" yMax="741">
      <component glyphName="E" x="0" y="0" flags="0x204"/>
      <component glyphName="dieresis" x="37" y="136" flags="0x4"/>
    </TTGlyph>
    <TTGlyph name="Egrave" xMin="6" yMin="0" xMax="683" yMax="772">
      <component glyphName="E" x="0" y="0" flags="0x204"/>
      <component glyphName="gravecomb" x="326" y="136" flags="0x4"/>
    </TTGlyph>
    <TTGlyph name="Eth" xMin="7" yMin="-4" xMax="463" yMax="481">
      <contour>
        <pt x="441" y="248" on="1"/>
        <pt x="418" y="140" on="0"/>
        <pt x="352" y="75" on="1"/>
        <pt x="272" y="-4" on="0"/>
        <pt x="139" y="-4" on="1"/>
        <pt x="98" y="-4" on="0"/>
        <pt x="7" y="6" on="1"/>
        <pt x="49" y="206" on="1"/>
        <pt x="8" y="206" on="1"/>
        <pt x="20" y="260" on="1"/>
        <pt x="61" y="260" on="1"/>
        <pt x="105" y="468" on="1"/>
        <pt x="222" y="481" on="0"/>
        <pt x="262" y="481" on="1"/>
        <pt x="384" y="481" on="0"/>
        <pt x="427" y="408" on="1"/>
        <pt x="463" y="349" on="0"/>
      </contour>
      <contour>
        <pt x="377" y="248" on="1"/>
        <pt x="415" y="427" on="0"/>
        <pt x="247" y="427" on="1"/>
        <pt x="219" y="427" on="0"/>
        <pt x="158" y="421" on="1"/>
        <pt x="124" y="260" on="1"/>
        <pt x="284" y="260" on="1"/>
        <pt x="272" y="206" on="1"/>
        <pt x="112" y="206" on="1"/>
        <pt x="80" y="53" on="1"/>
        <pt x="112" y="50" on="0"/>
        <pt x="162" y="50" on="1"/>
        <pt x="259" y="50" on="0"/>
        <pt x="318" y="119" on="1"/>
        <pt x="361" y="170" on="0"/>
      </contour>
    </TTGlyph>
    <TTGlyph name="Euro" xMin="15" yMin="-9" xMax="537" yMax="484">
      <contour>
        <pt x="449" y="25" on="1"/>
        <pt x="411" y="9" on="0"/>
        <pt x="322" y="-9" on="0"/>
        <pt x="280" y="-9" on="1"/>
        <pt x="244" y="-9" on="0"/>
        <pt x="178" y="13" on="0"/>
        <pt x="124" y="54" on="0"/>
        <pt x="85" y="110" on="0"/>
        <pt x="76" y="143" on="1"/>
        <pt x="15" y="143" on="1"/>
        <pt x="26" y="197" on="1"/>
        <pt x="73" y="197" on="1"/>
        <pt x="78" y="234" on="0"/>
        <pt x="89" y="270" on="1"/>
        <pt x="42" y="270" on="1"/>
        <pt x="53" y="323" on="1"/>
        <pt x="114" y="323" on="1"/>
        <pt x="165" y="398" on="0"/>
        <pt x="317" y="484" on="0"/>
        <pt x="401" y="484" on="1"/>
        <pt x="469" y="484" on="0"/>
        <pt x="537" y="454" on="1"/>
        <pt x="506" y="398" on="1"/>
        <pt x="457" y="429" on="0"/>
        <pt x="392" y="429" on="1"/>
        <pt x="322" y="429" on="0"/>
        <pt x="213" y="374" on="0"/>
        <pt x="178" y="323" on="1"/>
        <pt x="424" y="323" on="1"/>
        <pt x="413" y="270" on="1"/>
        <pt x="150" y="270" on="1"/>
        <pt x="138" y="234" on="0"/>
        <pt x="135" y="197" on="1"/>
        <pt x="397" y="197" on="1"/>
        <pt x="386" y="143" on="1"/>
        <pt x="142" y="143" on="1"/>
        <pt x="158" y="101" on="0"/>
        <pt x="239" y="47" on="0"/>
        <pt x="303" y="47" on="1"/>
        <pt x="336" y="47" on="0"/>
        <pt x="402" y="60" on="0"/>
        <pt x="435" y="74" on="1"/>
      </contour>
    </TTGlyph>
    <TTGlyph name="F" xMin="6" yMin="0" xMax="400" yMax="476">
      <contour>
        <pt x="69" y="0" on="1"/>
        <pt x="6" y="0" on="1"/>
        <pt x="107" y="476" on="1"/>
        <pt x="400" y="476" on="1"/>
        <pt x="388" y="422" on="1"/>
        <pt x="158" y="422" on="1"/>
        <pt x="126" y="272" on="1"/>
        <pt x="342" y="272" on="1"/>
        <pt x="331" y="219" on="1"/>
        <pt x="115" y="219" on="1"/>
      </contour>
    </TTGlyph>
    <TTGlyph name="G" xMin="9" yMin="-7" xMax="462" yMax="483">
      <contour>
        <pt x="372" y="11" on="1"/>
        <pt x="342" y="19" on="1"/>
        <pt x="278" y="-7" on="0"/>
        <pt x="190" y="-7" on="1"/>
        <pt x="95" y="-7" on="0"/>
        <pt x="9" y="128" on="0"/>
        <pt x="32" y="237" on="1"/>
        <pt x="55" y="345" on="0"/>
        <pt x="125" y="411" on="1"/>
        <pt x="202" y="483" on="0"/>
        <pt x="313" y="483" on="1"/>
        <pt x="398" y="483" on="0"/>
        <pt x="462" y="454" on="1"/>
        <pt x="431" y="404" on="1"/>
        <pt x="377" y="429" on="0"/>
        <pt x="304" y="429" on="1"/>
        <pt x="212" y="429" on="0"/>
        <pt x="154" y="361" on="1"/>
        <pt x="112" y="311" on="0"/>
        <pt x="95" y="235" on="1"/>
        <pt x="81" y="165" on="0"/>
        <pt x="105" y="113" on="1"/>
        <pt x="134" y="47" on="0"/>
        <pt x="214" y="47" on="1"/>
        <pt x="273" y="47" on="0"/>
        <pt x="320" y="63" on="1"/>
        <pt x="349" y="198" on="1"/>
        <pt x="229" y="198" on="1"/>
        <pt x="240" y="251" on="1"/>
        <pt x="423" y="251" on="1"/>
      </contour>
    </TTGlyph>
    <TTGlyph name="Gbreve" xMin="9" yMin="-7" xMax="1309" yMax="1443">
      <component glyphName="G" x="0" y="0" flags="0x204"/>
      <component glyphName="breve" x="85" y="136" flags="0x4"/>
    </TTGlyph>
    <TTGlyph name="H" xMin="6" yMin="0" xMax="479" yMax="476">
      <contour>
        <pt x="378" y="0" on="1"/>
        <pt x="315" y="0" on="1"/>
        <pt x="363" y="226" on="1"/>
        <pt x="117" y="226" on="1"/>
        <pt x="69" y="0" on="1"/>
        <pt x="6" y="0" on="1"/>
        <pt x="107" y="476" on="1"/>
        <pt x="170" y="476" on="1"/>
        <pt x="128" y="280" on="1"/>
        <pt x="374" y="280" on="1"/>
        <pt x="416" y="476" on="1"/>
        <pt x="479" y="476" on="1"/>
      </contour>
    </TTGlyph>
    <TTGlyph name="I" xMin="6" yMin="0" xMax="170" yMax="476">
      <contour>
        <pt x="69" y="0" on="1"/>
        <pt x="6" y="0" on="1"/>
        <pt x="107" y="476" on="1"/>
        <pt x="170" y="476" on="1"/>
      </contour>
    </TTGlyph>
    <TTGlyph name="Iacute" xMin="6" yMin="0" xMax="976" yMax="908">
      <component glyphName="I" x="0" y="0" flags="0x204"/>
      <component glyphName="acutecomb" x="250" y="136" flags="0x4"/>
    </TTGlyph>
    <TTGlyph name="Icircumflex" xMin="6" yMin="0" xMax="487" yMax="908">
      <component glyphName="I" x="0" y="0" flags="0x204"/>
      <component glyphName="circumflex" x="2" y="136" flags="0x4"/>
    </TTGlyph>
    <TTGlyph name="Idieresis" xMin="6" yMin="0" xMax="404" yMax="877">
      <component glyphName="I" x="0" y="0" flags="0x204"/>
      <component glyphName="dieresis" x="-55" y="136" flags="0x4"/>
    </TTGlyph>
    <TTGlyph name="Idotaccent" xMin="6" yMin="0" xMax="205" yMax="589">
      <component glyphName="I" x="0" y="0" flags="0x204"/>
      <component glyphName="dotaccent" x="-10" y="0" flags="0x4"/>
    </TTGlyph>
    <TTGlyph name="Igrave" xMin="6" yMin="0" xMax="911" yMax="908">
      <component glyphName="I" x="0" y="0" flags="0x204"/>
      <component glyphName="gravecomb" x="228" y="136" flags="0x4"/>
    </TTGlyph>
    <TTGlyph name="Itilde" xMin="6" yMin="0" xMax="8460" yMax="3276">
      <component glyphName="I" x="0" y="0" flags="0x204"/>
      <component glyphName="tildecomb" x="241" y="136" flags="0x4"/>
    </TTGlyph>
    <TTGlyph name="J" xMin="-47" yMin="-9" xMax="289" yMax="476">
      <contour>
        <pt x="222" y="160" on="1"/>
        <pt x="186" y="-9" on="0"/>
        <pt x="33" y="-9" on="1"/>
        <pt x="-5" y="-9" on="0"/>
        <pt x="-47" y="10" on="1"/>
        <pt x="-19" y="62" on="1"/>
        <pt x="5" y="45" on="0"/>
        <pt x="44" y="45" on="1"/>
        <pt x="91" y="45" on="0"/>
        <pt x="146" y="101" on="0"/>
        <pt x="161" y="170" on="1"/>
        <pt x="226" y="476" on="1"/>
        <pt x="289" y="476" on="1"/>
      </contour>
    </TTGlyph>
    <TTGlyph name="K" xMin="6" yMin="-7" xMax="456" yMax="484">
      <contour>
        <pt x="377" y="15" on="1"/>
        <pt x="312" y="-7" on="1"/>
        <pt x="156" y="229" on="1"/>
        <pt x="109" y="191" on="1"/>
        <pt x="69" y="0" on="1"/>
        <pt x="6" y="0" on="1"/>
        <pt x="107" y="476" on="1"/>
        <pt x="170" y="476" on="1"/>
        <pt x="125" y="266" on="1"/>
        <pt x="398" y="484" on="1"/>
        <pt x="456" y="468" on="1"/>
        <pt x="208" y="271" on="1"/>
      </contour>
    </TTGlyph>
    <TTGlyph name="L" xMin="6" yMin="0" xMax="313" yMax="476">
      <contour>
        <pt x="302" y="0" on="1"/>
        <pt x="6" y="0" on="1"/>
        <pt x="107" y="476" on="1"/>
        <pt x="170" y="476" on="1"/>
        <pt x="80" y="54" on="1"/>
        <pt x="313" y="54" on="1"/>
      </contour>
    </TTGlyph>
    <TTGlyph name="Lslash" xMin="6" yMin="0" xMax="353" yMax="476">
      <contour>
        <pt x="302" y="0" on="1"/>
        <pt x="6" y="0" on="1"/>
        <pt x="37" y="149" on="1"/>
        <pt x="7" y="142" on="1"/>
        <pt x="20" y="204" on="1"/>
        <pt x="50" y="211" on="1"/>
        <pt x="107" y="476" on="1"/>
        <pt x="170" y="476" on="1"/>
        <pt x="117" y="226" on="1"/>
        <pt x="353" y="279" on="1"/>
        <pt x="340" y="217" on="1"/>
        <pt x="103" y="164" on="1"/>
        <pt x="80" y="54" on="1"/>
        <pt x="313" y="54" on="1"/>
      </contour>
    </TTGlyph>
    <TTGlyph name="M" xMin="-15" yMin="0" xMax="568" yMax="476">
      <contour>
        <pt x="501" y="0" on="1"/>
        <pt x="440" y="0" on="1"/>
        <pt x="492" y="369" on="1"/>
        <pt x="264" y="0" on="1"/>
        <pt x="222" y="0" on="1"/>
        <pt x="150" y="369" on="1"/>
        <pt x="46" y="0" on="1"/>
        <pt x="-15" y="0" on="1"/>
        <pt x="120" y="476" on="1"/>
        <pt x="186" y="476" on="1"/>
        <pt x="260" y="80" on="1"/>
        <pt x="502" y="476" on="1"/>
        <pt x="568" y="476" on="1"/>
      </contour>
    </TTGlyph>
    <TTGlyph name="N" xMin="6" yMin="0" xMax="479" yMax="476">
      <contour>
        <pt x="378" y="0" on="1"/>
        <pt x="318" y="0" on="1"/>
        <pt x="151" y="386" on="1"/>
        <pt x="69" y="0" on="1"/>
        <pt x="6" y="0" on="1"/>
        <pt x="107" y="476" on="1"/>
        <pt x="170" y="476" on="1"/>
        <pt x="336" y="100" on="1"/>
        <pt x="416" y="476" on="1"/>
        <pt x="479" y="476" on="1"/>
      </contour>
    </TTGlyph>
    <TTGlyph name="Ntilde" xMin="6" yMin="0" xMax="799" yMax="728">
      <component glyphName="N" x="0" y="0" flags="0x204"/>
      <component glyphName="tildecomb" x="394" y="136" flags="0x4"/>
    </TTGlyph>
    <TTGlyph name="O" xMin="10" yMin="-10" xMax="520" yMax="485">
      <contour>
        <pt x="436" y="238" on="1"/>
        <pt x="454" y="320" on="0"/>
        <pt x="383" y="431" on="0"/>
        <pt x="306" y="431" on="1"/>
        <pt x="229" y="431" on="0"/>
        <pt x="112" y="320" on="0"/>
        <pt x="94" y="238" on="1"/>
        <pt x="77" y="156" on="0"/>
        <pt x="147" y="45" on="0"/>
        <pt x="224" y="45" on="1"/>
        <pt x="301" y="45" on="0"/>
        <pt x="419" y="156" on="0"/>
      </contour>
      <contour>
        <pt x="498" y="237" on="1"/>
        <pt x="476" y="132" on="0"/>
        <pt x="315" y="-10" on="0"/>
        <pt x="212" y="-10" on="1"/>
        <pt x="109" y="-10" on="0"/>
        <pt x="10" y="132" on="0"/>
        <pt x="32" y="237" on="1"/>
        <pt x="54" y="342" on="0"/>
        <pt x="215" y="485" on="0"/>
        <pt x="318" y="485" on="1"/>
        <pt x="421" y="485" on="0"/>
        <pt x="520" y="342" on="0"/>
      </contour>
    </TTGlyph>
    <TTGlyph name="OE" xMin="10" yMin="-10" xMax="755" yMax="486">
      <contour>
        <pt x="654" y="0" on="1"/>
        <pt x="371" y="0" on="1"/>
        <pt x="376" y="27" on="1"/>
        <pt x="308" y="-10" on="0"/>
        <pt x="232" y="-10" on="1"/>
        <pt x="121" y="-10" on="0"/>
        <pt x="10" y="132" on="0"/>
        <pt x="32" y="238" on="1"/>
        <pt x="54" y="343" on="0"/>
        <pt x="227" y="486" on="0"/>
        <pt x="338" y="486" on="1"/>
        <pt x="414" y="486" on="0"/>
        <pt x="466" y="448" on="1"/>
        <pt x="472" y="476" on="1"/>
        <pt x="755" y="476" on="1"/>
        <pt x="743" y="422" on="1"/>
        <pt x="523" y="422" on="1"/>
        <pt x="493" y="278" on="1"/>
        <pt x="689" y="278" on="1"/>
        <pt x="677" y="224" on="1"/>
        <pt x="481" y="224" on="1"/>
        <pt x="445" y="54" on="1"/>
        <pt x="665" y="54" on="1"/>
      </contour>
      <contour>
        <pt x="393" y="104" on="1"/>
        <pt x="449" y="369" on="1"/>
        <pt x="411" y="431" on="0"/>
        <pt x="326" y="431" on="1"/>
        <pt x="250" y="431" on="0"/>
        <pt x="111" y="314" on="0"/>
        <pt x="95" y="238" on="1"/>
        <pt x="79" y="160" on="0"/>
        <pt x="167" y="44" on="0"/>
        <pt x="244" y="44" on="1"/>
        <pt x="329" y="44" on="0"/>
      </contour>
    </TTGlyph>
    <TTGlyph name="Oacute" xMin="10" yMin="-10" xMax="1404" yMax="1044">
      <component glyphName="O" x="0" y="0" flags="0x204"/>
      <component glyphName="acutecomb" x="428" y="136" flags="0x4"/>
    </TTGlyph>
    <TTGlyph name="Ocircumflex" xMin="10" yMin="-10" xMax="666" yMax="1044">
      <component glyphName="O" x="0" y="0" flags="0x204"/>
      <component glyphName="circumflex" x="179" y="136" flags="0x4"/>
    </TTGlyph>
    <TTGlyph name="Odieresis" xMin="10" yMin="-10" xMax="521" yMax="1013">
      <component glyphName="O" x="0" y="0" flags="0x204"/>
      <component glyphName="dieresis" x="117" y="136" flags="0x4"/>
    </TTGlyph>
    <TTGlyph name="Ograve" xMin="10" yMin="-10" xMax="1317" yMax="1044">
      <component glyphName="O" x="0" y="0" flags="0x204"/>
      <component glyphName="gravecomb" x="406" y="136" flags="0x4"/>
    </TTGlyph>
    <TTGlyph name="Ohm" xMin="-12" yMin="0" xMax="463" yMax="455">
      <contour>
        <pt x="401" y="0" on="1"/>
        <pt x="228" y="0" on="1"/>
        <pt x="255" y="131" on="1"/>
        <pt x="361" y="174" on="0"/>
        <pt x="382" y="269" on="1"/>
        <pt x="394" y="326" on="0"/>
        <pt x="336" y="401" on="0"/>
        <pt x="280" y="401" on="1"/>
        <pt x="224" y="401" on="0"/>
        <pt x="133" y="326" on="0"/>
        <pt x="121" y="269" on="1"/>
        <pt x="100" y="174" on="0"/>
        <pt x="188" y="131" on="1"/>
        <pt x="161" y="0" on="1"/>
        <pt x="-12" y="0" on="1"/>
        <pt x="0" y="54" on="1"/>
        <pt x="117" y="54" on="1"/>
        <pt x="125" y="93" on="1"/>
        <pt x="89" y="113" on="0"/>
        <pt x="45" y="210" on="0"/>
        <pt x="57" y="266" on="1"/>
        <pt x="76" y="357" on="0"/>
        <pt x="203" y="455" on="0"/>
        <pt x="291" y="455" on="1"/>
        <pt x="378" y="455" on="0"/>
        <pt x="463" y="356" on="0"/>
        <pt x="444" y="266" on="1"/>
        <pt x="431" y="205" on="0"/>
        <pt x="348" y="111" on="0"/>
        <pt x="302" y="93" on="1"/>
        <pt x="294" y="54" on="1"/>
        <pt x="412" y="54" on="1"/>
      </contour>
    </TTGlyph>
    <TTGlyph name="Ohorn" xMin="10" yMin="-10" xMax="535" yMax="527">
      <contour>
        <pt x="498" y="237" on="1"/>
        <pt x="476" y="132" on="0"/>
        <pt x="315" y="-10" on="0"/>
        <pt x="212" y="-10" on="1"/>
        <pt x="109" y="-10" on="0"/>
        <pt x="10" y="132" on="0"/>
        <pt x="32" y="237" on="1"/>
        <pt x="54" y="342" on="0"/>
        <pt x="215" y="485" on="0"/>
        <pt x="318" y="485" on="1"/>
        <pt x="390" y="485" on="0"/>
        <pt x="438" y="448" on="1"/>
        <pt x="471" y="481" on="0"/>
        <pt x="481" y="527" on="1"/>
        <pt x="535" y="527" on="1"/>
        <pt x="522" y="469" on="0"/>
        <pt x="468" y="416" on="1"/>
        <pt x="521" y="345" on="0"/>
      </contour>
      <contour>
        <pt x="436" y="238" on="1"/>
        <pt x="454" y="320" on="0"/>
        <pt x="383" y="431" on="0"/>
        <pt x="306" y="431" on="1"/>
        <pt x="229" y="431" on="0"/>
        <pt x="112" y="320" on="0"/>
        <pt x="94" y="238" on="1"/>
        <pt x="77" y="156" on="0"/>
        <pt x="147" y="45" on="0"/>
        <pt x="224" y="45" on="1"/>
        <pt x="301" y="45" on="0"/>
        <pt x="419" y="156" on="0"/>
      </contour>
    </TTGlyph>
    <TTGlyph name="Oslash" xMin="10" yMin="-28" xMax="520" yMax="492">
      <contour>
        <pt x="498" y="237" on="1"/>
        <pt x="476" y="132" on="0"/>
        <pt x="315" y="-10" on="0"/>
        <pt x="212" y="-10" on="1"/>
        <pt x="165" y="-10" on="0"/>
        <pt x="129" y="4" on="1"/>
        <pt x="107" y="-28" on="1"/>
        <pt x="43" y="-28" on="1"/>
        <pt x="85" y="31" on="1"/>
        <pt x="71" y="44" on="0"/>
        <pt x="59" y="61" on="1"/>
        <pt x="10" y="132" on="0"/>
        <pt x="32" y="237" on="1"/>
        <pt x="54" y="342" on="0"/>
        <pt x="215" y="485" on="0"/>
        <pt x="318" y="485" on="1"/>
        <pt x="367" y="485" on="0"/>
        <pt x="403" y="469" on="1"/>
        <pt x="420" y="492" on="1"/>
        <pt x="484" y="492" on="1"/>
        <pt x="446" y="440" on="1"/>
        <pt x="459" y="428" on="0"/>
        <pt x="470" y="413" on="1"/>
        <pt x="520" y="342" on="0"/>
      </contour>
      <contour>
        <pt x="368" y="419" on="1"/>
        <pt x="341" y="431" on="0"/>
        <pt x="306" y="431" on="1"/>
        <pt x="229" y="431" on="0"/>
        <pt x="112" y="320" on="0"/>
        <pt x="94" y="238" on="1"/>
        <pt x="77" y="156" on="0"/>
        <pt x="112" y="100" on="1"/>
        <pt x="117" y="91" on="0"/>
        <pt x="123" y="84" on="1"/>
      </contour>
      <contour>
        <pt x="436" y="238" on="1"/>
        <pt x="454" y="320" on="0"/>
        <pt x="418" y="375" on="1"/>
        <pt x="414" y="382" on="0"/>
        <pt x="409" y="388" on="1"/>
        <pt x="166" y="55" on="1"/>
        <pt x="191" y="45" on="0"/>
        <pt x="224" y="45" on="1"/>
        <pt x="301" y="45" on="0"/>
        <pt x="419" y="156" on="0"/>
      </contour>
    </TTGlyph>
    <TTGlyph name="Otilde" xMin="10" yMin="-10" xMax="1216" yMax="864">
      <component glyphName="O" x="0" y="0" flags="0x204"/>
      <component glyphName="tildecomb" x="417" y="136" flags="0x4"/>
    </TTGlyph>
    <TTGlyph name="P" xMin="6" yMin="0" xMax="406" yMax="481">
      <contour>
        <pt x="393" y="339" on="1"/>
        <pt x="378" y="270" on="0"/>
        <pt x="249" y="185" on="0"/>
        <pt x="158" y="185" on="1"/>
        <pt x="135" y="185" on="0"/>
        <pt x="108" y="188" on="1"/>
        <pt x="69" y="0" on="1"/>
        <pt x="6" y="0" on="1"/>
        <pt x="105" y="469" on="1"/>
        <pt x="180" y="481" on="0"/>
        <pt x="235" y="481" on="1"/>
        <pt x="323" y="481" on="0"/>
        <pt x="406" y="402" on="0"/>
      </contour>
      <contour>
        <pt x="329" y="336" on="1"/>
        <pt x="348" y="427" on="0"/>
        <pt x="222" y="427" on="1"/>
        <pt x="188" y="427" on="0"/>
        <pt x="159" y="424" on="1"/>
        <pt x="121" y="245" on="1"/>
        <pt x="153" y="239" on="0"/>
        <pt x="176" y="239" on="1"/>
        <pt x="308" y="239" on="0"/>
      </contour>
    </TTGlyph>
    <TTGlyph name="PSK" xMin="58" yMin="-1" xMax="947" yMax="734">
      <contour>
        <pt x="212" y="520" on="1"/>
        <pt x="212" y="548" on="0"/>
        <pt x="168" y="548" on="1"/>
        <pt x="130" y="548" on="1"/>
        <pt x="130" y="491" on="1"/>
        <pt x="168" y="491" on="1"/>
        <pt x="212" y="491" on="0"/>
      </contour>
      <contour>
        <pt x="271" y="519" on="1"/>
        <pt x="271" y="446" on="0"/>
        <pt x="171" y="446" on="1"/>
        <pt x="130" y="446" on="1"/>
        <pt x="130" y="366" on="1"/>
        <pt x="72" y="366" on="1"/>
        <pt x="72" y="591" on="1"/>
        <pt x="182" y="591" on="1"/>
        <pt x="271" y="591" on="0"/>
      </contour>
      <contour>
        <pt x="779" y="366" on="1"/>
        <pt x="697" y="480" on="1"/>
        <pt x="697" y="366" on="1"/>
        <pt x="637" y="366" on="1"/>
        <pt x="637" y="591" on="1"/>
        <pt x="697" y="591" on="1"/>
        <pt x="697" y="495" on="1"/>
        <pt x="779" y="591" on="1"/>
        <pt x="849" y="591" on="1"/>
        <pt x="760" y="491" on="1"/>
        <pt x="856" y="366" on="1"/>
      </contour>
      <contour>
        <pt x="916" y="666" on="1"/>
        <pt x="911" y="640" on="0"/>
        <pt x="886" y="640" on="1"/>
        <pt x="855" y="640" on="0"/>
        <pt x="855" y="676" on="1"/>
        <pt x="855" y="712" on="0"/>
        <pt x="886" y="712" on="1"/>
        <pt x="913" y="712" on="0"/>
        <pt x="915" y="688" on="1"/>
        <pt x="899" y="688" on="1"/>
        <pt x="896" y="698" on="0"/>
        <pt x="886" y="698" on="1"/>
        <pt x="873" y="698" on="0"/>
        <pt x="873" y="677" on="1"/>
        <pt x="873" y="653" on="0"/>
        <pt x="887" y="653" on="1"/>
        <pt x="898" y="653" on="0"/>
        <pt x="899" y="666" on="1"/>
      </contour>
      <contour>
        <pt x="237" y="120" on="1"/>
        <pt x="237" y="146" on="0"/>
        <pt x="212" y="146" on="1"/>
        <pt x="185" y="146" on="0"/>
        <pt x="185" y="121" on="1"/>
        <pt x="185" y="96" on="0"/>
        <pt x="212" y="96" on="1"/>
        <pt x="237" y="96" on="0"/>
      </contour>
      <contour>
        <pt x="261" y="121" on="1"/>
        <pt x="261" y="79" on="0"/>
        <pt x="210" y="79" on="1"/>
        <pt x="162" y="79" on="0"/>
        <pt x="162" y="121" on="1"/>
        <pt x="162" y="162" on="0"/>
        <pt x="212" y="162" on="1"/>
        <pt x="261" y="162" on="0"/>
      </contour>
      <contour>
        <pt x="325" y="135" on="1"/>
        <pt x="325" y="145" on="0"/>
        <pt x="308" y="145" on="1"/>
        <pt x="293" y="145" on="1"/>
        <pt x="293" y="124" on="1"/>
        <pt x="308" y="124" on="1"/>
        <pt x="325" y="124" on="0"/>
      </contour>
      <contour>
        <pt x="348" y="135" on="1"/>
        <pt x="348" y="108" on="0"/>
        <pt x="310" y="108" on="1"/>
        <pt x="293" y="108" on="1"/>
        <pt x="293" y="83" on="1"/>
        <pt x="272" y="83" on="1"/>
        <pt x="272" y="162" on="1"/>
        <pt x="313" y="162" on="1"/>
        <pt x="348" y="162" on="0"/>
      </contour>
      <contour>
        <pt x="404" y="83" on="1"/>
        <pt x="381" y="83" on="1"/>
        <pt x="381" y="111" on="1"/>
        <pt x="345" y="162" on="1"/>
        <pt x="371" y="162" on="1"/>
        <pt x="395" y="128" on="1"/>
        <pt x="398" y="132" on="0"/>
        <pt x="417" y="162" on="1"/>
        <pt x="440" y="162" on="1"/>
        <pt x="404" y="110" on="1"/>
      </contour>
      <contour>
        <pt x="196" y="17" on="1"/>
        <pt x="189" y="34" on="1"/>
        <pt x="181" y="17" on="1"/>
      </contour>
      <contour>
        <pt x="215" y="0" on="1"/>
        <pt x="202" y="0" on="1"/>
        <pt x="198" y="9" on="1"/>
        <pt x="178" y="9" on="1"/>
        <pt x="174" y="0" on="1"/>
        <pt x="162" y="0" on="1"/>
        <pt x="182" y="43" on="1"/>
        <pt x="197" y="43" on="1"/>
      </contour>
      <contour>
        <pt x="689" y="0" on="1"/>
        <pt x="655" y="0" on="1"/>
        <pt x="655" y="43" on="1"/>
        <pt x="689" y="43" on="1"/>
        <pt x="689" y="34" on="1"/>
        <pt x="666" y="34" on="1"/>
        <pt x="666" y="26" on="1"/>
        <pt x="687" y="26" on="1"/>
        <pt x="687" y="18" on="1"/>
        <pt x="666" y="18" on="1"/>
        <pt x="666" y="9" on="1"/>
        <pt x="689" y="9" on="1"/>
      </contour>
      <contour>
        <pt x="774" y="43" on="1"/>
        <pt x="757" y="0" on="1"/>
        <pt x="745" y="0" on="1"/>
        <pt x="727" y="43" on="1"/>
        <pt x="739" y="43" on="1"/>
        <pt x="751" y="11" on="1"/>
        <pt x="763" y="43" on="1"/>
      </contour>
      <contour>
        <pt x="847" y="21" on="1"/>
        <pt x="847" y="34" on="0"/>
        <pt x="834" y="34" on="1"/>
        <pt x="826" y="34" on="1"/>
        <pt x="826" y="10" on="1"/>
        <pt x="834" y="10" on="1"/>
        <pt x="847" y="10" on="0"/>
      </contour>
      <contour>
        <pt x="858" y="21" on="1"/>
        <pt x="858" y="0" on="0"/>
        <pt x="834" y="0" on="1"/>
        <pt x="814" y="0" on="1"/>
        <pt x="814" y="43" on="1"/>
        <pt x="834" y="43" on="1"/>
        <pt x="858" y="43" on="0"/>
      </contour>
      <contour>
        <pt x="249" y="0" on="1"/>
        <pt x="217" y="0" on="1"/>
        <pt x="217" y="43" on="1"/>
        <pt x="227" y="43" on="1"/>
        <pt x="227" y="9" on="1"/>
        <pt x="249" y="9" on="1"/>
      </contour>
      <contour>
        <pt x="332" y="30" on="1"/>
        <pt x="332" y="35" on="0"/>
        <pt x="324" y="35" on="1"/>
        <pt x="318" y="35" on="1"/>
        <pt x="318" y="26" on="1"/>
        <pt x="324" y="26" on="1"/>
        <pt x="332" y="26" on="0"/>
      </contour>
      <contour>
        <pt x="345" y="32" on="1"/>
        <pt x="345" y="24" on="0"/>
        <pt x="337" y="21" on="1"/>
        <pt x="343" y="19" on="0"/>
        <pt x="347" y="0" on="1"/>
        <pt x="334" y="0" on="1"/>
        <pt x="334" y="4" on="0"/>
        <pt x="333" y="8" on="1"/>
        <pt x="330" y="17" on="0"/>
        <pt x="324" y="17" on="1"/>
        <pt x="318" y="17" on="1"/>
        <pt x="318" y="0" on="1"/>
        <pt x="307" y="0" on="1"/>
        <pt x="307" y="43" on="1"/>
        <pt x="328" y="43" on="1"/>
        <pt x="345" y="43" on="0"/>
      </contour>
      <contour>
        <pt x="361" y="43" on="1"/>
        <pt x="361" y="0" on="1"/>
        <pt x="352" y="0" on="1"/>
        <pt x="352" y="43" on="1"/>
      </contour>
      <contour>
        <pt x="412" y="3" on="1"/>
        <pt x="403" y="-1" on="0"/>
        <pt x="393" y="-1" on="1"/>
        <pt x="367" y="-1" on="0"/>
        <pt x="367" y="21" on="1"/>
        <pt x="367" y="44" on="0"/>
        <pt x="392" y="44" on="1"/>
        <pt x="411" y="44" on="0"/>
        <pt x="412" y="28" on="1"/>
        <pt x="401" y="28" on="1"/>
        <pt x="400" y="35" on="0"/>
        <pt x="392" y="35" on="1"/>
        <pt x="379" y="35" on="0"/>
        <pt x="379" y="22" on="1"/>
        <pt x="379" y="8" on="0"/>
        <pt x="393" y="8" on="1"/>
        <pt x="398" y="8" on="0"/>
        <pt x="401" y="9" on="1"/>
        <pt x="401" y="16" on="1"/>
        <pt x="392" y="16" on="1"/>
        <pt x="392" y="24" on="1"/>
        <pt x="412" y="24" on="1"/>
      </contour>
      <contour>
        <pt x="462" y="0" on="1"/>
        <pt x="451" y="0" on="1"/>
        <pt x="451" y="18" on="1"/>
        <pt x="429" y="18" on="1"/>
        <pt x="429" y="0" on="1"/>
        <pt x="418" y="0" on="1"/>
        <pt x="418" y="43" on="1"/>
        <pt x="429" y="43" on="1"/>
        <pt x="429" y="26" on="1"/>
        <pt x="451" y="26" on="1"/>
        <pt x="451" y="43" on="1"/>
        <pt x="462" y="43" on="1"/>
      </contour>
      <contour>
        <pt x="506" y="34" on="1"/>
        <pt x="492" y="34" on="1"/>
        <pt x="492" y="0" on="1"/>
        <pt x="480" y="0" on="1"/>
        <pt x="480" y="34" on="1"/>
        <pt x="465" y="34" on="1"/>
        <pt x="465" y="43" on="1"/>
        <pt x="506" y="43" on="1"/>
      </contour>
      <contour>
        <pt x="565" y="83" on="1"/>
        <pt x="540" y="83" on="1"/>
        <pt x="540" y="162" on="1"/>
        <pt x="565" y="162" on="1"/>
      </contour>
      <contour>
        <pt x="668" y="86" on="1"/>
        <pt x="650" y="81" on="0"/>
        <pt x="627" y="81" on="1"/>
        <pt x="576" y="81" on="0"/>
        <pt x="576" y="122" on="1"/>
        <pt x="576" y="163" on="0"/>
        <pt x="625" y="163" on="1"/>
        <pt x="665" y="163" on="0"/>
        <pt x="668" y="136" on="1"/>
        <pt x="642" y="136" on="1"/>
        <pt x="640" y="147" on="0"/>
        <pt x="624" y="147" on="1"/>
        <pt x="600" y="147" on="0"/>
        <pt x="600" y="123" on="1"/>
        <pt x="600" y="97" on="0"/>
        <pt x="627" y="97" on="1"/>
        <pt x="643" y="99" on="1"/>
        <pt x="643" y="113" on="1"/>
        <pt x="624" y="113" on="1"/>
        <pt x="624" y="126" on="1"/>
        <pt x="668" y="126" on="1"/>
      </contour>
      <contour>
        <pt x="768" y="83" on="1"/>
        <pt x="745" y="83" on="1"/>
        <pt x="745" y="115" on="1"/>
        <pt x="705" y="115" on="1"/>
        <pt x="705" y="83" on="1"/>
        <pt x="681" y="83" on="1"/>
        <pt x="681" y="162" on="1"/>
        <pt x="705" y="162" on="1"/>
        <pt x="705" y="131" on="1"/>
        <pt x="745" y="131" on="1"/>
        <pt x="745" y="162" on="1"/>
        <pt x="768" y="162" on="1"/>
      </contour>
      <contour>
        <pt x="864" y="144" on="1"/>
        <pt x="831" y="144" on="1"/>
        <pt x="831" y="83" on="1"/>
        <pt x="808" y="83" on="1"/>
        <pt x="808" y="144" on="1"/>
        <pt x="777" y="144" on="1"/>
        <pt x="777" y="162" on="1"/>
        <pt x="864" y="162" on="1"/>
      </contour>
      <contour>
        <pt x="506" y="137" on="1"/>
        <pt x="506" y="145" on="0"/>
        <pt x="488" y="145" on="1"/>
        <pt x="473" y="145" on="1"/>
        <pt x="473" y="126" on="1"/>
        <pt x="488" y="126" on="1"/>
        <pt x="506" y="126" on="0"/>
      </contour>
      <contour>
        <pt x="531" y="83" on="1"/>
        <pt x="509" y="83" on="1"/>
        <pt x="504" y="103" on="1"/>
        <pt x="503" y="113" on="0"/>
        <pt x="487" y="113" on="1"/>
        <pt x="473" y="113" on="1"/>
        <pt x="473" y="83" on="1"/>
        <pt x="450" y="83" on="1"/>
        <pt x="450" y="162" on="1"/>
        <pt x="495" y="162" on="1"/>
        <pt x="529" y="162" on="0"/>
        <pt x="529" y="141" on="1"/>
        <pt x="529" y="128" on="0"/>
        <pt x="512" y="122" on="1"/>
        <pt x="527" y="119" on="0"/>
        <pt x="527" y="103" on="1"/>
      </contour>
      <contour>
        <pt x="650" y="13" on="1"/>
        <pt x="650" y="-1" on="0"/>
        <pt x="630" y="-1" on="1"/>
        <pt x="612" y="-1" on="0"/>
        <pt x="612" y="15" on="1"/>
        <pt x="623" y="15" on="1"/>
        <pt x="623" y="8" on="0"/>
        <pt x="631" y="8" on="1"/>
        <pt x="638" y="8" on="0"/>
        <pt x="638" y="12" on="1"/>
        <pt x="638" y="13" on="0"/>
        <pt x="613" y="22" on="0"/>
        <pt x="613" y="30" on="1"/>
        <pt x="613" y="44" on="0"/>
        <pt x="631" y="44" on="1"/>
        <pt x="649" y="44" on="0"/>
        <pt x="649" y="30" on="1"/>
        <pt x="638" y="30" on="1"/>
        <pt x="638" y="36" on="0"/>
        <pt x="631" y="36" on="1"/>
        <pt x="624" y="36" on="0"/>
        <pt x="624" y="31" on="1"/>
        <pt x="624" y="27" on="0"/>
        <pt x="650" y="21" on="0"/>
      </contour>
      <contour>
        <pt x="809" y="0" on="1"/>
        <pt x="776" y="0" on="1"/>
        <pt x="776" y="43" on="1"/>
        <pt x="809" y="43" on="1"/>
        <pt x="809" y="34" on="1"/>
        <pt x="788" y="34" on="1"/>
        <pt x="788" y="26" on="1"/>
        <pt x="808" y="26" on="1"/>
        <pt x="808" y="18" on="1"/>
        <pt x="788" y="18" on="1"/>
        <pt x="788" y="9" on="1"/>
        <pt x="809" y="9" on="1"/>
      </contour>
      <contour>
        <pt x="608" y="9" on="1"/>
        <pt x="608" y="0" on="1"/>
        <pt x="574" y="0" on="1"/>
        <pt x="574" y="43" on="1"/>
        <pt x="607" y="43" on="1"/>
        <pt x="607" y="34" on="1"/>
        <pt x="585" y="34" on="1"/>
        <pt x="585" y="26" on="1"/>
        <pt x="606" y="26" on="1"/>
        <pt x="606" y="18" on="1"/>
        <pt x="585" y="18" on="1"/>
        <pt x="585" y="9" on="1"/>
      </contour>
      <contour>
        <pt x="156" y="109" on="1"/>
        <pt x="153" y="79" on="0"/>
        <pt x="113" y="79" on="1"/>
        <pt x="66" y="79" on="0"/>
        <pt x="66" y="122" on="1"/>
        <pt x="66" y="164" on="0"/>
        <pt x="115" y="164" on="1"/>
        <pt x="152" y="164" on="0"/>
        <pt x="156" y="134" on="1"/>
        <pt x="130" y="134" on="1"/>
        <pt x="129" y="147" on="0"/>
        <pt x="113" y="147" on="1"/>
        <pt x="90" y="147" on="0"/>
        <pt x="90" y="122" on="1"/>
        <pt x="90" y="97" on="0"/>
        <pt x="112" y="97" on="1"/>
        <pt x="129" y="97" on="0"/>
        <pt x="130" y="109" on="1"/>
      </contour>
      <contour>
        <pt x="867" y="199" on="1"/>
        <pt x="58" y="199" on="1"/>
        <pt x="58" y="224" on="1"/>
        <pt x="867" y="224" on="1"/>
      </contour>
      <contour>
        <pt x="562" y="406" on="1"/>
        <pt x="562" y="327" on="0"/>
        <pt x="504" y="290" on="1"/>
        <pt x="458" y="260" on="0"/>
        <pt x="386" y="260" on="1"/>
        <pt x="325" y="260" on="0"/>
        <pt x="256" y="312" on="0"/>
        <pt x="256" y="359" on="1"/>
        <pt x="256" y="375" on="0"/>
        <pt x="260" y="390" on="1"/>
        <pt x="298" y="390" on="1"/>
        <pt x="297" y="383" on="0"/>
        <pt x="297" y="373" on="1"/>
        <pt x="297" y="294" on="0"/>
        <pt x="396" y="294" on="1"/>
        <pt x="440" y="294" on="0"/>
        <pt x="475" y="315" on="1"/>
        <pt x="520" y="342" on="0"/>
        <pt x="520" y="392" on="1"/>
        <pt x="520" y="430" on="0"/>
        <pt x="468" y="450" on="1"/>
        <pt x="421" y="466" on="0"/>
        <pt x="373" y="482" on="1"/>
        <pt x="321" y="504" on="0"/>
        <pt x="321" y="546" on="1"/>
        <pt x="321" y="614" on="0"/>
        <pt x="373" y="650" on="1"/>
        <pt x="419" y="681" on="0"/>
        <pt x="492" y="681" on="1"/>
        <pt x="542" y="681" on="0"/>
        <pt x="601" y="639" on="0"/>
        <pt x="601" y="601" on="1"/>
        <pt x="601" y="586" on="0"/>
        <pt x="596" y="568" on="1"/>
        <pt x="560" y="568" on="1"/>
        <pt x="562" y="582" on="0"/>
        <pt x="562" y="587" on="1"/>
        <pt x="562" y="647" on="0"/>
        <pt x="496" y="647" on="1"/>
        <pt x="436" y="647" on="0"/>
        <pt x="365" y="601" on="0"/>
        <pt x="365" y="562" on="1"/>
        <pt x="365" y="536" on="0"/>
        <pt x="401" y="510" on="0"/>
        <pt x="516" y="477" on="0"/>
        <pt x="562" y="438" on="0"/>
      </contour>
      <contour>
        <pt x="947" y="675" on="1"/>
        <pt x="947" y="649" on="0"/>
        <pt x="913" y="617" on="0"/>
        <pt x="887" y="617" on="1"/>
        <pt x="862" y="617" on="0"/>
        <pt x="829" y="649" on="0"/>
        <pt x="829" y="675" on="1"/>
        <pt x="829" y="701" on="0"/>
        <pt x="862" y="734" on="0"/>
        <pt x="887" y="734" on="1"/>
        <pt x="913" y="734" on="0"/>
        <pt x="947" y="701" on="0"/>
      </contour>
      <contour>
        <pt x="938" y="674" on="1"/>
        <pt x="938" y="695" on="0"/>
        <pt x="908" y="724" on="0"/>
        <pt x="887" y="724" on="1"/>
        <pt x="867" y="724" on="0"/>
        <pt x="839" y="695" on="0"/>
        <pt x="839" y="674" on="1"/>
        <pt x="839" y="653" on="0"/>
        <pt x="867" y="625" on="0"/>
        <pt x="887" y="625" on="1"/>
        <pt x="908" y="625" on="0"/>
        <pt x="938" y="653" on="0"/>
      </contour>
      <contour>
        <pt x="557" y="30" on="1"/>
        <pt x="557" y="35" on="0"/>
        <pt x="550" y="35" on="1"/>
        <pt x="543" y="35" on="1"/>
        <pt x="543" y="26" on="1"/>
        <pt x="550" y="26" on="1"/>
        <pt x="557" y="26" on="0"/>
      </contour>
      <contour>
        <pt x="569" y="32" on="1"/>
        <pt x="569" y="24" on="0"/>
        <pt x="561" y="21" on="1"/>
        <pt x="567" y="19" on="0"/>
        <pt x="571" y="0" on="1"/>
        <pt x="559" y="0" on="1"/>
        <pt x="559" y="4" on="0"/>
        <pt x="558" y="8" on="1"/>
        <pt x="555" y="17" on="0"/>
        <pt x="550" y="17" on="1"/>
        <pt x="543" y="17" on="1"/>
        <pt x="543" y="0" on="1"/>
        <pt x="531" y="0" on="1"/>
        <pt x="531" y="43" on="1"/>
        <pt x="553" y="43" on="1"/>
        <pt x="569" y="43" on="0"/>
      </contour>
      <contour>
        <pt x="702" y="26" on="1"/>
        <pt x="709" y="26" on="1"/>
        <pt x="716" y="26" on="0"/>
        <pt x="716" y="30" on="1"/>
        <pt x="716" y="35" on="0"/>
        <pt x="709" y="35" on="1"/>
        <pt x="702" y="35" on="1"/>
      </contour>
      <contour>
        <pt x="730" y="0" on="1"/>
        <pt x="718" y="0" on="1"/>
        <pt x="718" y="4" on="0"/>
        <pt x="717" y="8" on="1"/>
        <pt x="714" y="17" on="0"/>
        <pt x="709" y="17" on="1"/>
        <pt x="702" y="17" on="1"/>
        <pt x="702" y="0" on="1"/>
        <pt x="692" y="0" on="1"/>
        <pt x="692" y="43" on="1"/>
        <pt x="713" y="43" on="1"/>
        <pt x="728" y="43" on="0"/>
        <pt x="728" y="32" on="1"/>
        <pt x="728" y="24" on="0"/>
        <pt x="720" y="21" on="1"/>
        <pt x="726" y="19" on="0"/>
      </contour>
      <contour>
        <pt x="284" y="0" on="1"/>
        <pt x="252" y="0" on="1"/>
        <pt x="252" y="43" on="1"/>
        <pt x="262" y="43" on="1"/>
        <pt x="262" y="9" on="1"/>
        <pt x="284" y="9" on="1"/>
      </contour>
    </TTGlyph>
    <TTGlyph name="Q" xMin="10" yMin="-71" xMax="520" yMax="485">
      <contour>
        <pt x="436" y="238" on="1"/>
        <pt x="454" y="320" on="0"/>
        <pt x="383" y="431" on="0"/>
        <pt x="306" y="431" on="1"/>
        <pt x="229" y="431" on="0"/>
        <pt x="112" y="320" on="0"/>
        <pt x="94" y="238" on="1"/>
        <pt x="77" y="156" on="0"/>
        <pt x="147" y="45" on="0"/>
        <pt x="224" y="45" on="1"/>
        <pt x="301" y="45" on="0"/>
        <pt x="419" y="156" on="0"/>
      </contour>
      <contour>
        <pt x="498" y="237" on="1"/>
        <pt x="481" y="157" on="0"/>
        <pt x="381" y="40" on="0"/>
        <pt x="310" y="17" on="1"/>
        <pt x="309" y="13" on="1"/>
        <pt x="385" y="-7" on="0"/>
        <pt x="448" y="-17" on="1"/>
        <pt x="416" y="-71" on="1"/>
        <pt x="345" y="-51" on="0"/>
        <pt x="238" y="-14" on="1"/>
        <pt x="233" y="-12" on="0"/>
        <pt x="212" y="-10" on="1"/>
        <pt x="109" y="-10" on="0"/>
        <pt x="10" y="132" on="0"/>
        <pt x="32" y="237" on="1"/>
        <pt x="54" y="342" on="0"/>
        <pt x="215" y="485" on="0"/>
        <pt x="318" y="485" on="1"/>
        <pt x="421" y="485" on="0"/>
        <pt x="520" y="342" on="0"/>
      </contour>
    </TTGlyph>
    <TTGlyph name="R" xMin="6" yMin="0" xMax="406" yMax="481">
      <contour>
        <pt x="336" y="0" on="1"/>
        <pt x="273" y="0" on="1"/>
        <pt x="289" y="207" on="0"/>
        <pt x="192" y="207" on="1"/>
        <pt x="112" y="207" on="1"/>
        <pt x="69" y="0" on="1"/>
        <pt x="6" y="0" on="1"/>
        <pt x="105" y="468" on="1"/>
        <pt x="180" y="481" on="0"/>
        <pt x="237" y="481" on="1"/>
        <pt x="322" y="481" on="0"/>
        <pt x="406" y="409" on="0"/>
        <pt x="393" y="347" on="1"/>
        <pt x="376" y="265" on="0"/>
        <pt x="290" y="229" on="1"/>
        <pt x="322" y="204" on="0"/>
        <pt x="342" y="108" on="0"/>
      </contour>
      <contour>
        <pt x="331" y="343" on="1"/>
        <pt x="349" y="426" on="0"/>
        <pt x="225" y="426" on="1"/>
        <pt x="185" y="426" on="0"/>
        <pt x="158" y="423" on="1"/>
        <pt x="124" y="259" on="1"/>
        <pt x="201" y="259" on="1"/>
        <pt x="314" y="259" on="0"/>
      </contour>
    </TTGlyph>
    <TTGlyph name="S" xMin="-17" yMin="-9" xMax="373" yMax="485">
      <contour>
        <pt x="322" y="130" on="1"/>
        <pt x="309" y="68" on="0"/>
        <pt x="194" y="-9" on="0"/>
        <pt x="120" y="-9" on="1"/>
        <pt x="41" y="-9" on="0"/>
        <pt x="-17" y="34" on="1"/>
        <pt x="21" y="91" on="1"/>
        <pt x="69" y="48" on="0"/>
        <pt x="136" y="48" on="1"/>
        <pt x="185" y="48" on="0"/>
        <pt x="250" y="91" on="0"/>
        <pt x="257" y="127" on="1"/>
        <pt x="270" y="187" on="0"/>
        <pt x="181" y="218" on="1"/>
        <pt x="49" y="263" on="0"/>
        <pt x="69" y="356" on="1"/>
        <pt x="81" y="412" on="0"/>
        <pt x="186" y="485" on="0"/>
        <pt x="257" y="485" on="1"/>
        <pt x="328" y="485" on="0"/>
        <pt x="373" y="453" on="1"/>
        <pt x="335" y="403" on="1"/>
        <pt x="290" y="428" on="0"/>
        <pt x="243" y="428" on="1"/>
        <pt x="200" y="428" on="0"/>
        <pt x="139" y="389" on="0"/>
        <pt x="133" y="361" on="1"/>
        <pt x="122" y="306" on="0"/>
        <pt x="211" y="275" on="1"/>
        <pt x="284" y="250" on="0"/>
        <pt x="334" y="184" on="0"/>
      </contour>
    </TTGlyph>
    <TTGlyph name="Scaron" xMin="-17" yMin="-9" xMax="373" yMax="636">
      <component glyphName="S" x="0" y="0" flags="0x204"/>
      <component glyphName="caron" x="57" y="136" flags="0x4"/>
    </TTGlyph>
    <TTGlyph name="Scedilla" xMin="-17" yMin="-159" xMax="373" yMax="485">
      <component glyphName="S" x="0" y="0" flags="0x204"/>
      <component glyphName="cedilla" x="58" y="0" flags="0x4"/>
    </TTGlyph>
    <TTGlyph name="T" xMin="49" yMin="0" xMax="474" yMax="476">
      <contour>
        <pt x="199" y="0" on="1"/>
        <pt x="136" y="0" on="1"/>
        <pt x="225" y="422" on="1"/>
        <pt x="49" y="422" on="1"/>
        <pt x="61" y="476" on="1"/>
        <pt x="474" y="476" on="1"/>
        <pt x="462" y="422" on="1"/>
        <pt x="288" y="422" on="1"/>
      </contour>
    </TTGlyph>
    <TTGlyph name="Thorn" xMin="9" yMin="0" xMax="382" yMax="476">
      <contour>
        <pt x="365" y="249" on="1"/>
        <pt x="349" y="172" on="0"/>
        <pt x="230" y="91" on="0"/>
        <pt x="139" y="91" on="1"/>
        <pt x="107" y="91" on="0"/>
        <pt x="88" y="95" on="1"/>
        <pt x="68" y="0" on="1"/>
        <pt x="9" y="0" on="1"/>
        <pt x="110" y="476" on="1"/>
        <pt x="169" y="476" on="1"/>
        <pt x="153" y="403" on="1"/>
        <pt x="174" y="407" on="0"/>
        <pt x="206" y="407" on="1"/>
        <pt x="297" y="407" on="0"/>
        <pt x="382" y="326" on="0"/>
      </contour>
      <contour>
        <pt x="307" y="249" on="1"/>
        <pt x="330" y="355" on="0"/>
        <pt x="197" y="355" on="1"/>
        <pt x="166" y="355" on="0"/>
        <pt x="141" y="347" on="1"/>
        <pt x="100" y="151" on="1"/>
        <pt x="121" y="143" on="0"/>
        <pt x="152" y="143" on="1"/>
        <pt x="285" y="143" on="0"/>
      </contour>
    </TTGlyph>
    <TTGlyph name="U" xMin="4" yMin="-9" xMax="489" yMax="476">
      <contour>
        <pt x="431" y="203" on="1"/>
        <pt x="386" y="-9" on="0"/>
        <pt x="195" y="-9" on="1"/>
        <pt x="4" y="-9" on="0"/>
        <pt x="49" y="203" on="1"/>
        <pt x="107" y="476" on="1"/>
        <pt x="171" y="476" on="1"/>
        <pt x="113" y="203" on="1"/>
        <pt x="79" y="45" on="0"/>
        <pt x="206" y="45" on="1"/>
        <pt x="333" y="45" on="0"/>
        <pt x="367" y="203" on="1"/>
        <pt x="425" y="476" on="1"/>
        <pt x="489" y="476" on="1"/>
      </contour>
    </TTGlyph>
    <TTGlyph name="Uacute" xMin="4" yMin="-9" xMax="1813" yMax="1180">
      <component glyphName="U" x="0" y="0" flags="0x204"/>
      <component glyphName="acutecomb" x="409" y="136" flags="0x4"/>
    </TTGlyph>
    <TTGlyph name="Ucircumflex" xMin="4" yMin="-9" xMax="827" yMax="1180">
      <component glyphName="U" x="0" y="0" flags="0x204"/>
      <component glyphName="circumflex" x="161" y="136" flags="0x4"/>
    </TTGlyph>
    <TTGlyph name="Udieresis" xMin="4" yMin="-9" xMax="620" yMax="1149">
      <component glyphName="U" x="0" y="0" flags="0x204"/>
      <component glyphName="dieresis" x="99" y="136" flags="0x4"/>
    </TTGlyph>
    <TTGlyph name="Ugrave" xMin="4" yMin="-9" xMax="1704" yMax="1180">
      <component glyphName="U" x="0" y="0" flags="0x204"/>
      <component glyphName="gravecomb" x="387" y="136" flags="0x4"/>
    </TTGlyph>
    <TTGlyph name="Uhorn" xMin="4" yMin="-9" xMax="603" yMax="527">
      <contour>
        <pt x="431" y="203" on="1"/>
        <pt x="386" y="-9" on="0"/>
        <pt x="195" y="-9" on="1"/>
        <pt x="4" y="-9" on="0"/>
        <pt x="49" y="203" on="1"/>
        <pt x="107" y="476" on="1"/>
        <pt x="171" y="476" on="1"/>
        <pt x="113" y="203" on="1"/>
        <pt x="79" y="45" on="0"/>
        <pt x="206" y="45" on="1"/>
        <pt x="333" y="45" on="0"/>
        <pt x="367" y="203" on="1"/>
        <pt x="425" y="476" on="1"/>
        <pt x="489" y="476" on="1"/>
        <pt x="480" y="436" on="1"/>
        <pt x="505" y="448" on="0"/>
        <pt x="543" y="501" on="0"/>
        <pt x="549" y="527" on="1"/>
        <pt x="603" y="527" on="1"/>
        <pt x="590" y="480" on="0"/>
        <pt x="512" y="393" on="0"/>
        <pt x="468" y="378" on="1"/>
      </contour>
    </TTGlyph>
    <TTGlyph name="Utilde" xMin="4" yMin="-9" xMax="9070" yMax="3412">
      <component glyphName="U" x="0" y="0" flags="0x204"/>
      <component glyphName="tildecomb" x="399" y="136" flags="0x4"/>
    </TTGlyph>
    <TTGlyph name="V" xMin="56" yMin="0" xMax="480" yMax="476">
      <contour>
        <pt x="196" y="0" on="1"/>
        <pt x="138" y="0" on="1"/>
        <pt x="56" y="476" on="1"/>
        <pt x="124" y="476" on="1"/>
        <pt x="185" y="86" on="1"/>
        <pt x="412" y="476" on="1"/>
        <pt x="480" y="476" on="1"/>
      </contour>
    </TTGlyph>
    <TTGlyph name="W" xMin="53" yMin="0" xMax="673" yMax="476">
      <contour>
        <pt x="440" y="0" on="1"/>
        <pt x="382" y="0" on="1"/>
        <pt x="344" y="389" on="1"/>
        <pt x="142" y="0" on="1"/>
        <pt x="84" y="0" on="1"/>
        <pt x="53" y="476" on="1"/>
        <pt x="122" y="476" on="1"/>
        <pt x="134" y="96" on="1"/>
        <pt x="333" y="476" on="1"/>
        <pt x="393" y="476" on="1"/>
        <pt x="430" y="96" on="1"/>
        <pt x="604" y="476" on="1"/>
        <pt x="673" y="476" on="1"/>
      </contour>
    </TTGlyph>
    <TTGlyph name="X" xMin="-45" yMin="0" xMax="479" yMax="476">
      <contour>
        <pt x="384" y="0" on="1"/>
        <pt x="309" y="0" on="1"/>
        <pt x="212" y="193" on="1"/>
        <pt x="31" y="0" on="1"/>
        <pt x="-45" y="0" on="1"/>
        <pt x="183" y="244" on="1"/>
        <pt x="63" y="476" on="1"/>
        <pt x="140" y="476" on="1"/>
        <pt x="232" y="290" on="1"/>
        <pt x="401" y="476" on="1"/>
        <pt x="479" y="476" on="1"/>
        <pt x="259" y="244" on="1"/>
      </contour>
    </TTGlyph>
    <TTGlyph name="Y" xMin="51" yMin="0" xMax="459" yMax="476">
      <contour>
        <pt x="186" y="0" on="1"/>
        <pt x="124" y="0" on="1"/>
        <pt x="168" y="208" on="1"/>
        <pt x="51" y="476" on="1"/>
        <pt x="124" y="476" on="1"/>
        <pt x="210" y="262" on="1"/>
        <pt x="387" y="476" on="1"/>
        <pt x="459" y="476" on="1"/>
        <pt x="230" y="209" on="1"/>
      </contour>
    </TTGlyph>
    <TTGlyph name="Yacute" xMin="51" yMin="0" xMax="2180" yMax="1316">
      <component glyphName="Y" x="0" y="0" flags="0x204"/>
      <component glyphName="acutecomb" x="367" y="136" flags="0x4"/>
    </TTGlyph>
    <TTGlyph name="Ydieresis" xMin="51" yMin="0" xMax="757" yMax="1285">
      <component glyphName="Y" x="0" y="0" flags="0x204"/>
      <component glyphName="dieresis" x="56" y="136" flags="0x4"/>
    </TTGlyph>
    <TTGlyph name="Ygrave" xMin="51" yMin="0" xMax="8540" yMax="2902">
      <component glyphName="Y" x="0" y="0" flags="0x204"/>
      <component glyphName="gravecomb" x="345" y="136" flags="0x4"/>
    </TTGlyph>
    <TTGlyph name="Z" xMin="-17" yMin="0" xMax="480" yMax="476">
      <contour>
        <pt x="382" y="0" on="1"/>
        <pt x="-17" y="0" on="1"/>
        <pt x="-8" y="40" on="1"/>
        <pt x="381" y="422" on="1"/>
        <pt x="88" y="422" on="1"/>
        <pt x="111" y="476" on="1"/>
        <pt x="480" y="476" on="1"/>
        <pt x="471" y="435" on="1"/>
        <pt x="81" y="54" on="1"/>
        <pt x="405" y="54" on="1"/>
      </contour>
    </TTGlyph>
    <TTGlyph name="Zcaron" xMin="-17" yMin="0" xMax="480" yMax="772">
      <component glyphName="Z" x="0" y="0" flags="0x204"/>
      <component glyphName="caron" x="100" y="136" flags="0x4"/>
    </TTGlyph>
    <TTGlyph name="a" xMin="14" yMin="-9" xMax="397" yMax="353">
      <contour>
        <pt x="366" y="4" on="1"/>
        <pt x="303" y="-8" on="1"/>
        <pt x="291" y="8" on="0"/>
        <pt x="288" y="50" on="1"/>
        <pt x="239" y="-9" on="0"/>
        <pt x="158" y="-9" on="1"/>
        <pt x="95" y="-9" on="0"/>
        <pt x="14" y="67" on="0"/>
        <pt x="14" y="130" on="1"/>
        <pt x="14" y="220" on="0"/>
        <pt x="137" y="353" on="0"/>
        <pt x="227" y="353" on="1"/>
        <pt x="338" y="353" on="0"/>
        <pt x="397" y="290" on="1"/>
        <pt x="355" y="91" on="1"/>
        <pt x="347" y="43" on="0"/>
      </contour>
      <contour>
        <pt x="304" y="142" on="1"/>
        <pt x="329" y="262" on="1"/>
        <pt x="290" y="301" on="0"/>
        <pt x="221" y="301" on="1"/>
        <pt x="162" y="301" on="0"/>
        <pt x="75" y="204" on="0"/>
        <pt x="75" y="139" on="1"/>
        <pt x="75" y="46" on="0"/>
        <pt x="171" y="46" on="1"/>
        <pt x="218" y="46" on="0"/>
        <pt x="296" y="103" on="0"/>
      </contour>
    </TTGlyph>
    <TTGlyph name="aacute" xMin="14" yMin="-9" xMax="2555" yMax="1316">
      <component glyphName="a" x="0" y="0" flags="0x204"/>
      <component glyphName="acutecomb" x="375" y="0" flags="0x4"/>
    </TTGlyph>
    <TTGlyph name="abreve" xMin="14" yMin="-9" xMax="1224" yMax="1307">
      <component glyphName="a" x="0" y="0" flags="0x204"/>
      <component glyphName="breve" x="64" y="0" flags="0x4"/>
    </TTGlyph>
    <TTGlyph name="acircumflex" xMin="14" yMin="-9" xMax="941" yMax="1180">
      <component glyphName="a" x="0" y="0" flags="0x204"/>
      <component glyphName="circumflex" x="114" y="0" flags="0x4"/>
    </TTGlyph>
    <TTGlyph name="acute" xMin="86" yMin="366" xMax="264" yMax="481">
      <contour>
        <pt x="133" y="366" on="1"/>
        <pt x="86" y="366" on="1"/>
        <pt x="186" y="481" on="1"/>
        <pt x="264" y="481" on="1"/>
      </contour>
    </TTGlyph>
    <TTGlyph name="acutecomb" xMin="10313" yMin="2938" xMax="10466" yMax="3053">
      <contour>
        <pt x="10413" y="3053" on="1"/>
        <pt x="10466" y="3035" on="1"/>
        <pt x="10361" y="2938" on="1"/>
        <pt x="10313" y="2938" on="1"/>
      </contour>
    </TTGlyph>
    <TTGlyph name="adieresis" xMin="14" yMin="-9" xMax="677" yMax="1149">
      <component glyphName="a" x="0" y="0" flags="0x204"/>
      <component glyphName="dieresis" x="57" y="0" flags="0x4"/>
    </TTGlyph>
    <TTGlyph name="ae" xMin="-3" yMin="-9" xMax="621" yMax="354">
      <contour>
        <pt x="539" y="18" on="1"/>
        <pt x="466" y="-9" on="0"/>
        <pt x="394" y="-9" on="1"/>
        <pt x="296" y="-9" on="0"/>
        <pt x="258" y="61" on="1"/>
        <pt x="207" y="-9" on="0"/>
        <pt x="101" y="-9" on="1"/>
        <pt x="76" y="-9" on="0"/>
        <pt x="35" y="5" on="0"/>
        <pt x="7" y="31" on="0"/>
        <pt x="-3" y="69" on="0"/>
        <pt x="1" y="93" on="1"/>
        <pt x="29" y="223" on="0"/>
        <pt x="257" y="225" on="1"/>
        <pt x="263" y="259" on="0"/>
        <pt x="230" y="302" on="0"/>
        <pt x="192" y="302" on="1"/>
        <pt x="160" y="302" on="0"/>
        <pt x="68" y="276" on="1"/>
        <pt x="72" y="333" on="1"/>
        <pt x="147" y="354" on="0"/>
        <pt x="207" y="354" on="1"/>
        <pt x="252" y="354" on="0"/>
        <pt x="305" y="327" on="0"/>
        <pt x="315" y="293" on="1"/>
        <pt x="376" y="354" on="0"/>
        <pt x="467" y="354" on="1"/>
        <pt x="621" y="354" on="0"/>
        <pt x="585" y="160" on="1"/>
        <pt x="306" y="160" on="1"/>
        <pt x="299" y="105" on="0"/>
        <pt x="355" y="47" on="0"/>
        <pt x="409" y="47" on="1"/>
        <pt x="467" y="47" on="0"/>
        <pt x="546" y="73" on="1"/>
      </contour>
      <contour>
        <pt x="246" y="170" on="1"/>
        <pt x="160" y="169" on="0"/>
        <pt x="76" y="134" on="0"/>
        <pt x="69" y="99" on="1"/>
        <pt x="63" y="73" on="0"/>
        <pt x="90" y="46" on="0"/>
        <pt x="114" y="46" on="1"/>
        <pt x="162" y="46" on="0"/>
        <pt x="231" y="100" on="0"/>
        <pt x="241" y="148" on="1"/>
      </contour>
      <contour>
        <pt x="534" y="213" on="1"/>
        <pt x="535" y="250" on="0"/>
        <pt x="494" y="302" on="0"/>
        <pt x="452" y="302" on="1"/>
        <pt x="408" y="302" on="0"/>
        <pt x="341" y="255" on="0"/>
        <pt x="323" y="213" on="1"/>
      </contour>
    </TTGlyph>
    <TTGlyph name="agrave" xMin="14" yMin="-9" xMax="2035" yMax="1180">
      <component glyphName="a" x="0" y="0" flags="0x204"/>
      <component glyphName="gravecomb" x="331" y="0" flags="0x4"/>
    </TTGlyph>
    <TTGlyph name="ampersand" xMin="6" yMin="-14" xMax="469" yMax="492">
      <contour>
        <pt x="373" y="-14" on="1"/>
        <pt x="318" y="48" on="1"/>
        <pt x="227" y="-9" on="0"/>
        <pt x="146" y="-9" on="1"/>
        <pt x="78" y="-9" on="0"/>
        <pt x="6" y="75" on="0"/>
        <pt x="19" y="134" on="1"/>
        <pt x="38" y="223" on="0"/>
        <pt x="144" y="275" on="1"/>
        <pt x="117" y="323" on="0"/>
        <pt x="127" y="368" on="1"/>
        <pt x="138" y="420" on="0"/>
        <pt x="226" y="492" on="0"/>
        <pt x="283" y="492" on="1"/>
        <pt x="332" y="492" on="0"/>
        <pt x="383" y="433" on="0"/>
        <pt x="373" y="387" on="1"/>
        <pt x="356" y="308" on="0"/>
        <pt x="231" y="255" on="1"/>
        <pt x="265" y="205" on="0"/>
        <pt x="330" y="126" on="1"/>
        <pt x="393" y="190" on="0"/>
        <pt x="416" y="266" on="1"/>
        <pt x="469" y="266" on="1"/>
        <pt x="432" y="158" on="0"/>
        <pt x="364" y="89" on="1"/>
        <pt x="402" y="46" on="0"/>
        <pt x="432" y="14" on="1"/>
      </contour>
      <contour>
        <pt x="314" y="384" on="1"/>
        <pt x="326" y="441" on="0"/>
        <pt x="269" y="441" on="1"/>
        <pt x="239" y="441" on="0"/>
        <pt x="195" y="401" on="0"/>
        <pt x="189" y="372" on="1"/>
        <pt x="182" y="343" on="0"/>
        <pt x="210" y="298" on="1"/>
        <pt x="305" y="341" on="0"/>
      </contour>
      <contour>
        <pt x="286" y="85" on="1"/>
        <pt x="286" y="85" on="0"/>
        <pt x="172" y="233" on="1"/>
        <pt x="95" y="194" on="0"/>
        <pt x="83" y="138" on="1"/>
        <pt x="74" y="97" on="0"/>
        <pt x="121" y="45" on="0"/>
        <pt x="165" y="45" on="1"/>
        <pt x="231" y="45" on="0"/>
      </contour>
    </TTGlyph>
    <TTGlyph name="approxequal" xMin="-3" yMin="13" xMax="392" yMax="279">
      <contour>
        <pt x="388" y="263" on="1"/>
        <pt x="379" y="217" on="0"/>
        <pt x="317" y="164" on="0"/>
        <pt x="277" y="164" on="1"/>
        <pt x="253" y="164" on="0"/>
        <pt x="152" y="226" on="0"/>
        <pt x="135" y="226" on="1"/>
        <pt x="100" y="226" on="0"/>
        <pt x="84" y="164" on="1"/>
        <pt x="29" y="164" on="1"/>
        <pt x="33" y="183" on="1"/>
        <pt x="43" y="227" on="0"/>
        <pt x="107" y="279" on="0"/>
        <pt x="146" y="279" on="1"/>
        <pt x="173" y="279" on="0"/>
        <pt x="272" y="220" on="0"/>
        <pt x="291" y="220" on="1"/>
        <pt x="322" y="220" on="0"/>
        <pt x="338" y="279" on="1"/>
        <pt x="392" y="279" on="1"/>
      </contour>
      <contour>
        <pt x="355" y="112" on="1"/>
        <pt x="346" y="66" on="0"/>
        <pt x="284" y="13" on="0"/>
        <pt x="244" y="13" on="1"/>
        <pt x="220" y="13" on="0"/>
        <pt x="118" y="75" on="0"/>
        <pt x="101" y="75" on="1"/>
        <pt x="66" y="75" on="0"/>
        <pt x="51" y="13" on="1"/>
        <pt x="-3" y="13" on="1"/>
        <pt x="0" y="32" on="1"/>
        <pt x="10" y="76" on="0"/>
        <pt x="74" y="128" on="0"/>
        <pt x="113" y="128" on="1"/>
        <pt x="140" y="128" on="0"/>
        <pt x="239" y="69" on="0"/>
        <pt x="258" y="69" on="1"/>
        <pt x="289" y="69" on="0"/>
        <pt x="305" y="128" on="1"/>
        <pt x="359" y="128" on="1"/>
      </contour>
    </TTGlyph>
    <TTGlyph name="aring" xMin="14" yMin="-9" xMax="481" yMax="680">
      <component glyphName="a" x="0" y="0" flags="0x204"/>
      <component glyphName="ring" x="86" y="0" flags="0x4"/>
    </TTGlyph>
    <TTGlyph name="asciicircum" xMin="20" yMin="152" xMax="382" yMax="480">
      <contour>
        <pt x="382" y="152" on="1"/>
        <pt x="317" y="152" on="1"/>
        <pt x="255" y="405" on="1"/>
        <pt x="85" y="152" on="1"/>
        <pt x="20" y="152" on="1"/>
        <pt x="246" y="480" on="1"/>
        <pt x="297" y="480" on="1"/>
      </contour>
    </TTGlyph>
    <TTGlyph name="asciitilde" xMin="8" yMin="144" xMax="419" yMax="259">
      <contour>
        <pt x="415" y="243" on="1"/>
        <pt x="405" y="197" on="0"/>
        <pt x="344" y="144" on="0"/>
        <pt x="304" y="144" on="1"/>
        <pt x="280" y="144" on="0"/>
        <pt x="130" y="206" on="0"/>
        <pt x="113" y="206" on="1"/>
        <pt x="78" y="206" on="0"/>
        <pt x="63" y="144" on="1"/>
        <pt x="8" y="144" on="1"/>
        <pt x="12" y="163" on="1"/>
        <pt x="21" y="207" on="0"/>
        <pt x="86" y="259" on="0"/>
        <pt x="125" y="259" on="1"/>
        <pt x="152" y="259" on="0"/>
        <pt x="299" y="200" on="0"/>
        <pt x="318" y="200" on="1"/>
        <pt x="349" y="200" on="0"/>
        <pt x="365" y="259" on="1"/>
        <pt x="419" y="259" on="1"/>
      </contour>
    </TTGlyph>
    <TTGlyph name="asterisk" xMin="68" yMin="247" xMax="343" yMax="496">
      <contour>
        <pt x="280" y="277" on="1"/>
        <pt x="223" y="247" on="1"/>
        <pt x="197" y="333" on="1"/>
        <pt x="135" y="247" on="1"/>
        <pt x="90" y="277" on="1"/>
        <pt x="169" y="354" on="1"/>
        <pt x="68" y="345" on="1"/>
        <pt x="79" y="397" on="1"/>
        <pt x="176" y="389" on="1"/>
        <pt x="131" y="466" on="1"/>
        <pt x="188" y="496" on="1"/>
        <pt x="214" y="410" on="1"/>
        <pt x="276" y="496" on="1"/>
        <pt x="321" y="466" on="1"/>
        <pt x="242" y="389" on="1"/>
        <pt x="343" y="397" on="1"/>
        <pt x="332" y="346" on="1"/>
        <pt x="235" y="354" on="1"/>
      </contour>
    </TTGlyph>
    <TTGlyph name="at" xMin="-6" yMin="-95" xMax="554" yMax="396">
      <contour>
        <pt x="533" y="177" on="1"/>
        <pt x="516" y="97" on="0"/>
        <pt x="448" y="49" on="1"/>
        <pt x="388" y="7" on="0"/>
        <pt x="318" y="7" on="1"/>
        <pt x="320" y="43" on="1"/>
        <pt x="264" y="1" on="0"/>
        <pt x="204" y="1" on="1"/>
        <pt x="161" y="1" on="0"/>
        <pt x="110" y="50" on="0"/>
        <pt x="118" y="87" on="1"/>
        <pt x="141" y="196" on="0"/>
        <pt x="341" y="201" on="1"/>
        <pt x="357" y="277" on="0"/>
        <pt x="285" y="277" on="1"/>
        <pt x="246" y="277" on="0"/>
        <pt x="209" y="256" on="1"/>
        <pt x="199" y="291" on="1"/>
        <pt x="253" y="319" on="0"/>
        <pt x="310" y="319" on="1"/>
        <pt x="363" y="319" on="0"/>
        <pt x="405" y="249" on="0"/>
        <pt x="393" y="189" on="1"/>
        <pt x="371" y="85" on="1"/>
        <pt x="366" y="62" on="0"/>
        <pt x="365" y="53" on="1"/>
        <pt x="377" y="53" on="1"/>
        <pt x="414" y="63" on="0"/>
        <pt x="477" y="134" on="0"/>
        <pt x="486" y="175" on="1"/>
        <pt x="502" y="252" on="0"/>
        <pt x="420" y="355" on="0"/>
        <pt x="333" y="355" on="1"/>
        <pt x="235" y="355" on="0"/>
        <pt x="85" y="230" on="0"/>
        <pt x="65" y="136" on="1"/>
        <pt x="48" y="54" on="0"/>
        <pt x="134" y="-54" on="0"/>
        <pt x="214" y="-54" on="1"/>
        <pt x="275" y="-54" on="0"/>
        <pt x="343" y="-22" on="1"/>
        <pt x="353" y="-62" on="1"/>
        <pt x="276" y="-95" on="0"/>
        <pt x="202" y="-95" on="1"/>
        <pt x="104" y="-95" on="0"/>
        <pt x="50" y="-31" on="1"/>
        <pt x="-6" y="34" on="0"/>
        <pt x="14" y="133" on="1"/>
        <pt x="38" y="246" on="0"/>
        <pt x="228" y="396" on="0"/>
        <pt x="347" y="396" on="1"/>
        <pt x="449" y="396" on="0"/>
        <pt x="554" y="273" on="0"/>
      </contour>
      <contour>
        <pt x="324" y="107" on="1"/>
        <pt x="336" y="163" on="1"/>
        <pt x="183" y="157" on="0"/>
        <pt x="169" y="92" on="1"/>
        <pt x="159" y="45" on="0"/>
        <pt x="214" y="45" on="1"/>
        <pt x="251" y="45" on="0"/>
        <pt x="282" y="61" on="1"/>
        <pt x="318" y="79" on="0"/>
      </contour>
    </TTGlyph>
    <TTGlyph name="atilde" xMin="14" yMin="-9" xMax="1559" yMax="864">
      <component glyphName="a" x="0" y="0" flags="0x204"/>
      <component glyphName="tildecomb" x="343" y="0" flags="0x4"/>
    </TTGlyph>
    <TTGlyph name="b" xMin="36" yMin="-8" xMax="406" yMax="488">
      <contour>
        <pt x="406" y="215" on="1"/>
        <pt x="406" y="125" on="0"/>
        <pt x="280" y="-8" on="0"/>
        <pt x="193" y="-8" on="1"/>
        <pt x="36" y="-8" on="0"/>
        <pt x="36" y="104" on="1"/>
        <pt x="36" y="120" on="0"/>
        <pt x="40" y="139" on="1"/>
        <pt x="114" y="488" on="1"/>
        <pt x="177" y="488" on="1"/>
        <pt x="140" y="313" on="1"/>
        <pt x="193" y="354" on="0"/>
        <pt x="262" y="354" on="1"/>
        <pt x="326" y="354" on="0"/>
        <pt x="406" y="277" on="0"/>
      </contour>
      <contour>
        <pt x="345" y="206" on="1"/>
        <pt x="345" y="299" on="0"/>
        <pt x="249" y="299" on="1"/>
        <pt x="204" y="299" on="0"/>
        <pt x="122" y="246" on="0"/>
        <pt x="116" y="203" on="1"/>
        <pt x="99" y="130" on="1"/>
        <pt x="96" y="117" on="0"/>
        <pt x="96" y="105" on="1"/>
        <pt x="96" y="79" on="0"/>
        <pt x="150" y="44" on="0"/>
        <pt x="199" y="44" on="1"/>
        <pt x="258" y="44" on="0"/>
        <pt x="345" y="142" on="0"/>
      </contour>
    </TTGlyph>
    <TTGlyph name="backslash" xMin="36" yMin="-27" xMax="252" yMax="483">
      <contour>
        <pt x="252" y="-27" on="1"/>
        <pt x="188" y="-27" on="1"/>
        <pt x="36" y="483" on="1"/>
        <pt x="101" y="483" on="1"/>
      </contour>
    </TTGlyph>
    <TTGlyph name="bar" xMin="-19" yMin="-166" xMax="184" yMax="526">
      <contour>
        <pt x="37" y="-166" on="1"/>
        <pt x="-19" y="-166" on="1"/>
        <pt x="127" y="526" on="1"/>
        <pt x="184" y="526" on="1"/>
      </contour>
    </TTGlyph>
    <TTGlyph name="braceleft" xMin="15" yMin="-88" xMax="282" yMax="498">
      <contour>
        <pt x="158" y="-88" on="1"/>
        <pt x="135" y="-88" on="1"/>
        <pt x="15" y="-88" on="0"/>
        <pt x="36" y="14" on="1"/>
        <pt x="41" y="34" on="0"/>
        <pt x="74" y="123" on="0"/>
        <pt x="77" y="141" on="1"/>
        <pt x="85" y="177" on="0"/>
        <pt x="24" y="179" on="1"/>
        <pt x="35" y="231" on="1"/>
        <pt x="97" y="233" on="0"/>
        <pt x="104" y="268" on="1"/>
        <pt x="109" y="289" on="0"/>
        <pt x="114" y="378" on="0"/>
        <pt x="118" y="396" on="1"/>
        <pt x="139" y="498" on="0"/>
        <pt x="259" y="498" on="1"/>
        <pt x="282" y="498" on="1"/>
        <pt x="271" y="446" on="1"/>
        <pt x="245" y="446" on="1"/>
        <pt x="190" y="446" on="0"/>
        <pt x="176" y="394" on="1"/>
        <pt x="172" y="309" on="0"/>
        <pt x="164" y="271" on="1"/>
        <pt x="159" y="249" on="0"/>
        <pt x="126" y="210" on="0"/>
        <pt x="108" y="205" on="1"/>
        <pt x="146" y="188" on="0"/>
        <pt x="136" y="138" on="1"/>
        <pt x="128" y="101" on="0"/>
        <pt x="96" y="16" on="1"/>
        <pt x="87" y="-37" on="0"/>
        <pt x="143" y="-37" on="1"/>
        <pt x="169" y="-37" on="1"/>
      </contour>
    </TTGlyph>
    <TTGlyph name="braceright" xMin="-25" yMin="-88" xMax="241" yMax="498">
      <contour>
        <pt x="222" y="179" on="1"/>
        <pt x="159" y="177" on="0"/>
        <pt x="151" y="141" on="1"/>
        <pt x="148" y="123" on="0"/>
        <pt x="143" y="34" on="0"/>
        <pt x="138" y="14" on="1"/>
        <pt x="117" y="-88" on="0"/>
        <pt x="-2" y="-88" on="1"/>
        <pt x="-25" y="-88" on="1"/>
        <pt x="-14" y="-37" on="1"/>
        <pt x="11" y="-37" on="1"/>
        <pt x="69" y="-37" on="0"/>
        <pt x="79" y="12" on="1"/>
        <pt x="84" y="35" on="0"/>
        <pt x="88" y="118" on="0"/>
        <pt x="92" y="138" on="1"/>
        <pt x="102" y="188" on="0"/>
        <pt x="148" y="205" on="1"/>
        <pt x="132" y="210" on="0"/>
        <pt x="115" y="249" on="0"/>
        <pt x="120" y="271" on="1"/>
        <pt x="125" y="293" on="0"/>
        <pt x="157" y="377" on="0"/>
        <pt x="161" y="398" on="1"/>
        <pt x="171" y="446" on="0"/>
        <pt x="113" y="446" on="1"/>
        <pt x="87" y="446" on="1"/>
        <pt x="98" y="498" on="1"/>
        <pt x="121" y="498" on="1"/>
        <pt x="241" y="498" on="0"/>
        <pt x="220" y="396" on="1"/>
        <pt x="216" y="378" on="0"/>
        <pt x="183" y="289" on="0"/>
        <pt x="178" y="268" on="1"/>
        <pt x="171" y="233" on="0"/>
        <pt x="233" y="231" on="1"/>
      </contour>
    </TTGlyph>
    <TTGlyph name="bracketleft" xMin="-14" yMin="-77" xMax="272" yMax="528">
      <contour>
        <pt x="143" y="-77" on="1"/>
        <pt x="-14" y="-77" on="1"/>
        <pt x="114" y="528" on="1"/>
        <pt x="272" y="528" on="1"/>
        <pt x="261" y="476" on="1"/>
        <pt x="162" y="476" on="1"/>
        <pt x="55" y="-26" on="1"/>
        <pt x="154" y="-26" on="1"/>
      </contour>
    </TTGlyph>
    <TTGlyph name="bracketright" xMin="-30" yMin="-77" xMax="256" yMax="528">
      <contour>
        <pt x="127" y="-77" on="1"/>
        <pt x="-30" y="-77" on="1"/>
        <pt x="-19" y="-26" on="1"/>
        <pt x="79" y="-26" on="1"/>
        <pt x="186" y="476" on="1"/>
        <pt x="87" y="476" on="1"/>
        <pt x="98" y="528" on="1"/>
        <pt x="256" y="528" on="1"/>
      </contour>
    </TTGlyph>
    <TTGlyph name="breve" xMin="111" yMin="379" xMax="349" yMax="491">
      <contour>
        <pt x="349" y="491" on="1"/>
        <pt x="327" y="434" on="0"/>
        <pt x="255" y="379" on="0"/>
        <pt x="207" y="379" on="1"/>
        <pt x="159" y="379" on="0"/>
        <pt x="111" y="434" on="0"/>
        <pt x="113" y="491" on="1"/>
        <pt x="167" y="491" on="1"/>
        <pt x="167" y="466" on="0"/>
        <pt x="189" y="427" on="0"/>
        <pt x="217" y="427" on="1"/>
        <pt x="245" y="427" on="0"/>
        <pt x="286" y="466" on="0"/>
        <pt x="296" y="491" on="1"/>
      </contour>
    </TTGlyph>
    <TTGlyph name="brokenbar" xMin="-13" yMin="-119" xMax="161" yMax="476">
      <contour>
        <pt x="106" y="220" on="1"/>
        <pt x="58" y="220" on="1"/>
        <pt x="113" y="476" on="1"/>
        <pt x="161" y="476" on="1"/>
      </contour>
      <contour>
        <pt x="34" y="-119" on="1"/>
        <pt x="-13" y="-119" on="1"/>
        <pt x="41" y="138" on="1"/>
        <pt x="89" y="138" on="1"/>
      </contour>
    </TTGlyph>
    <TTGlyph name="bullet" xMin="29" yMin="116" xMax="197" yMax="284">
      <contour>
        <pt x="197" y="200" on="1"/>
        <pt x="197" y="165" on="0"/>
        <pt x="148" y="116" on="0"/>
        <pt x="113" y="116" on="1"/>
        <pt x="78" y="116" on="0"/>
        <pt x="29" y="165" on="0"/>
        <pt x="29" y="200" on="1"/>
        <pt x="29" y="235" on="0"/>
        <pt x="77" y="284" on="0"/>
        <pt x="113" y="284" on="1"/>
        <pt x="148" y="284" on="0"/>
        <pt x="197" y="234" on="0"/>
      </contour>
    </TTGlyph>
    <TTGlyph name="c" xMin="1" yMin="-9" xMax="346" yMax="353">
      <contour>
        <pt x="282" y="21" on="1"/>
        <pt x="228" y="-9" on="0"/>
        <pt x="159" y="-9" on="1"/>
        <pt x="78" y="-9" on="0"/>
        <pt x="1" y="92" on="0"/>
        <pt x="18" y="172" on="1"/>
        <pt x="35" y="253" on="0"/>
        <pt x="155" y="353" on="0"/>
        <pt x="236" y="353" on="1"/>
        <pt x="304" y="353" on="0"/>
        <pt x="346" y="323" on="1"/>
        <pt x="313" y="271" on="1"/>
        <pt x="272" y="300" on="0"/>
        <pt x="222" y="300" on="1"/>
        <pt x="171" y="300" on="0"/>
        <pt x="94" y="229" on="0"/>
        <pt x="82" y="172" on="1"/>
        <pt x="70" y="114" on="0"/>
        <pt x="117" y="44" on="0"/>
        <pt x="168" y="44" on="1"/>
        <pt x="218" y="44" on="0"/>
        <pt x="271" y="73" on="1"/>
      </contour>
    </TTGlyph>
    <TTGlyph name="cacute" xMin="1" yMin="-9" xMax="10466" yMax="3053">
      <component glyphName="c" x="0" y="0" flags="0x204"/>
      <component glyphName="acutecomb" x="314" y="0" flags="0x4"/>
    </TTGlyph>
    <TTGlyph name="caron" xMin="302" yMin="657" xMax="492" yMax="772">
      <contour>
        <pt x="389" y="657" on="1"/>
        <pt x="354" y="657" on="1"/>
        <pt x="302" y="772" on="1"/>
        <pt x="356" y="772" on="1"/>
        <pt x="382" y="701" on="1"/>
        <pt x="437" y="772" on="1"/>
        <pt x="492" y="772" on="1"/>
      </contour>
    </TTGlyph>
    <TTGlyph name="ccaron" xMin="1" yMin="-9" xMax="602" yMax="908">
      <component glyphName="c" x="0" y="0" flags="0x204"/>
      <component glyphName="caron" x="19" y="0" flags="0x4"/>
    </TTGlyph>
    <TTGlyph name="ccedilla" xMin="1" yMin="-159" xMax="346" yMax="353">
      <component glyphName="c" x="0" y="0" flags="0x204"/>
      <component glyphName="cedilla" x="49" y="0" flags="0x4"/>
    </TTGlyph>
    <TTGlyph name="cedilla" xMin="-20" yMin="-159" xMax="137" yMax="11">
      <contour>
        <pt x="132" y="-90" on="1"/>
        <pt x="126" y="-122" on="0"/>
        <pt x="76" y="-159" on="0"/>
        <pt x="38" y="-159" on="1"/>
        <pt x="24" y="-159" on="0"/>
        <pt x="-7" y="-150" on="0"/>
        <pt x="-20" y="-141" on="1"/>
        <pt x="0" y="-109" on="1"/>
        <pt x="12" y="-116" on="0"/>
        <pt x="39" y="-124" on="0"/>
        <pt x="47" y="-124" on="1"/>
        <pt x="79" y="-124" on="0"/>
        <pt x="86" y="-94" on="1"/>
        <pt x="91" y="-66" on="0"/>
        <pt x="30" y="-55" on="1"/>
        <pt x="87" y="11" on="1"/>
        <pt x="130" y="11" on="1"/>
        <pt x="94" y="-28" on="1"/>
        <pt x="119" y="-36" on="0"/>
        <pt x="137" y="-67" on="0"/>
      </contour>
    </TTGlyph>
    <TTGlyph name="cent" xMin="48" yMin="-56" xMax="460" yMax="514">
      <contour>
        <pt x="385" y="52" on="1"/>
        <pt x="325" y="23" on="0"/>
        <pt x="245" y="21" on="1"/>
        <pt x="229" y="-56" on="1"/>
        <pt x="174" y="-56" on="1"/>
        <pt x="191" y="24" on="1"/>
        <pt x="116" y="38" on="0"/>
        <pt x="48" y="147" on="0"/>
        <pt x="65" y="229" on="1"/>
        <pt x="83" y="311" on="0"/>
        <pt x="197" y="420" on="0"/>
        <pt x="278" y="434" on="1"/>
        <pt x="295" y="514" on="1"/>
        <pt x="350" y="514" on="1"/>
        <pt x="333" y="437" on="1"/>
        <pt x="413" y="435" on="0"/>
        <pt x="460" y="406" on="1"/>
        <pt x="429" y="358" on="1"/>
        <pt x="406" y="369" on="0"/>
        <pt x="354" y="381" on="0"/>
        <pt x="325" y="381" on="1"/>
        <pt x="246" y="381" on="0"/>
        <pt x="140" y="301" on="0"/>
        <pt x="125" y="229" on="1"/>
        <pt x="110" y="157" on="0"/>
        <pt x="182" y="77" on="0"/>
        <pt x="261" y="77" on="1"/>
        <pt x="290" y="77" on="0"/>
        <pt x="346" y="89" on="0"/>
        <pt x="374" y="100" on="1"/>
      </contour>
    </TTGlyph>
    <TTGlyph name="circumflex" xMin="1012" yMin="1065" xMax="1202" yMax="1180">
      <contour>
        <pt x="1202" y="1065" on="1"/>
        <pt x="1148" y="1065" on="1"/>
        <pt x="1122" y="1136" on="1"/>
        <pt x="1067" y="1065" on="1"/>
        <pt x="1012" y="1065" on="1"/>
        <pt x="1115" y="1180" on="1"/>
        <pt x="1150" y="1180" on="1"/>
      </contour>
    </TTGlyph>
    <TTGlyph name="colon" xMin="-1" yMin="-9" xMax="154" yMax="333">
      <contour>
        <pt x="98" y="39" on="1"/>
        <pt x="94" y="19" on="0"/>
        <pt x="60" y="-9" on="0"/>
        <pt x="40" y="-9" on="1"/>
        <pt x="20" y="-9" on="0"/>
        <pt x="-1" y="19" on="0"/>
        <pt x="2" y="39" on="1"/>
        <pt x="6" y="59" on="0"/>
        <pt x="40" y="87" on="0"/>
        <pt x="60" y="87" on="1"/>
        <pt x="80" y="87" on="0"/>
        <pt x="102" y="59" on="0"/>
      </contour>
      <contour>
        <pt x="150" y="285" on="1"/>
        <pt x="146" y="265" on="0"/>
        <pt x="112" y="237" on="0"/>
        <pt x="92" y="237" on="1"/>
        <pt x="72" y="237" on="0"/>
        <pt x="50" y="265" on="0"/>
        <pt x="54" y="285" on="1"/>
        <pt x="58" y="305" on="0"/>
        <pt x="92" y="333" on="0"/>
        <pt x="112" y="333" on="1"/>
        <pt x="132" y="333" on="0"/>
        <pt x="154" y="305" on="0"/>
      </contour>
    </TTGlyph>
    <TTGlyph name="comma" xMin="-35" yMin="-107" xMax="105" yMax="92">
      <contour>
        <pt x="100" y="37" on="1"/>
        <pt x="79" y="-62" on="0"/>
        <pt x="-20" y="-107" on="1"/>
        <pt x="-35" y="-78" on="1"/>
        <pt x="24" y="-46" on="0"/>
        <pt x="40" y="-8" on="1"/>
        <pt x="-7" y="-5" on="0"/>
        <pt x="2" y="42" on="1"/>
        <pt x="7" y="63" on="0"/>
        <pt x="42" y="92" on="0"/>
        <pt x="62" y="92" on="1"/>
        <pt x="83" y="92" on="0"/>
        <pt x="105" y="61" on="0"/>
      </contour>
    </TTGlyph>
    <TTGlyph name="copyright" xMin="41" yMin="-3" xMax="527" yMax="483">
      <contour>
        <pt x="385" y="117" on="1"/>
        <pt x="347" y="88" on="0"/>
        <pt x="282" y="88" on="1"/>
        <pt x="215" y="88" on="0"/>
        <pt x="137" y="172" on="0"/>
        <pt x="137" y="233" on="1"/>
        <pt x="137" y="303" on="0"/>
        <pt x="219" y="384" on="0"/>
        <pt x="287" y="384" on="1"/>
        <pt x="348" y="384" on="0"/>
        <pt x="380" y="360" on="1"/>
        <pt x="368" y="324" on="1"/>
        <pt x="330" y="346" on="0"/>
        <pt x="287" y="346" on="1"/>
        <pt x="183" y="346" on="0"/>
        <pt x="183" y="238" on="1"/>
        <pt x="183" y="129" on="0"/>
        <pt x="288" y="129" on="1"/>
        <pt x="337" y="129" on="0"/>
        <pt x="372" y="154" on="1"/>
      </contour>
      <contour>
        <pt x="527" y="240" on="1"/>
        <pt x="527" y="140" on="0"/>
        <pt x="384" y="-3" on="0"/>
        <pt x="284" y="-3" on="1"/>
        <pt x="184" y="-3" on="0"/>
        <pt x="41" y="140" on="0"/>
        <pt x="41" y="240" on="1"/>
        <pt x="41" y="340" on="0"/>
        <pt x="184" y="483" on="0"/>
        <pt x="284" y="483" on="1"/>
        <pt x="384" y="483" on="0"/>
        <pt x="527" y="340" on="0"/>
      </contour>
      <contour>
        <pt x="485" y="240" on="1"/>
        <pt x="485" y="323" on="0"/>
        <pt x="367" y="441" on="0"/>
        <pt x="284" y="441" on="1"/>
        <pt x="201" y="441" on="0"/>
        <pt x="83" y="323" on="0"/>
        <pt x="83" y="240" on="1"/>
        <pt x="83" y="157" on="0"/>
        <pt x="201" y="39" on="0"/>
        <pt x="284" y="39" on="1"/>
        <pt x="367" y="39" on="0"/>
        <pt x="485" y="157" on="0"/>
      </contour>
    </TTGlyph>
    <TTGlyph name="currency" xMin="23" yMin="35" xMax="464" yMax="417">
      <contour>
        <pt x="431" y="226" on="1"/>
        <pt x="418" y="167" on="0"/>
        <pt x="374" y="120" on="1"/>
        <pt x="403" y="81" on="1"/>
        <pt x="350" y="35" on="1"/>
        <pt x="320" y="76" on="1"/>
        <pt x="268" y="41" on="0"/>
        <pt x="203" y="41" on="1"/>
        <pt x="140" y="41" on="0"/>
        <pt x="104" y="76" on="1"/>
        <pt x="56" y="35" on="1"/>
        <pt x="23" y="81" on="1"/>
        <pt x="68" y="120" on="1"/>
        <pt x="44" y="167" on="0"/>
        <pt x="57" y="226" on="1"/>
        <pt x="69" y="285" on="0"/>
        <pt x="113" y="332" on="1"/>
        <pt x="84" y="371" on="1"/>
        <pt x="137" y="417" on="1"/>
        <pt x="167" y="376" on="1"/>
        <pt x="219" y="411" on="0"/>
        <pt x="282" y="411" on="1"/>
        <pt x="347" y="411" on="0"/>
        <pt x="383" y="376" on="1"/>
        <pt x="431" y="417" on="1"/>
        <pt x="464" y="371" on="1"/>
        <pt x="419" y="332" on="1"/>
        <pt x="443" y="285" on="0"/>
      </contour>
      <contour>
        <pt x="369" y="226" on="1"/>
        <pt x="379" y="277" on="0"/>
        <pt x="321" y="351" on="0"/>
        <pt x="270" y="351" on="1"/>
        <pt x="217" y="351" on="0"/>
        <pt x="129" y="277" on="0"/>
        <pt x="119" y="226" on="1"/>
        <pt x="107" y="173" on="0"/>
        <pt x="164" y="101" on="0"/>
        <pt x="217" y="101" on="1"/>
        <pt x="268" y="101" on="0"/>
        <pt x="357" y="173" on="0"/>
      </contour>
    </TTGlyph>
    <TTGlyph name="d" xMin="2" yMin="-9" xMax="444" yMax="504">
      <contour>
        <pt x="356" y="91" on="1"/>
        <pt x="351" y="45" on="0"/>
        <pt x="367" y="4" on="1"/>
        <pt x="304" y="-8" on="1"/>
        <pt x="292" y="8" on="0"/>
        <pt x="289" y="50" on="1"/>
        <pt x="229" y="-9" on="0"/>
        <pt x="155" y="-9" on="1"/>
        <pt x="81" y="-9" on="0"/>
        <pt x="2" y="96" on="0"/>
        <pt x="19" y="177" on="1"/>
        <pt x="35" y="252" on="0"/>
        <pt x="154" y="353" on="0"/>
        <pt x="227" y="353" on="1"/>
        <pt x="302" y="353" on="0"/>
        <pt x="339" y="306" on="1"/>
        <pt x="381" y="504" on="1"/>
        <pt x="444" y="504" on="1"/>
      </contour>
      <contour>
        <pt x="301" y="129" on="1"/>
        <pt x="317" y="207" on="1"/>
        <pt x="326" y="245" on="0"/>
        <pt x="263" y="301" on="0"/>
        <pt x="221" y="301" on="1"/>
        <pt x="169" y="301" on="0"/>
        <pt x="93" y="231" on="0"/>
        <pt x="81" y="177" on="1"/>
        <pt x="68" y="116" on="0"/>
        <pt x="115" y="46" on="0"/>
        <pt x="171" y="46" on="1"/>
        <pt x="221" y="46" on="0"/>
        <pt x="293" y="91" on="0"/>
      </contour>
    </TTGlyph>
    <TTGlyph name="dagger" xMin="54" yMin="-33" xMax="366" yMax="475">
      <contour>
        <pt x="163" y="-33" on="1"/>
        <pt x="113" y="-33" on="1"/>
        <pt x="181" y="284" on="1"/>
        <pt x="54" y="280" on="1"/>
        <pt x="64" y="328" on="1"/>
        <pt x="189" y="324" on="1"/>
        <pt x="221" y="475" on="1"/>
        <pt x="271" y="475" on="1"/>
        <pt x="239" y="324" on="1"/>
        <pt x="366" y="328" on="1"/>
        <pt x="356" y="280" on="1"/>
        <pt x="231" y="284" on="1"/>
      </contour>
    </TTGlyph>
    <TTGlyph name="daggerdbl" xMin="18" yMin="-33" xMax="366" yMax="475">
      <contour>
        <pt x="163" y="-33" on="1"/>
        <pt x="113" y="-33" on="1"/>
        <pt x="144" y="112" on="1"/>
        <pt x="18" y="109" on="1"/>
        <pt x="28" y="156" on="1"/>
        <pt x="153" y="152" on="1"/>
        <pt x="181" y="284" on="1"/>
        <pt x="54" y="280" on="1"/>
        <pt x="64" y="328" on="1"/>
        <pt x="189" y="324" on="1"/>
        <pt x="221" y="475" on="1"/>
        <pt x="271" y="475" on="1"/>
        <pt x="239" y="324" on="1"/>
        <pt x="366" y="328" on="1"/>
        <pt x="356" y="280" on="1"/>
        <pt x="231" y="284" on="1"/>
        <pt x="203" y="152" on="1"/>
        <pt x="330" y="156" on="1"/>
        <pt x="320" y="109" on="1"/>
        <pt x="194" y="112" on="1"/>
      </contour>
    </TTGlyph>
    <TTGlyph name="dcroat" xMin="2" yMin="-9" xMax="491" yMax="504">
      <contour>
        <pt x="341" y="0" on="1"/>
        <pt x="281" y="0" on="1"/>
        <pt x="280" y="11" on="0"/>
        <pt x="285" y="37" on="1"/>
        <pt x="229" y="-9" on="0"/>
        <pt x="155" y="-9" on="1"/>
        <pt x="81" y="-9" on="0"/>
        <pt x="2" y="96" on="0"/>
        <pt x="19" y="177" on="1"/>
        <pt x="35" y="252" on="0"/>
        <pt x="154" y="353" on="0"/>
        <pt x="227" y="353" on="1"/>
        <pt x="302" y="353" on="0"/>
        <pt x="339" y="306" on="1"/>
        <pt x="361" y="410" on="1"/>
        <pt x="263" y="410" on="1"/>
        <pt x="272" y="454" on="1"/>
        <pt x="370" y="454" on="1"/>
        <pt x="381" y="504" on="1"/>
        <pt x="444" y="504" on="1"/>
        <pt x="433" y="454" on="1"/>
        <pt x="491" y="454" on="1"/>
        <pt x="482" y="410" on="1"/>
        <pt x="424" y="410" on="1"/>
        <pt x="356" y="91" on="1"/>
        <pt x="347" y="49" on="0"/>
      </contour>
      <contour>
        <pt x="301" y="129" on="1"/>
        <pt x="317" y="207" on="1"/>
        <pt x="326" y="245" on="0"/>
        <pt x="263" y="301" on="0"/>
        <pt x="221" y="301" on="1"/>
        <pt x="169" y="301" on="0"/>
        <pt x="93" y="231" on="0"/>
        <pt x="81" y="177" on="1"/>
        <pt x="68" y="116" on="0"/>
        <pt x="115" y="46" on="0"/>
        <pt x="171" y="46" on="1"/>
        <pt x="221" y="46" on="0"/>
        <pt x="293" y="91" on="0"/>
      </contour>
    </TTGlyph>
    <TTGlyph name="degree" xMin="81" yMin="308" xMax="275" yMax="486">
      <contour>
        <pt x="267" y="397" on="1"/>
        <pt x="259" y="360" on="0"/>
        <pt x="196" y="308" on="0"/>
        <pt x="159" y="308" on="1"/>
        <pt x="122" y="308" on="0"/>
        <pt x="81" y="360" on="0"/>
        <pt x="89" y="397" on="1"/>
        <pt x="97" y="434" on="0"/>
        <pt x="160" y="486" on="0"/>
        <pt x="197" y="486" on="1"/>
        <pt x="234" y="486" on="0"/>
        <pt x="275" y="434" on="0"/>
      </contour>
      <contour>
        <pt x="235" y="397" on="1"/>
        <pt x="240" y="420" on="0"/>
        <pt x="213" y="454" on="0"/>
        <pt x="190" y="454" on="1"/>
        <pt x="167" y="454" on="0"/>
        <pt x="126" y="420" on="0"/>
        <pt x="121" y="397" on="1"/>
        <pt x="116" y="374" on="0"/>
        <pt x="143" y="340" on="0"/>
        <pt x="166" y="340" on="1"/>
        <pt x="189" y="340" on="0"/>
        <pt x="230" y="374" on="0"/>
      </contour>
    </TTGlyph>
    <TTGlyph name="dieresis" xMin="95" yMin="381" xMax="338" yMax="469">
      <contour>
        <pt x="186" y="425" on="1"/>
        <pt x="182" y="406" on="0"/>
        <pt x="150" y="381" on="0"/>
        <pt x="133" y="381" on="1"/>
        <pt x="115" y="381" on="0"/>
        <pt x="95" y="406" on="0"/>
        <pt x="99" y="425" on="1"/>
        <pt x="103" y="443" on="0"/>
        <pt x="134" y="469" on="0"/>
        <pt x="152" y="469" on="1"/>
        <pt x="169" y="469" on="0"/>
        <pt x="190" y="443" on="0"/>
      </contour>
      <contour>
        <pt x="334" y="425" on="1"/>
        <pt x="330" y="406" on="0"/>
        <pt x="298" y="381" on="0"/>
        <pt x="281" y="381" on="1"/>
        <pt x="264" y="381" on="0"/>
        <pt x="243" y="406" on="0"/>
        <pt x="247" y="425" on="1"/>
        <pt x="251" y="443" on="0"/>
        <pt x="283" y="469" on="0"/>
        <pt x="300" y="469" on="1"/>
        <pt x="317" y="469" on="0"/>
        <pt x="338" y="443" on="0"/>
      </contour>
    </TTGlyph>
    <TTGlyph name="divide" xMin="15" yMin="8" xMax="391" yMax="361">
      <contour>
        <pt x="380" y="157" on="1"/>
        <pt x="15" y="157" on="1"/>
        <pt x="26" y="211" on="1"/>
        <pt x="391" y="211" on="1"/>
      </contour>
      <contour>
        <pt x="224" y="56" on="1"/>
        <pt x="220" y="36" on="0"/>
        <pt x="186" y="8" on="0"/>
        <pt x="167" y="8" on="1"/>
        <pt x="148" y="8" on="0"/>
        <pt x="126" y="36" on="0"/>
        <pt x="130" y="56" on="1"/>
        <pt x="135" y="76" on="0"/>
        <pt x="169" y="104" on="0"/>
        <pt x="188" y="104" on="1"/>
        <pt x="207" y="104" on="0"/>
        <pt x="229" y="76" on="0"/>
      </contour>
      <contour>
        <pt x="279" y="313" on="1"/>
        <pt x="275" y="293" on="0"/>
        <pt x="241" y="265" on="0"/>
        <pt x="222" y="265" on="1"/>
        <pt x="203" y="265" on="0"/>
        <pt x="181" y="293" on="0"/>
        <pt x="185" y="313" on="1"/>
        <pt x="189" y="333" on="0"/>
        <pt x="223" y="361" on="0"/>
        <pt x="242" y="361" on="1"/>
        <pt x="261" y="361" on="0"/>
        <pt x="283" y="333" on="0"/>
      </contour>
    </TTGlyph>
    <TTGlyph name="dollar" xMin="10" yMin="-55" xMax="362" yMax="533">
      <contour>
        <pt x="309" y="138" on="1"/>
        <pt x="300" y="96" on="0"/>
        <pt x="225" y="28" on="0"/>
        <pt x="172" y="17" on="1"/>
        <pt x="157" y="-55" on="1"/>
        <pt x="98" y="-55" on="1"/>
        <pt x="113" y="15" on="1"/>
        <pt x="48" y="21" on="0"/>
        <pt x="10" y="56" on="1"/>
        <pt x="48" y="104" on="1"/>
        <pt x="84" y="69" on="0"/>
        <pt x="145" y="69" on="1"/>
        <pt x="185" y="69" on="0"/>
        <pt x="241" y="106" on="0"/>
        <pt x="247" y="136" on="1"/>
        <pt x="257" y="183" on="0"/>
        <pt x="184" y="217" on="1"/>
        <pt x="68" y="271" on="0"/>
        <pt x="84" y="344" on="1"/>
        <pt x="93" y="387" on="0"/>
        <pt x="163" y="449" on="0"/>
        <pt x="215" y="459" on="1"/>
        <pt x="231" y="533" on="1"/>
        <pt x="289" y="533" on="1"/>
        <pt x="273" y="460" on="1"/>
        <pt x="319" y="454" on="0"/>
        <pt x="362" y="427" on="1"/>
        <pt x="322" y="378" on="1"/>
        <pt x="294" y="407" on="0"/>
        <pt x="235" y="407" on="1"/>
        <pt x="202" y="407" on="0"/>
        <pt x="151" y="376" on="0"/>
        <pt x="146" y="349" on="1"/>
        <pt x="138" y="311" on="0"/>
        <pt x="217" y="272" on="1"/>
        <pt x="277" y="243" on="0"/>
        <pt x="318" y="183" on="0"/>
      </contour>
    </TTGlyph>
    <TTGlyph name="dong" xMin="-31" yMin="-103" xMax="491" yMax="504">
      <contour>
        <pt x="341" y="0" on="1"/>
        <pt x="281" y="0" on="1"/>
        <pt x="280" y="11" on="0"/>
        <pt x="285" y="37" on="1"/>
        <pt x="229" y="-9" on="0"/>
        <pt x="155" y="-9" on="1"/>
        <pt x="81" y="-9" on="0"/>
        <pt x="2" y="96" on="0"/>
        <pt x="19" y="177" on="1"/>
        <pt x="35" y="252" on="0"/>
        <pt x="154" y="353" on="0"/>
        <pt x="227" y="353" on="1"/>
        <pt x="302" y="353" on="0"/>
        <pt x="339" y="306" on="1"/>
        <pt x="361" y="410" on="1"/>
        <pt x="263" y="410" on="1"/>
        <pt x="272" y="454" on="1"/>
        <pt x="370" y="454" on="1"/>
        <pt x="381" y="504" on="1"/>
        <pt x="444" y="504" on="1"/>
        <pt x="433" y="454" on="1"/>
        <pt x="491" y="454" on="1"/>
        <pt x="482" y="410" on="1"/>
        <pt x="424" y="410" on="1"/>
        <pt x="356" y="91" on="1"/>
        <pt x="347" y="49" on="0"/>
      </contour>
      <contour>
        <pt x="301" y="129" on="1"/>
        <pt x="317" y="207" on="1"/>
        <pt x="326" y="245" on="0"/>
        <pt x="263" y="301" on="0"/>
        <pt x="221" y="301" on="1"/>
        <pt x="169" y="301" on="0"/>
        <pt x="93" y="231" on="0"/>
        <pt x="81" y="177" on="1"/>
        <pt x="68" y="116" on="0"/>
        <pt x="115" y="46" on="0"/>
        <pt x="171" y="46" on="1"/>
        <pt x="221" y="46" on="0"/>
        <pt x="293" y="91" on="0"/>
      </contour>
      <contour>
        <pt x="349" y="-103" on="1"/>
        <pt x="-31" y="-103" on="1"/>
        <pt x="-19" y="-45" on="1"/>
        <pt x="361" y="-45" on="1"/>
      </contour>
    </TTGlyph>
    <TTGlyph name="dotaccent" xMin="120" yMin="501" xMax="215" yMax="589">
      <contour>
        <pt x="211" y="545" on="1"/>
        <pt x="207" y="526" on="0"/>
        <pt x="176" y="501" on="0"/>
        <pt x="159" y="501" on="1"/>
        <pt x="142" y="501" on="0"/>
        <pt x="120" y="526" on="0"/>
        <pt x="124" y="545" on="1"/>
        <pt x="128" y="563" on="0"/>
        <pt x="161" y="589" on="0"/>
        <pt x="178" y="589" on="1"/>
        <pt x="195" y="589" on="0"/>
        <pt x="215" y="563" on="0"/>
      </contour>
    </TTGlyph>
    <TTGlyph name="dotbelowcomb" xMin="7254" yMin="-144" xMax="7355" yMax="-48">
      <contour>
        <pt x="7351" y="-96" on="1"/>
        <pt x="7347" y="-116" on="0"/>
        <pt x="7313" y="-144" on="0"/>
        <pt x="7294" y="-144" on="1"/>
        <pt x="7275" y="-144" on="0"/>
        <pt x="7254" y="-116" on="0"/>
        <pt x="7258" y="-96" on="1"/>
        <pt x="7262" y="-76" on="0"/>
        <pt x="7295" y="-48" on="0"/>
        <pt x="7314" y="-48" on="1"/>
        <pt x="7333" y="-48" on="0"/>
        <pt x="7355" y="-76" on="0"/>
      </contour>
    </TTGlyph>
    <TTGlyph name="dotlessi" xMin="6" yMin="0" xMax="141" yMax="340">
      <contour>
        <pt x="69" y="0" on="1"/>
        <pt x="6" y="0" on="1"/>
        <pt x="78" y="340" on="1"/>
        <pt x="141" y="340" on="1"/>
      </contour>
    </TTGlyph>
    <TTGlyph name="dottedcircle" xMin="50" yMin="22" xMax="415" yMax="387">
      <contour>
        <pt x="251" y="368" on="1"/>
        <pt x="251" y="360" on="0"/>
        <pt x="240" y="349" on="0"/>
        <pt x="232" y="349" on="1"/>
        <pt x="224" y="349" on="0"/>
        <pt x="213" y="360" on="0"/>
        <pt x="213" y="368" on="1"/>
        <pt x="213" y="376" on="0"/>
        <pt x="224" y="387" on="0"/>
        <pt x="232" y="387" on="1"/>
        <pt x="240" y="387" on="0"/>
        <pt x="251" y="376" on="0"/>
      </contour>
      <contour>
        <pt x="251" y="41" on="1"/>
        <pt x="251" y="33" on="0"/>
        <pt x="240" y="22" on="0"/>
        <pt x="232" y="22" on="1"/>
        <pt x="224" y="22" on="0"/>
        <pt x="213" y="33" on="0"/>
        <pt x="213" y="41" on="1"/>
        <pt x="213" y="49" on="0"/>
        <pt x="224" y="60" on="0"/>
        <pt x="232" y="60" on="1"/>
        <pt x="240" y="60" on="0"/>
        <pt x="251" y="49" on="0"/>
      </contour>
      <contour>
        <pt x="87" y="205" on="1"/>
        <pt x="87" y="197" on="0"/>
        <pt x="76" y="187" on="0"/>
        <pt x="68" y="187" on="1"/>
        <pt x="60" y="187" on="0"/>
        <pt x="50" y="197" on="0"/>
        <pt x="50" y="205" on="1"/>
        <pt x="50" y="213" on="0"/>
        <pt x="60" y="224" on="0"/>
        <pt x="68" y="224" on="1"/>
        <pt x="76" y="224" on="0"/>
        <pt x="87" y="213" on="0"/>
      </contour>
      <contour>
        <pt x="415" y="205" on="1"/>
        <pt x="415" y="197" on="0"/>
        <pt x="404" y="187" on="0"/>
        <pt x="396" y="187" on="1"/>
        <pt x="388" y="187" on="0"/>
        <pt x="378" y="197" on="0"/>
        <pt x="378" y="205" on="1"/>
        <pt x="378" y="213" on="0"/>
        <pt x="388" y="224" on="0"/>
        <pt x="396" y="224" on="1"/>
        <pt x="404" y="224" on="0"/>
        <pt x="415" y="213" on="0"/>
      </contour>
      <contour>
        <pt x="100" y="266" on="1"/>
        <pt x="100" y="258" on="0"/>
        <pt x="89" y="248" on="0"/>
        <pt x="81" y="248" on="1"/>
        <pt x="73" y="248" on="0"/>
        <pt x="63" y="258" on="0"/>
        <pt x="63" y="266" on="1"/>
        <pt x="63" y="274" on="0"/>
        <pt x="73" y="285" on="0"/>
        <pt x="81" y="285" on="1"/>
        <pt x="89" y="285" on="0"/>
        <pt x="100" y="274" on="0"/>
      </contour>
      <contour>
        <pt x="135" y="321" on="1"/>
        <pt x="135" y="313" on="0"/>
        <pt x="124" y="303" on="0"/>
        <pt x="116" y="303" on="1"/>
        <pt x="108" y="303" on="0"/>
        <pt x="98" y="313" on="0"/>
        <pt x="98" y="321" on="1"/>
        <pt x="98" y="329" on="0"/>
        <pt x="108" y="340" on="0"/>
        <pt x="116" y="340" on="1"/>
        <pt x="124" y="340" on="0"/>
        <pt x="135" y="329" on="0"/>
      </contour>
      <contour>
        <pt x="188" y="356" on="1"/>
        <pt x="188" y="348" on="0"/>
        <pt x="177" y="338" on="0"/>
        <pt x="169" y="338" on="1"/>
        <pt x="161" y="338" on="0"/>
        <pt x="151" y="348" on="0"/>
        <pt x="151" y="356" on="1"/>
        <pt x="151" y="364" on="0"/>
        <pt x="161" y="375" on="0"/>
        <pt x="169" y="375" on="1"/>
        <pt x="177" y="375" on="0"/>
        <pt x="188" y="364" on="0"/>
      </contour>
      <contour>
        <pt x="401" y="266" on="1"/>
        <pt x="401" y="258" on="0"/>
        <pt x="391" y="248" on="0"/>
        <pt x="383" y="248" on="1"/>
        <pt x="375" y="248" on="0"/>
        <pt x="364" y="258" on="0"/>
        <pt x="364" y="266" on="1"/>
        <pt x="364" y="274" on="0"/>
        <pt x="375" y="285" on="0"/>
        <pt x="383" y="285" on="1"/>
        <pt x="391" y="285" on="0"/>
        <pt x="401" y="274" on="0"/>
      </contour>
      <contour>
        <pt x="366" y="321" on="1"/>
        <pt x="366" y="313" on="0"/>
        <pt x="356" y="303" on="0"/>
        <pt x="348" y="303" on="1"/>
        <pt x="340" y="303" on="0"/>
        <pt x="329" y="313" on="0"/>
        <pt x="329" y="321" on="1"/>
        <pt x="329" y="329" on="0"/>
        <pt x="340" y="340" on="0"/>
        <pt x="348" y="340" on="1"/>
        <pt x="356" y="340" on="0"/>
        <pt x="366" y="329" on="0"/>
      </contour>
      <contour>
        <pt x="313" y="356" on="1"/>
        <pt x="313" y="348" on="0"/>
        <pt x="303" y="338" on="0"/>
        <pt x="295" y="338" on="1"/>
        <pt x="287" y="338" on="0"/>
        <pt x="276" y="348" on="0"/>
        <pt x="276" y="356" on="1"/>
        <pt x="276" y="364" on="0"/>
        <pt x="287" y="375" on="0"/>
        <pt x="295" y="375" on="1"/>
        <pt x="303" y="375" on="0"/>
        <pt x="313" y="364" on="0"/>
      </contour>
      <contour>
        <pt x="100" y="143" on="1"/>
        <pt x="100" y="135" on="0"/>
        <pt x="89" y="124" on="0"/>
        <pt x="81" y="124" on="1"/>
        <pt x="73" y="124" on="0"/>
        <pt x="63" y="135" on="0"/>
        <pt x="63" y="143" on="1"/>
        <pt x="63" y="151" on="0"/>
        <pt x="73" y="161" on="0"/>
        <pt x="81" y="161" on="1"/>
        <pt x="89" y="161" on="0"/>
        <pt x="100" y="151" on="0"/>
      </contour>
      <contour>
        <pt x="135" y="88" on="1"/>
        <pt x="135" y="80" on="0"/>
        <pt x="124" y="69" on="0"/>
        <pt x="116" y="69" on="1"/>
        <pt x="108" y="69" on="0"/>
        <pt x="98" y="80" on="0"/>
        <pt x="98" y="88" on="1"/>
        <pt x="98" y="96" on="0"/>
        <pt x="108" y="106" on="0"/>
        <pt x="116" y="106" on="1"/>
        <pt x="124" y="106" on="0"/>
        <pt x="135" y="96" on="0"/>
      </contour>
      <contour>
        <pt x="188" y="53" on="1"/>
        <pt x="188" y="45" on="0"/>
        <pt x="177" y="34" on="0"/>
        <pt x="169" y="34" on="1"/>
        <pt x="161" y="34" on="0"/>
        <pt x="151" y="45" on="0"/>
        <pt x="151" y="53" on="1"/>
        <pt x="151" y="61" on="0"/>
        <pt x="161" y="71" on="0"/>
        <pt x="169" y="71" on="1"/>
        <pt x="177" y="71" on="0"/>
        <pt x="188" y="61" on="0"/>
      </contour>
      <contour>
        <pt x="397" y="129" on="1"/>
        <pt x="392" y="124" on="0"/>
        <pt x="384" y="124" on="1"/>
        <pt x="376" y="124" on="0"/>
        <pt x="365" y="135" on="0"/>
        <pt x="365" y="143" on="1"/>
        <pt x="365" y="151" on="0"/>
        <pt x="376" y="161" on="0"/>
        <pt x="384" y="161" on="1"/>
        <pt x="392" y="161" on="0"/>
        <pt x="402" y="151" on="0"/>
        <pt x="402" y="143" on="1"/>
        <pt x="402" y="135" on="0"/>
      </contour>
      <contour>
        <pt x="362" y="74" on="1"/>
        <pt x="357" y="69" on="0"/>
        <pt x="349" y="69" on="1"/>
        <pt x="341" y="69" on="0"/>
        <pt x="330" y="80" on="0"/>
        <pt x="330" y="88" on="1"/>
        <pt x="330" y="96" on="0"/>
        <pt x="341" y="106" on="0"/>
        <pt x="349" y="106" on="1"/>
        <pt x="357" y="106" on="0"/>
        <pt x="367" y="96" on="0"/>
        <pt x="367" y="88" on="1"/>
        <pt x="367" y="80" on="0"/>
      </contour>
      <contour>
        <pt x="309" y="39" on="1"/>
        <pt x="304" y="34" on="0"/>
        <pt x="296" y="34" on="1"/>
        <pt x="288" y="34" on="0"/>
        <pt x="277" y="45" on="0"/>
        <pt x="277" y="53" on="1"/>
        <pt x="277" y="61" on="0"/>
        <pt x="288" y="71" on="0"/>
        <pt x="296" y="71" on="1"/>
        <pt x="304" y="71" on="0"/>
        <pt x="314" y="61" on="0"/>
        <pt x="314" y="53" on="1"/>
        <pt x="314" y="45" on="0"/>
      </contour>
    </TTGlyph>
    <TTGlyph name="e" xMin="12" yMin="-9" xMax="362" yMax="353">
      <contour>
        <pt x="362" y="246" on="1"/>
        <pt x="362" y="195" on="0"/>
        <pt x="309" y="168" on="1"/>
        <pt x="264" y="145" on="0"/>
        <pt x="197" y="145" on="1"/>
        <pt x="136" y="145" on="0"/>
        <pt x="77" y="153" on="1"/>
        <pt x="76" y="147" on="0"/>
        <pt x="76" y="141" on="1"/>
        <pt x="76" y="96" on="0"/>
        <pt x="134" y="47" on="0"/>
        <pt x="181" y="47" on="1"/>
        <pt x="235" y="47" on="0"/>
        <pt x="315" y="73" on="1"/>
        <pt x="310" y="18" on="1"/>
        <pt x="232" y="-9" on="0"/>
        <pt x="166" y="-9" on="1"/>
        <pt x="97" y="-9" on="0"/>
        <pt x="12" y="62" on="0"/>
        <pt x="12" y="123" on="1"/>
        <pt x="12" y="219" on="0"/>
        <pt x="148" y="353" on="0"/>
        <pt x="239" y="353" on="1"/>
        <pt x="362" y="353" on="0"/>
      </contour>
      <contour>
        <pt x="308" y="247" on="1"/>
        <pt x="308" y="301" on="0"/>
        <pt x="230" y="301" on="1"/>
        <pt x="189" y="301" on="0"/>
        <pt x="104" y="241" on="0"/>
        <pt x="88" y="198" on="1"/>
        <pt x="116" y="191" on="0"/>
        <pt x="184" y="191" on="1"/>
        <pt x="308" y="191" on="0"/>
      </contour>
    </TTGlyph>
    <TTGlyph name="eacute" xMin="12" yMin="-9" xMax="2891" yMax="1316">
      <component glyphName="e" x="0" y="0" flags="0x204"/>
      <component glyphName="acutecomb" x="336" y="0" flags="0x4"/>
    </TTGlyph>
    <TTGlyph name="ecircumflex" xMin="12" yMin="-9" xMax="1027" yMax="1180">
      <component glyphName="e" x="0" y="0" flags="0x204"/>
      <component glyphName="circumflex" x="86" y="0" flags="0x4"/>
    </TTGlyph>
    <TTGlyph name="edieresis" xMin="12" yMin="-9" xMax="702" yMax="1149">
      <component glyphName="e" x="0" y="0" flags="0x204"/>
      <component glyphName="dieresis" x="25" y="0" flags="0x4"/>
    </TTGlyph>
    <TTGlyph name="egrave" xMin="12" yMin="-9" xMax="2349" yMax="1180">
      <component glyphName="e" x="0" y="0" flags="0x204"/>
      <component glyphName="gravecomb" x="314" y="0" flags="0x4"/>
    </TTGlyph>
    <TTGlyph name="eight" xMin="1" yMin="-8" xMax="374" yMax="479">
      <contour>
        <pt x="269" y="131" on="1"/>
        <pt x="277" y="168" on="0"/>
        <pt x="240" y="228" on="0"/>
        <pt x="194" y="231" on="1"/>
        <pt x="146" y="228" on="0"/>
        <pt x="83" y="168" on="0"/>
        <pt x="75" y="131" on="1"/>
        <pt x="67" y="92" on="0"/>
        <pt x="111" y="46" on="0"/>
        <pt x="154" y="46" on="1"/>
        <pt x="197" y="46" on="0"/>
        <pt x="261" y="92" on="0"/>
      </contour>
      <contour>
        <pt x="303" y="355" on="1"/>
        <pt x="309" y="385" on="0"/>
        <pt x="272" y="425" on="0"/>
        <pt x="235" y="425" on="1"/>
        <pt x="198" y="425" on="0"/>
        <pt x="143" y="385" on="0"/>
        <pt x="137" y="355" on="1"/>
        <pt x="127" y="306" on="0"/>
        <pt x="204" y="283" on="1"/>
        <pt x="293" y="306" on="0"/>
      </contour>
      <contour>
        <pt x="331" y="134" on="1"/>
        <pt x="317" y="68" on="0"/>
        <pt x="215" y="-8" on="0"/>
        <pt x="142" y="-8" on="1"/>
        <pt x="70" y="-8" on="0"/>
        <pt x="1" y="68" on="0"/>
        <pt x="15" y="134" on="1"/>
        <pt x="23" y="174" on="0"/>
        <pt x="83" y="242" on="0"/>
        <pt x="121" y="258" on="1"/>
        <pt x="64" y="293" on="0"/>
        <pt x="76" y="352" on="1"/>
        <pt x="88" y="407" on="0"/>
        <pt x="184" y="479" on="0"/>
        <pt x="246" y="479" on="1"/>
        <pt x="308" y="479" on="0"/>
        <pt x="374" y="407" on="0"/>
        <pt x="362" y="352" on="1"/>
        <pt x="350" y="293" on="0"/>
        <pt x="277" y="258" on="1"/>
        <pt x="309" y="242" on="0"/>
        <pt x="339" y="174" on="0"/>
      </contour>
    </TTGlyph>
    <TTGlyph name="ellipsis" xMin="-1" yMin="-9" xMax="434" yMax="87">
      <contour>
        <pt x="98" y="39" on="1"/>
        <pt x="94" y="19" on="0"/>
        <pt x="60" y="-9" on="0"/>
        <pt x="40" y="-9" on="1"/>
        <pt x="20" y="-9" on="0"/>
        <pt x="-1" y="19" on="0"/>
        <pt x="2" y="39" on="1"/>
        <pt x="6" y="59" on="0"/>
        <pt x="40" y="87" on="0"/>
        <pt x="60" y="87" on="1"/>
        <pt x="80" y="87" on="0"/>
        <pt x="102" y="59" on="0"/>
      </contour>
      <contour>
        <pt x="264" y="39" on="1"/>
        <pt x="260" y="19" on="0"/>
        <pt x="226" y="-9" on="0"/>
        <pt x="206" y="-9" on="1"/>
        <pt x="186" y="-9" on="0"/>
        <pt x="164" y="19" on="0"/>
        <pt x="168" y="39" on="1"/>
        <pt x="172" y="59" on="0"/>
        <pt x="206" y="87" on="0"/>
        <pt x="226" y="87" on="1"/>
        <pt x="246" y="87" on="0"/>
        <pt x="268" y="59" on="0"/>
      </contour>
      <contour>
        <pt x="430" y="39" on="1"/>
        <pt x="426" y="19" on="0"/>
        <pt x="392" y="-9" on="0"/>
        <pt x="372" y="-9" on="1"/>
        <pt x="352" y="-9" on="0"/>
        <pt x="330" y="19" on="0"/>
        <pt x="334" y="39" on="1"/>
        <pt x="338" y="59" on="0"/>
        <pt x="372" y="87" on="0"/>
        <pt x="392" y="87" on="1"/>
        <pt x="412" y="87" on="0"/>
        <pt x="434" y="59" on="0"/>
      </contour>
    </TTGlyph>
    <TTGlyph name="emdash" xMin="-1" yMin="157" xMax="684" yMax="211">
      <contour>
        <pt x="673" y="157" on="1"/>
        <pt x="-1" y="157" on="1"/>
        <pt x="9" y="211" on="1"/>
        <pt x="684" y="211" on="1"/>
      </contour>
    </TTGlyph>
    <TTGlyph name="endash" xMin="-1" yMin="157" xMax="326" yMax="211">
      <contour>
        <pt x="315" y="157" on="1"/>
        <pt x="-1" y="157" on="1"/>
        <pt x="9" y="211" on="1"/>
        <pt x="326" y="211" on="1"/>
      </contour>
    </TTGlyph>
    <TTGlyph name="equal" xMin="22" yMin="97" xMax="385" yMax="275">
      <contour>
        <pt x="374" y="223" on="1"/>
        <pt x="49" y="223" on="1"/>
        <pt x="60" y="275" on="1"/>
        <pt x="385" y="275" on="1"/>
      </contour>
      <contour>
        <pt x="347" y="97" on="1"/>
        <pt x="22" y="97" on="1"/>
        <pt x="33" y="150" on="1"/>
        <pt x="358" y="150" on="1"/>
      </contour>
    </TTGlyph>
    <TTGlyph name="estimated" xMin="-7" yMin="-7" xMax="322" yMax="386">
      <contour>
        <pt x="254" y="236" on="1"/>
        <pt x="264" y="335" on="0"/>
        <pt x="201" y="335" on="1"/>
        <pt x="138" y="335" on="0"/>
        <pt x="105" y="236" on="1"/>
      </contour>
      <contour>
        <pt x="287" y="121" on="1"/>
        <pt x="231" y="-7" on="0"/>
        <pt x="128" y="-7" on="1"/>
        <pt x="-7" y="-7" on="0"/>
        <pt x="36" y="202" on="1"/>
        <pt x="56" y="295" on="0"/>
        <pt x="152" y="386" on="0"/>
        <pt x="212" y="386" on="1"/>
        <pt x="278" y="386" on="0"/>
        <pt x="322" y="282" on="0"/>
        <pt x="304" y="185" on="1"/>
        <pt x="92" y="185" on="1"/>
        <pt x="80" y="112" on="0"/>
        <pt x="104" y="45" on="0"/>
        <pt x="139" y="45" on="1"/>
        <pt x="165" y="45" on="0"/>
        <pt x="212" y="86" on="0"/>
        <pt x="230" y="121" on="1"/>
      </contour>
    </TTGlyph>
    <TTGlyph name="eth" xMin="7" yMin="-16" xMax="359" yMax="478">
      <contour>
        <pt x="331" y="163" on="1"/>
        <pt x="314" y="82" on="0"/>
        <pt x="202" y="-16" on="0"/>
        <pt x="132" y="-16" on="1"/>
        <pt x="69" y="-16" on="0"/>
        <pt x="7" y="75" on="0"/>
        <pt x="22" y="142" on="1"/>
        <pt x="36" y="208" on="0"/>
        <pt x="137" y="298" on="0"/>
        <pt x="197" y="298" on="1"/>
        <pt x="257" y="298" on="0"/>
        <pt x="279" y="266" on="1"/>
        <pt x="266" y="316" on="0"/>
        <pt x="215" y="364" on="1"/>
        <pt x="214" y="365" on="0"/>
        <pt x="213" y="365" on="1"/>
        <pt x="101" y="313" on="1"/>
        <pt x="83" y="357" on="1"/>
        <pt x="172" y="398" on="1"/>
        <pt x="140" y="418" on="0"/>
        <pt x="107" y="428" on="1"/>
        <pt x="124" y="478" on="1"/>
        <pt x="191" y="464" on="0"/>
        <pt x="239" y="429" on="1"/>
        <pt x="340" y="476" on="1"/>
        <pt x="352" y="430" on="1"/>
        <pt x="276" y="395" on="1"/>
        <pt x="359" y="295" on="0"/>
      </contour>
      <contour>
        <pt x="259" y="142" on="1"/>
        <pt x="268" y="185" on="0"/>
        <pt x="227" y="244" on="0"/>
        <pt x="189" y="244" on="1"/>
        <pt x="153" y="244" on="0"/>
        <pt x="88" y="182" on="0"/>
        <pt x="80" y="142" on="1"/>
        <pt x="71" y="102" on="0"/>
        <pt x="110" y="40" on="0"/>
        <pt x="146" y="40" on="1"/>
        <pt x="184" y="40" on="0"/>
        <pt x="250" y="100" on="0"/>
      </contour>
    </TTGlyph>
    <TTGlyph name="exclam" xMin="-3" yMin="-9" xMax="177" yMax="476">
      <contour>
        <pt x="96" y="139" on="1"/>
        <pt x="40" y="139" on="1"/>
        <pt x="105" y="476" on="1"/>
        <pt x="177" y="476" on="1"/>
      </contour>
      <contour>
        <pt x="96" y="39" on="1"/>
        <pt x="92" y="19" on="0"/>
        <pt x="58" y="-9" on="0"/>
        <pt x="38" y="-9" on="1"/>
        <pt x="18" y="-9" on="0"/>
        <pt x="-3" y="19" on="0"/>
        <pt x="0" y="39" on="1"/>
        <pt x="4" y="59" on="0"/>
        <pt x="38" y="87" on="0"/>
        <pt x="58" y="87" on="1"/>
        <pt x="78" y="87" on="0"/>
        <pt x="100" y="59" on="0"/>
      </contour>
    </TTGlyph>
    <TTGlyph name="exclamdown" xMin="-25" yMin="-141" xMax="155" yMax="344">
      <contour>
        <pt x="46" y="-141" on="1"/>
        <pt x="-25" y="-141" on="1"/>
        <pt x="52" y="196" on="1"/>
        <pt x="108" y="196" on="1"/>
      </contour>
      <contour>
        <pt x="150" y="296" on="1"/>
        <pt x="146" y="276" on="0"/>
        <pt x="112" y="248" on="0"/>
        <pt x="92" y="248" on="1"/>
        <pt x="72" y="248" on="0"/>
        <pt x="50" y="276" on="0"/>
        <pt x="54" y="296" on="1"/>
        <pt x="59" y="316" on="0"/>
        <pt x="93" y="344" on="0"/>
        <pt x="113" y="344" on="1"/>
        <pt x="133" y="344" on="0"/>
        <pt x="155" y="316" on="0"/>
      </contour>
    </TTGlyph>
    <TTGlyph name="f" xMin="-139" yMin="-150" xMax="338" yMax="511">
      <contour>
        <pt x="97" y="21" on="1"/>
        <pt x="60" y="-150" on="0"/>
        <pt x="-73" y="-150" on="1"/>
        <pt x="-115" y="-150" on="0"/>
        <pt x="-139" y="-128" on="1"/>
        <pt x="-111" y="-81" on="1"/>
        <pt x="-80" y="-96" on="0"/>
        <pt x="-60" y="-96" on="1"/>
        <pt x="9" y="-96" on="0"/>
        <pt x="34" y="21" on="1"/>
        <pt x="91" y="288" on="1"/>
        <pt x="34" y="288" on="1"/>
        <pt x="45" y="340" on="1"/>
        <pt x="103" y="340" on="1"/>
        <pt x="139" y="511" on="0"/>
        <pt x="272" y="511" on="1"/>
        <pt x="314" y="511" on="0"/>
        <pt x="338" y="489" on="1"/>
        <pt x="310" y="442" on="1"/>
        <pt x="279" y="457" on="0"/>
        <pt x="259" y="457" on="1"/>
        <pt x="190" y="457" on="0"/>
        <pt x="165" y="340" on="1"/>
        <pt x="262" y="340" on="1"/>
        <pt x="251" y="288" on="1"/>
        <pt x="154" y="288" on="1"/>
      </contour>
    </TTGlyph>
    <TTGlyph name="fi" xMin="-139" yMin="-150" xMax="401" yMax="511">
      <contour>
        <pt x="314" y="0" on="1"/>
        <pt x="251" y="0" on="1"/>
        <pt x="312" y="288" on="1"/>
        <pt x="154" y="288" on="1"/>
        <pt x="97" y="21" on="1"/>
        <pt x="60" y="-150" on="0"/>
        <pt x="-73" y="-150" on="1"/>
        <pt x="-115" y="-150" on="0"/>
        <pt x="-139" y="-128" on="1"/>
        <pt x="-111" y="-81" on="1"/>
        <pt x="-80" y="-96" on="0"/>
        <pt x="-60" y="-96" on="1"/>
        <pt x="9" y="-96" on="0"/>
        <pt x="34" y="21" on="1"/>
        <pt x="91" y="288" on="1"/>
        <pt x="34" y="288" on="1"/>
        <pt x="45" y="340" on="1"/>
        <pt x="103" y="340" on="1"/>
        <pt x="120" y="421" on="0"/>
        <pt x="225" y="511" on="0"/>
        <pt x="294" y="511" on="1"/>
        <pt x="366" y="511" on="0"/>
        <pt x="401" y="457" on="1"/>
        <pt x="358" y="412" on="1"/>
        <pt x="329" y="457" on="0"/>
        <pt x="281" y="457" on="1"/>
        <pt x="245" y="457" on="0"/>
        <pt x="212" y="427" on="1"/>
        <pt x="176" y="394" on="0"/>
        <pt x="165" y="340" on="1"/>
        <pt x="386" y="340" on="1"/>
      </contour>
    </TTGlyph>
    <TTGlyph name="five" xMin="-10" yMin="-8" xMax="390" yMax="476">
      <contour>
        <pt x="337" y="168" on="1"/>
        <pt x="321" y="90" on="0"/>
        <pt x="190" y="-8" on="0"/>
        <pt x="103" y="-8" on="1"/>
        <pt x="29" y="-8" on="0"/>
        <pt x="-10" y="35" on="1"/>
        <pt x="26" y="81" on="1"/>
        <pt x="74" y="46" on="0"/>
        <pt x="121" y="46" on="1"/>
        <pt x="173" y="46" on="0"/>
        <pt x="262" y="115" on="0"/>
        <pt x="273" y="167" on="1"/>
        <pt x="282" y="210" on="0"/>
        <pt x="236" y="257" on="0"/>
        <pt x="189" y="257" on="1"/>
        <pt x="142" y="257" on="0"/>
        <pt x="121" y="224" on="1"/>
        <pt x="81" y="222" on="1"/>
        <pt x="152" y="476" on="1"/>
        <pt x="390" y="476" on="1"/>
        <pt x="367" y="422" on="1"/>
        <pt x="201" y="422" on="1"/>
        <pt x="170" y="306" on="1"/>
        <pt x="189" y="314" on="0"/>
        <pt x="214" y="314" on="1"/>
        <pt x="280" y="314" on="0"/>
        <pt x="351" y="232" on="0"/>
      </contour>
    </TTGlyph>
    <TTGlyph name="fiveeighths" xMin="20" yMin="-9" xMax="510" yMax="473">
      <contour>
        <pt x="96" y="-9" on="1"/>
        <pt x="47" y="-9" on="1"/>
        <pt x="433" y="468" on="1"/>
        <pt x="482" y="468" on="1"/>
      </contour>
      <contour>
        <pt x="434" y="79" on="1"/>
        <pt x="438" y="96" on="0"/>
        <pt x="422" y="128" on="0"/>
        <pt x="396" y="130" on="1"/>
        <pt x="370" y="128" on="0"/>
        <pt x="339" y="96" on="0"/>
        <pt x="335" y="79" on="1"/>
        <pt x="331" y="59" on="0"/>
        <pt x="354" y="37" on="0"/>
        <pt x="376" y="37" on="1"/>
        <pt x="399" y="37" on="0"/>
        <pt x="430" y="59" on="0"/>
      </contour>
      <contour>
        <pt x="454" y="209" on="1"/>
        <pt x="457" y="223" on="0"/>
        <pt x="440" y="242" on="0"/>
        <pt x="420" y="242" on="1"/>
        <pt x="400" y="242" on="0"/>
        <pt x="375" y="223" on="0"/>
        <pt x="372" y="209" on="1"/>
        <pt x="369" y="197" on="0"/>
        <pt x="388" y="179" on="0"/>
        <pt x="404" y="174" on="1"/>
        <pt x="426" y="180" on="0"/>
        <pt x="452" y="198" on="0"/>
      </contour>
      <contour>
        <pt x="484" y="80" on="1"/>
        <pt x="475" y="39" on="0"/>
        <pt x="412" y="-8" on="0"/>
        <pt x="366" y="-8" on="1"/>
        <pt x="321" y="-8" on="0"/>
        <pt x="279" y="39" on="0"/>
        <pt x="288" y="80" on="1"/>
        <pt x="292" y="102" on="0"/>
        <pt x="322" y="142" on="0"/>
        <pt x="341" y="153" on="1"/>
        <pt x="330" y="163" on="0"/>
        <pt x="319" y="191" on="0"/>
        <pt x="322" y="207" on="1"/>
        <pt x="330" y="242" on="0"/>
        <pt x="391" y="287" on="0"/>
        <pt x="430" y="287" on="1"/>
        <pt x="468" y="287" on="0"/>
        <pt x="510" y="242" on="0"/>
        <pt x="502" y="207" on="1"/>
        <pt x="496" y="175" on="0"/>
        <pt x="461" y="153" on="1"/>
        <pt x="477" y="142" on="0"/>
        <pt x="488" y="103" on="0"/>
      </contour>
      <contour>
        <pt x="240" y="287" on="1"/>
        <pt x="229" y="239" on="0"/>
        <pt x="149" y="179" on="0"/>
        <pt x="95" y="179" on="1"/>
        <pt x="51" y="179" on="0"/>
        <pt x="20" y="208" on="1"/>
        <pt x="50" y="246" on="1"/>
        <pt x="62" y="238" on="0"/>
        <pt x="88" y="223" on="0"/>
        <pt x="107" y="223" on="1"/>
        <pt x="134" y="223" on="0"/>
        <pt x="182" y="258" on="0"/>
        <pt x="188" y="286" on="1"/>
        <pt x="193" y="308" on="0"/>
        <pt x="167" y="334" on="0"/>
        <pt x="141" y="334" on="1"/>
        <pt x="133" y="334" on="0"/>
        <pt x="107" y="323" on="0"/>
        <pt x="100" y="312" on="1"/>
        <pt x="67" y="312" on="1"/>
        <pt x="110" y="473" on="1"/>
        <pt x="272" y="473" on="1"/>
        <pt x="254" y="429" on="1"/>
        <pt x="148" y="429" on="1"/>
        <pt x="133" y="372" on="1"/>
        <pt x="139" y="375" on="0"/>
        <pt x="158" y="379" on="0"/>
        <pt x="164" y="379" on="1"/>
        <pt x="203" y="379" on="0"/>
        <pt x="248" y="329" on="0"/>
      </contour>
    </TTGlyph>
    <TTGlyph name="fl" xMin="-139" yMin="-150" xMax="417" yMax="511">
      <contour>
        <pt x="417" y="49" on="1"/>
        <pt x="398" y="-8" on="1"/>
        <pt x="250" y="-1" on="0"/>
        <pt x="288" y="175" on="1"/>
        <pt x="342" y="432" on="1"/>
        <pt x="318" y="457" on="0"/>
        <pt x="281" y="457" on="1"/>
        <pt x="245" y="457" on="0"/>
        <pt x="212" y="427" on="1"/>
        <pt x="176" y="394" on="0"/>
        <pt x="165" y="340" on="1"/>
        <pt x="283" y="340" on="1"/>
        <pt x="272" y="288" on="1"/>
        <pt x="154" y="288" on="1"/>
        <pt x="97" y="21" on="1"/>
        <pt x="60" y="-150" on="0"/>
        <pt x="-73" y="-150" on="1"/>
        <pt x="-115" y="-150" on="0"/>
        <pt x="-139" y="-128" on="1"/>
        <pt x="-111" y="-81" on="1"/>
        <pt x="-80" y="-96" on="0"/>
        <pt x="-60" y="-96" on="1"/>
        <pt x="9" y="-96" on="0"/>
        <pt x="34" y="21" on="1"/>
        <pt x="91" y="288" on="1"/>
        <pt x="34" y="288" on="1"/>
        <pt x="45" y="340" on="1"/>
        <pt x="103" y="340" on="1"/>
        <pt x="120" y="421" on="0"/>
        <pt x="225" y="511" on="0"/>
        <pt x="294" y="511" on="1"/>
        <pt x="374" y="511" on="0"/>
        <pt x="409" y="447" on="1"/>
        <pt x="354" y="189" on="1"/>
        <pt x="337" y="112" on="0"/>
        <pt x="355" y="80" on="1"/>
        <pt x="370" y="53" on="0"/>
      </contour>
    </TTGlyph>
    <TTGlyph name="florin" xMin="-80" yMin="-69" xMax="465" yMax="484">
      <contour>
        <pt x="336" y="254" on="1"/>
        <pt x="242" y="254" on="1"/>
        <pt x="173" y="93" on="1"/>
        <pt x="104" y="-69" on="0"/>
        <pt x="-20" y="-69" on="1"/>
        <pt x="-59" y="-69" on="0"/>
        <pt x="-80" y="-44" on="1"/>
        <pt x="-45" y="0" on="1"/>
        <pt x="-23" y="-14" on="0"/>
        <pt x="1" y="-14" on="1"/>
        <pt x="66" y="-14" on="0"/>
        <pt x="114" y="98" on="1"/>
        <pt x="181" y="254" on="1"/>
        <pt x="127" y="254" on="1"/>
        <pt x="149" y="306" on="1"/>
        <pt x="205" y="306" on="1"/>
        <pt x="211" y="322" on="1"/>
        <pt x="248" y="400" on="0"/>
        <pt x="345" y="484" on="0"/>
        <pt x="405" y="484" on="1"/>
        <pt x="444" y="484" on="0"/>
        <pt x="465" y="459" on="1"/>
        <pt x="430" y="415" on="1"/>
        <pt x="409" y="429" on="0"/>
        <pt x="384" y="429" on="1"/>
        <pt x="318" y="429" on="0"/>
        <pt x="270" y="317" on="1"/>
        <pt x="265" y="306" on="1"/>
        <pt x="358" y="306" on="1"/>
      </contour>
    </TTGlyph>
    <TTGlyph name="four" xMin="6" yMin="0" xMax="352" yMax="489">
      <contour>
        <pt x="219" y="160" on="1"/>
        <pt x="270" y="404" on="1"/>
        <pt x="216" y="373" on="0"/>
        <pt x="109" y="233" on="0"/>
        <pt x="81" y="160" on="1"/>
      </contour>
      <contour>
        <pt x="249" y="0" on="1"/>
        <pt x="185" y="0" on="1"/>
        <pt x="207" y="106" on="1"/>
        <pt x="6" y="106" on="1"/>
        <pt x="33" y="231" on="0"/>
        <pt x="244" y="480" on="0"/>
        <pt x="352" y="489" on="1"/>
        <pt x="283" y="160" on="1"/>
        <pt x="347" y="160" on="1"/>
        <pt x="328" y="106" on="1"/>
        <pt x="271" y="106" on="1"/>
      </contour>
    </TTGlyph>
    <TTGlyph name="fraction" xMin="-98" yMin="0" xMax="261" yMax="477">
      <contour>
        <pt x="-38" y="0" on="1"/>
        <pt x="-98" y="0" on="1"/>
        <pt x="202" y="477" on="1"/>
        <pt x="261" y="477" on="1"/>
      </contour>
    </TTGlyph>
    <TTGlyph name="franc" xMin="-18" yMin="0" xMax="412" yMax="477">
      <contour>
        <pt x="239" y="90" on="1"/>
        <pt x="111" y="90" on="1"/>
        <pt x="92" y="0" on="1"/>
        <pt x="32" y="0" on="1"/>
        <pt x="51" y="90" on="1"/>
        <pt x="-18" y="90" on="1"/>
        <pt x="-7" y="142" on="1"/>
        <pt x="62" y="142" on="1"/>
        <pt x="133" y="477" on="1"/>
        <pt x="412" y="477" on="1"/>
        <pt x="400" y="423" on="1"/>
        <pt x="181" y="423" on="1"/>
        <pt x="150" y="273" on="1"/>
        <pt x="355" y="273" on="1"/>
        <pt x="343" y="219" on="1"/>
        <pt x="138" y="219" on="1"/>
        <pt x="122" y="142" on="1"/>
        <pt x="250" y="142" on="1"/>
      </contour>
    </TTGlyph>
    <TTGlyph name="g" xMin="-20" yMin="-150" xMax="331" yMax="347">
      <contour>
        <pt x="238" y="-45" on="1"/>
        <pt x="228" y="-92" on="0"/>
        <pt x="148" y="-150" on="0"/>
        <pt x="83" y="-150" on="1"/>
        <pt x="29" y="-150" on="0"/>
        <pt x="-20" y="-116" on="1"/>
        <pt x="11" y="-66" on="1"/>
        <pt x="58" y="-97" on="0"/>
        <pt x="98" y="-97" on="1"/>
        <pt x="129" y="-97" on="0"/>
        <pt x="176" y="-68" on="0"/>
        <pt x="180" y="-48" on="1"/>
        <pt x="187" y="-18" on="0"/>
        <pt x="136" y="5" on="1"/>
        <pt x="97" y="22" on="0"/>
        <pt x="28" y="64" on="0"/>
        <pt x="35" y="98" on="1"/>
        <pt x="39" y="114" on="0"/>
        <pt x="53" y="139" on="1"/>
        <pt x="25" y="178" on="0"/>
        <pt x="35" y="222" on="1"/>
        <pt x="46" y="277" on="0"/>
        <pt x="135" y="347" on="0"/>
        <pt x="187" y="347" on="1"/>
        <pt x="331" y="347" on="1"/>
        <pt x="322" y="304" on="1"/>
        <pt x="272" y="304" on="1"/>
        <pt x="303" y="281" on="0"/>
        <pt x="294" y="229" on="1"/>
        <pt x="282" y="170" on="0"/>
        <pt x="202" y="101" on="0"/>
        <pt x="141" y="101" on="1"/>
        <pt x="119" y="101" on="0"/>
        <pt x="99" y="108" on="1"/>
        <pt x="93" y="103" on="0"/>
        <pt x="92" y="95" on="1"/>
        <pt x="89" y="80" on="0"/>
        <pt x="156" y="60" on="1"/>
        <pt x="254" y="31" on="0"/>
      </contour>
      <contour>
        <pt x="240" y="224" on="1"/>
        <pt x="246" y="254" on="0"/>
        <pt x="212" y="296" on="0"/>
        <pt x="182" y="296" on="1"/>
        <pt x="152" y="296" on="0"/>
        <pt x="100" y="254" on="0"/>
        <pt x="94" y="224" on="1"/>
        <pt x="88" y="194" on="0"/>
        <pt x="122" y="153" on="0"/>
        <pt x="152" y="153" on="1"/>
        <pt x="188" y="153" on="0"/>
        <pt x="234" y="194" on="0"/>
      </contour>
    </TTGlyph>
    <TTGlyph name="gbreve" xMin="-20" yMin="-150" xMax="1309" yMax="1443">
      <component glyphName="g" x="0" y="0" flags="0x204"/>
      <component glyphName="breve" x="0" y="0" flags="0x4"/>
    </TTGlyph>
    <TTGlyph name="germandbls" xMin="-25" yMin="-143" xMax="390" yMax="492">
      <contour>
        <pt x="355" y="109" on="1"/>
        <pt x="343" y="54" on="0"/>
        <pt x="261" y="-9" on="0"/>
        <pt x="203" y="-9" on="1"/>
        <pt x="177" y="-9" on="0"/>
        <pt x="132" y="4" on="0"/>
        <pt x="112" y="16" on="1"/>
        <pt x="143" y="70" on="1"/>
        <pt x="183" y="46" on="0"/>
        <pt x="215" y="46" on="1"/>
        <pt x="247" y="46" on="0"/>
        <pt x="290" y="79" on="0"/>
        <pt x="295" y="103" on="1"/>
        <pt x="300" y="125" on="0"/>
        <pt x="277" y="159" on="0"/>
        <pt x="247" y="192" on="0"/>
        <pt x="225" y="228" on="0"/>
        <pt x="230" y="252" on="1"/>
        <pt x="233" y="265" on="0"/>
        <pt x="259" y="296" on="0"/>
        <pt x="291" y="327" on="0"/>
        <pt x="317" y="356" on="0"/>
        <pt x="320" y="368" on="1"/>
        <pt x="334" y="435" on="0"/>
        <pt x="262" y="435" on="1"/>
        <pt x="178" y="435" on="0"/>
        <pt x="145" y="281" on="1"/>
        <pt x="77" y="-40" on="1"/>
        <pt x="71" y="-66" on="0"/>
        <pt x="47" y="-118" on="0"/>
        <pt x="28" y="-143" on="1"/>
        <pt x="-25" y="-128" on="1"/>
        <pt x="-6" y="-103" on="0"/>
        <pt x="13" y="-60" on="0"/>
        <pt x="17" y="-40" on="1"/>
        <pt x="89" y="297" on="1"/>
        <pt x="130" y="492" on="0"/>
        <pt x="281" y="492" on="1"/>
        <pt x="335" y="492" on="0"/>
        <pt x="390" y="427" on="0"/>
        <pt x="378" y="370" on="1"/>
        <pt x="373" y="347" on="0"/>
        <pt x="345" y="310" on="0"/>
        <pt x="316" y="280" on="0"/>
        <pt x="291" y="258" on="0"/>
        <pt x="289" y="249" on="1"/>
        <pt x="287" y="239" on="0"/>
        <pt x="312" y="212" on="0"/>
        <pt x="339" y="176" on="0"/>
        <pt x="360" y="134" on="0"/>
      </contour>
    </TTGlyph>
    <TTGlyph name="grave" xMin="90" yMin="375" xMax="201" yMax="490">
      <contour>
        <pt x="201" y="375" on="1"/>
        <pt x="153" y="375" on="1"/>
        <pt x="90" y="472" on="1"/>
        <pt x="151" y="490" on="1"/>
      </contour>
    </TTGlyph>
    <TTGlyph name="gravecomb" xMin="8728" yMin="2787" xMax="8839" yMax="2902">
      <contour>
        <pt x="8839" y="2787" on="1"/>
        <pt x="8791" y="2787" on="1"/>
        <pt x="8728" y="2884" on="1"/>
        <pt x="8789" y="2902" on="1"/>
      </contour>
    </TTGlyph>
    <TTGlyph name="greater" xMin="-10" yMin="-10" xMax="381" yMax="390">
      <contour>
        <pt x="373" y="170" on="1"/>
        <pt x="-10" y="-10" on="1"/>
        <pt x="3" y="53" on="1"/>
        <pt x="298" y="191" on="1"/>
        <pt x="61" y="327" on="1"/>
        <pt x="74" y="390" on="1"/>
        <pt x="381" y="211" on="1"/>
      </contour>
    </TTGlyph>
    <TTGlyph name="greaterequal" xMin="-9" yMin="15" xMax="371" yMax="396">
      <contour>
        <pt x="344" y="15" on="1"/>
        <pt x="-9" y="15" on="1"/>
        <pt x="1" y="67" on="1"/>
        <pt x="355" y="67" on="1"/>
      </contour>
      <contour>
        <pt x="359" y="212" on="1"/>
        <pt x="21" y="88" on="1"/>
        <pt x="34" y="149" on="1"/>
        <pt x="296" y="241" on="1"/>
        <pt x="73" y="334" on="1"/>
        <pt x="87" y="396" on="1"/>
        <pt x="371" y="272" on="1"/>
      </contour>
    </TTGlyph>
    <TTGlyph name="guillemotleft" xMin="24" yMin="47" xMax="347" yMax="315">
      <contour>
        <pt x="291" y="47" on="1"/>
        <pt x="231" y="47" on="1"/>
        <pt x="146" y="179" on="1"/>
        <pt x="288" y="314" on="1"/>
        <pt x="347" y="314" on="1"/>
        <pt x="206" y="180" on="1"/>
      </contour>
      <contour>
        <pt x="169" y="47" on="1"/>
        <pt x="108" y="47" on="1"/>
        <pt x="24" y="179" on="1"/>
        <pt x="163" y="315" on="1"/>
        <pt x="225" y="315" on="1"/>
        <pt x="83" y="179" on="1"/>
      </contour>
    </TTGlyph>
    <TTGlyph name="guillemotright" xMin="-4" yMin="47" xMax="320" yMax="315">
      <contour>
        <pt x="55" y="47" on="1"/>
        <pt x="-4" y="47" on="1"/>
        <pt x="138" y="180" on="1"/>
        <pt x="53" y="314" on="1"/>
        <pt x="112" y="314" on="1"/>
        <pt x="198" y="179" on="1"/>
      </contour>
      <contour>
        <pt x="178" y="47" on="1"/>
        <pt x="117" y="47" on="1"/>
        <pt x="261" y="179" on="1"/>
        <pt x="175" y="315" on="1"/>
        <pt x="237" y="315" on="1"/>
        <pt x="320" y="179" on="1"/>
      </contour>
    </TTGlyph>
    <TTGlyph name="guilsinglleft" xMin="24" yMin="47" xMax="225" yMax="315">
      <contour>
        <pt x="169" y="47" on="1"/>
        <pt x="109" y="47" on="1"/>
        <pt x="24" y="179" on="1"/>
        <pt x="164" y="315" on="1"/>
        <pt x="225" y="315" on="1"/>
        <pt x="84" y="179" on="1"/>
      </contour>
    </TTGlyph>
    <TTGlyph name="guilsinglright" xMin="-4" yMin="47" xMax="198" yMax="315">
      <contour>
        <pt x="55" y="47" on="1"/>
        <pt x="-4" y="47" on="1"/>
        <pt x="138" y="180" on="1"/>
        <pt x="53" y="315" on="1"/>
        <pt x="113" y="315" on="1"/>
        <pt x="198" y="179" on="1"/>
      </contour>
    </TTGlyph>
    <TTGlyph name="h" xMin="6" yMin="-15" xMax="374" yMax="504">
      <contour>
        <pt x="369" y="192" on="1"/>
        <pt x="346" y="79" on="1"/>
        <pt x="342" y="59" on="0"/>
        <pt x="342" y="49" on="1"/>
        <pt x="342" y="32" on="0"/>
        <pt x="353" y="7" on="1"/>
        <pt x="293" y="-15" on="1"/>
        <pt x="277" y="8" on="0"/>
        <pt x="277" y="38" on="1"/>
        <pt x="277" y="55" on="0"/>
        <pt x="284" y="88" on="1"/>
        <pt x="306" y="191" on="1"/>
        <pt x="309" y="205" on="0"/>
        <pt x="309" y="220" on="1"/>
        <pt x="309" y="254" on="0"/>
        <pt x="271" y="295" on="0"/>
        <pt x="237" y="295" on="1"/>
        <pt x="197" y="295" on="0"/>
        <pt x="119" y="236" on="0"/>
        <pt x="111" y="199" on="1"/>
        <pt x="69" y="0" on="1"/>
        <pt x="6" y="0" on="1"/>
        <pt x="113" y="504" on="1"/>
        <pt x="176" y="504" on="1"/>
        <pt x="133" y="303" on="1"/>
        <pt x="188" y="349" on="0"/>
        <pt x="258" y="349" on="1"/>
        <pt x="374" y="349" on="0"/>
        <pt x="374" y="238" on="1"/>
        <pt x="374" y="217" on="0"/>
      </contour>
    </TTGlyph>
    <TTGlyph name="hookabovecomb" xMin="8871" yMin="2784" xMax="9017" yMax="2950">
      <contour>
        <pt x="9010" y="2888" on="1"/>
        <pt x="9006" y="2871" on="0"/>
        <pt x="8983" y="2844" on="0"/>
        <pt x="8958" y="2820" on="0"/>
        <pt x="8936" y="2797" on="0"/>
        <pt x="8933" y="2784" on="1"/>
        <pt x="8888" y="2784" on="1"/>
        <pt x="8891" y="2800" on="0"/>
        <pt x="8915" y="2826" on="0"/>
        <pt x="8942" y="2849" on="0"/>
        <pt x="8964" y="2871" on="0"/>
        <pt x="8967" y="2883" on="1"/>
        <pt x="8971" y="2900" on="0"/>
        <pt x="8958" y="2911" on="0"/>
        <pt x="8945" y="2911" on="1"/>
        <pt x="8928" y="2911" on="0"/>
        <pt x="8897" y="2889" on="0"/>
        <pt x="8892" y="2883" on="1"/>
        <pt x="8871" y="2905" on="1"/>
        <pt x="8882" y="2921" on="0"/>
        <pt x="8926" y="2950" on="0"/>
        <pt x="8958" y="2950" on="1"/>
        <pt x="8987" y="2950" on="0"/>
        <pt x="9017" y="2920" on="0"/>
      </contour>
    </TTGlyph>
    <TTGlyph name="hungarumlaut" xMin="77" yMin="320" xMax="366" yMax="491">
      <contour>
        <pt x="245" y="320" on="1"/>
        <pt x="203" y="320" on="1"/>
        <pt x="302" y="491" on="1"/>
        <pt x="366" y="491" on="1"/>
      </contour>
      <contour>
        <pt x="119" y="320" on="1"/>
        <pt x="77" y="320" on="1"/>
        <pt x="176" y="491" on="1"/>
        <pt x="239" y="491" on="1"/>
      </contour>
    </TTGlyph>
    <TTGlyph name="hyphen" xMin="-7" yMin="157" xMax="213" yMax="211">
      <contour>
        <pt x="191" y="157" on="1"/>
        <pt x="-7" y="157" on="1"/>
        <pt x="14" y="211" on="1"/>
        <pt x="213" y="211" on="1"/>
      </contour>
    </TTGlyph>
    <TTGlyph name="i" xMin="6" yMin="0" xMax="181" yMax="488">
      <contour>
        <pt x="69" y="0" on="1"/>
        <pt x="6" y="0" on="1"/>
        <pt x="78" y="340" on="1"/>
        <pt x="141" y="340" on="1"/>
      </contour>
      <contour>
        <pt x="177" y="440" on="1"/>
        <pt x="173" y="420" on="0"/>
        <pt x="139" y="392" on="0"/>
        <pt x="119" y="392" on="1"/>
        <pt x="99" y="392" on="0"/>
        <pt x="77" y="420" on="0"/>
        <pt x="81" y="440" on="1"/>
        <pt x="85" y="460" on="0"/>
        <pt x="119" y="488" on="0"/>
        <pt x="139" y="488" on="1"/>
        <pt x="159" y="488" on="0"/>
        <pt x="181" y="460" on="0"/>
      </contour>
    </TTGlyph>
    <TTGlyph name="iacute" xMin="6" yMin="0" xMax="3113" yMax="1316">
      <component glyphName="dotlessi" x="0" y="0" flags="0x204"/>
      <component glyphName="acutecomb" x="222" y="0" flags="0x4"/>
    </TTGlyph>
    <TTGlyph name="icircumflex" xMin="6" yMin="0" xMax="1005" yMax="1180">
      <component glyphName="dotlessi" x="0" y="0" flags="0x204"/>
      <component glyphName="circumflex" x="-22" y="0" flags="0x4"/>
    </TTGlyph>
    <TTGlyph name="idieresis" xMin="6" yMin="0" xMax="618" yMax="1149">
      <component glyphName="dotlessi" x="0" y="0" flags="0x204"/>
      <component glyphName="dieresis" x="-84" y="0" flags="0x4"/>
    </TTGlyph>
    <TTGlyph name="igrave" xMin="6" yMin="0" xMax="2549" yMax="1180">
      <component glyphName="dotlessi" x="0" y="0" flags="0x204"/>
      <component glyphName="gravecomb" x="200" y="0" flags="0x4"/>
    </TTGlyph>
    <TTGlyph name="infinity" xMin="38" yMin="102" xMax="597" yMax="333">
      <contour>
        <pt x="281" y="220" on="1"/>
        <pt x="235" y="283" on="0"/>
        <pt x="190" y="283" on="1"/>
        <pt x="155" y="283" on="0"/>
        <pt x="111" y="246" on="0"/>
        <pt x="105" y="221" on="1"/>
        <pt x="91" y="153" on="0"/>
        <pt x="163" y="153" on="1"/>
        <pt x="218" y="153" on="0"/>
      </contour>
      <contour>
        <pt x="586" y="212" on="1"/>
        <pt x="576" y="166" on="0"/>
        <pt x="499" y="102" on="0"/>
        <pt x="435" y="102" on="1"/>
        <pt x="364" y="102" on="0"/>
        <pt x="307" y="181" on="1"/>
        <pt x="230" y="102" on="0"/>
        <pt x="151" y="102" on="1"/>
        <pt x="94" y="102" on="0"/>
        <pt x="38" y="167" on="0"/>
        <pt x="50" y="223" on="1"/>
        <pt x="60" y="269" on="0"/>
        <pt x="135" y="333" on="0"/>
        <pt x="199" y="333" on="1"/>
        <pt x="266" y="333" on="0"/>
        <pt x="328" y="255" on="1"/>
        <pt x="405" y="333" on="0"/>
        <pt x="483" y="333" on="1"/>
        <pt x="541" y="333" on="0"/>
        <pt x="597" y="268" on="0"/>
      </contour>
      <contour>
        <pt x="530" y="214" on="1"/>
        <pt x="544" y="282" on="0"/>
        <pt x="471" y="282" on="1"/>
        <pt x="413" y="282" on="0"/>
        <pt x="354" y="215" on="1"/>
        <pt x="402" y="152" on="0"/>
        <pt x="445" y="152" on="1"/>
        <pt x="480" y="152" on="0"/>
        <pt x="525" y="189" on="0"/>
      </contour>
    </TTGlyph>
    <TTGlyph name="integral" xMin="-118" yMin="-98" xMax="314" yMax="484">
      <contour>
        <pt x="53" y="-1" on="1"/>
        <pt x="17" y="-98" on="0"/>
        <pt x="-64" y="-98" on="1"/>
        <pt x="-85" y="-98" on="0"/>
        <pt x="-118" y="-91" on="1"/>
        <pt x="-96" y="-38" on="1"/>
        <pt x="-80" y="-42" on="0"/>
        <pt x="-68" y="-42" on="1"/>
        <pt x="-20" y="-42" on="0"/>
        <pt x="-3" y="4" on="1"/>
        <pt x="145" y="387" on="1"/>
        <pt x="181" y="484" on="0"/>
        <pt x="266" y="483" on="1"/>
        <pt x="290" y="483" on="0"/>
        <pt x="314" y="477" on="1"/>
        <pt x="293" y="426" on="1"/>
        <pt x="276" y="431" on="0"/>
        <pt x="260" y="431" on="1"/>
        <pt x="218" y="431" on="0"/>
        <pt x="200" y="383" on="1"/>
      </contour>
    </TTGlyph>
    <TTGlyph name="itilde" xMin="6" yMin="0" xMax="8671" yMax="3276">
      <component glyphName="dotlessi" x="0" y="0" flags="0x204"/>
      <component glyphName="tildecomb" x="211" y="0" flags="0x4"/>
    </TTGlyph>
    <TTGlyph name="j" xMin="-114" yMin="-141" xMax="190" yMax="488">
      <contour>
        <pt x="80" y="18" on="1"/>
        <pt x="47" y="-137" on="0"/>
        <pt x="-114" y="-141" on="1"/>
        <pt x="-111" y="-90" on="1"/>
        <pt x="-42" y="-85" on="0"/>
        <pt x="6" y="-35" on="0"/>
        <pt x="23" y="44" on="1"/>
        <pt x="86" y="340" on="1"/>
        <pt x="149" y="340" on="1"/>
      </contour>
      <contour>
        <pt x="186" y="440" on="1"/>
        <pt x="182" y="420" on="0"/>
        <pt x="148" y="392" on="0"/>
        <pt x="128" y="392" on="1"/>
        <pt x="108" y="392" on="0"/>
        <pt x="86" y="420" on="0"/>
        <pt x="90" y="440" on="1"/>
        <pt x="94" y="460" on="0"/>
        <pt x="128" y="488" on="0"/>
        <pt x="148" y="488" on="1"/>
        <pt x="168" y="488" on="0"/>
        <pt x="190" y="460" on="0"/>
      </contour>
    </TTGlyph>
    <TTGlyph name="k" xMin="6" yMin="-10" xMax="361" yMax="504">
      <contour>
        <pt x="315" y="6" on="1"/>
        <pt x="246" y="-10" on="1"/>
        <pt x="127" y="164" on="1"/>
        <pt x="99" y="144" on="1"/>
        <pt x="69" y="0" on="1"/>
        <pt x="6" y="0" on="1"/>
        <pt x="113" y="504" on="1"/>
        <pt x="176" y="504" on="1"/>
        <pt x="115" y="217" on="1"/>
        <pt x="294" y="347" on="1"/>
        <pt x="361" y="335" on="1"/>
        <pt x="179" y="200" on="1"/>
      </contour>
    </TTGlyph>
    <TTGlyph name="l" xMin="6" yMin="-8" xMax="176" yMax="504">
      <contour>
        <pt x="153" y="-8" on="1"/>
        <pt x="6" y="0" on="0"/>
        <pt x="43" y="175" on="1"/>
        <pt x="113" y="504" on="1"/>
        <pt x="176" y="504" on="1"/>
        <pt x="109" y="189" on="1"/>
        <pt x="92" y="112" on="0"/>
        <pt x="110" y="80" on="1"/>
        <pt x="125" y="53" on="0"/>
        <pt x="172" y="49" on="1"/>
      </contour>
    </TTGlyph>
    <TTGlyph name="lefttorightmark" xMin="-17" yMin="-250" xMax="166" yMax="286">
      <contour>
        <pt x="18" y="-250" on="1"/>
        <pt x="-17" y="-250" on="1"/>
        <pt x="-17" y="252" on="1"/>
        <pt x="115" y="252" on="1"/>
        <pt x="98" y="270" on="1"/>
        <pt x="114" y="286" on="1"/>
        <pt x="166" y="234" on="1"/>
        <pt x="114" y="182" on="1"/>
        <pt x="98" y="199" on="1"/>
        <pt x="115" y="217" on="1"/>
        <pt x="18" y="217" on="1"/>
      </contour>
    </TTGlyph>
    <TTGlyph name="less" xMin="28" yMin="-10" xMax="419" yMax="390">
      <contour>
        <pt x="334" y="-10" on="1"/>
        <pt x="28" y="170" on="1"/>
        <pt x="36" y="211" on="1"/>
        <pt x="419" y="390" on="1"/>
        <pt x="406" y="327" on="1"/>
        <pt x="112" y="190" on="1"/>
        <pt x="348" y="53" on="1"/>
      </contour>
    </TTGlyph>
    <TTGlyph name="lessequal" xMin="-9" yMin="15" xMax="398" yMax="396">
      <contour>
        <pt x="344" y="15" on="1"/>
        <pt x="-9" y="15" on="1"/>
        <pt x="1" y="67" on="1"/>
        <pt x="355" y="67" on="1"/>
      </contour>
      <contour>
        <pt x="332" y="88" on="1"/>
        <pt x="48" y="212" on="1"/>
        <pt x="60" y="272" on="1"/>
        <pt x="398" y="396" on="1"/>
        <pt x="384" y="334" on="1"/>
        <pt x="123" y="241" on="1"/>
        <pt x="345" y="149" on="1"/>
      </contour>
    </TTGlyph>
    <TTGlyph name="logicalnot" xMin="34" yMin="88" xMax="403" yMax="279">
      <contour>
        <pt x="403" y="88" on="1"/>
        <pt x="355" y="88" on="1"/>
        <pt x="355" y="234" on="1"/>
        <pt x="34" y="234" on="1"/>
        <pt x="34" y="279" on="1"/>
        <pt x="403" y="279" on="1"/>
      </contour>
    </TTGlyph>
    <TTGlyph name="lozenge" xMin="30" yMin="0" xMax="379" yMax="441">
      <contour>
        <pt x="379" y="220" on="1"/>
        <pt x="186" y="0" on="1"/>
        <pt x="131" y="0" on="1"/>
        <pt x="30" y="220" on="1"/>
        <pt x="224" y="441" on="1"/>
        <pt x="279" y="441" on="1"/>
      </contour>
      <contour>
        <pt x="319" y="220" on="1"/>
        <pt x="242" y="391" on="1"/>
        <pt x="90" y="220" on="1"/>
        <pt x="169" y="49" on="1"/>
      </contour>
    </TTGlyph>
    <TTGlyph name="lslash" xMin="7" yMin="-8" xMax="234" yMax="504">
      <contour>
        <pt x="173" y="49" on="1"/>
        <pt x="154" y="-8" on="1"/>
        <pt x="7" y="0" on="0"/>
        <pt x="44" y="175" on="1"/>
        <pt x="57" y="236" on="1"/>
        <pt x="11" y="224" on="1"/>
        <pt x="23" y="278" on="1"/>
        <pt x="68" y="290" on="1"/>
        <pt x="114" y="504" on="1"/>
        <pt x="177" y="504" on="1"/>
        <pt x="135" y="309" on="1"/>
        <pt x="234" y="337" on="1"/>
        <pt x="223" y="283" on="1"/>
        <pt x="124" y="255" on="1"/>
        <pt x="110" y="189" on="1"/>
        <pt x="93" y="112" on="0"/>
        <pt x="111" y="80" on="1"/>
        <pt x="126" y="53" on="0"/>
      </contour>
    </TTGlyph>
    <TTGlyph name="m" xMin="6" yMin="-15" xMax="597" yMax="350">
      <contour>
        <pt x="558" y="76" on="1"/>
        <pt x="554" y="51" on="0"/>
        <pt x="558" y="20" on="0"/>
        <pt x="566" y="7" on="1"/>
        <pt x="506" y="-15" on="1"/>
        <pt x="497" y="-2" on="0"/>
        <pt x="490" y="53" on="0"/>
        <pt x="497" y="88" on="1"/>
        <pt x="518" y="188" on="1"/>
        <pt x="528" y="234" on="0"/>
        <pt x="514" y="264" on="1"/>
        <pt x="497" y="297" on="0"/>
        <pt x="458" y="297" on="1"/>
        <pt x="425" y="297" on="0"/>
        <pt x="357" y="245" on="0"/>
        <pt x="350" y="215" on="1"/>
        <pt x="305" y="0" on="1"/>
        <pt x="242" y="0" on="1"/>
        <pt x="285" y="205" on="1"/>
        <pt x="305" y="297" on="0"/>
        <pt x="228" y="297" on="1"/>
        <pt x="194" y="297" on="0"/>
        <pt x="119" y="236" on="0"/>
        <pt x="112" y="203" on="1"/>
        <pt x="69" y="0" on="1"/>
        <pt x="6" y="0" on="1"/>
        <pt x="59" y="250" on="1"/>
        <pt x="64" y="275" on="0"/>
        <pt x="67" y="294" on="1"/>
        <pt x="70" y="315" on="0"/>
        <pt x="61" y="338" on="1"/>
        <pt x="116" y="349" on="1"/>
        <pt x="129" y="325" on="0"/>
        <pt x="124" y="292" on="1"/>
        <pt x="146" y="322" on="0"/>
        <pt x="216" y="350" on="0"/>
        <pt x="247" y="350" on="1"/>
        <pt x="313" y="350" on="0"/>
        <pt x="341" y="294" on="1"/>
        <pt x="406" y="350" on="0"/>
        <pt x="481" y="350" on="1"/>
        <pt x="540" y="350" on="0"/>
        <pt x="597" y="261" on="0"/>
        <pt x="582" y="189" on="1"/>
      </contour>
    </TTGlyph>
    <TTGlyph name="macron" xMin="68" yMin="528" xMax="455" yMax="581">
      <contour>
        <pt x="444" y="528" on="1"/>
        <pt x="68" y="528" on="1"/>
        <pt x="79" y="581" on="1"/>
        <pt x="455" y="581" on="1"/>
      </contour>
    </TTGlyph>
    <TTGlyph name="minus" xMin="52" yMin="157" xMax="353" yMax="211">
      <contour>
        <pt x="342" y="157" on="1"/>
        <pt x="52" y="157" on="1"/>
        <pt x="63" y="211" on="1"/>
        <pt x="353" y="211" on="1"/>
      </contour>
    </TTGlyph>
    <TTGlyph name="minute" xMin="52" yMin="371" xMax="168" yMax="476">
      <contour>
        <pt x="79" y="371" on="1"/>
        <pt x="52" y="371" on="1"/>
        <pt x="113" y="476" on="1"/>
        <pt x="168" y="476" on="1"/>
      </contour>
    </TTGlyph>
    <TTGlyph name="mu" xMin="-26" yMin="-141" xMax="393" yMax="342">
      <contour>
        <pt x="342" y="4" on="1"/>
        <pt x="279" y="-8" on="1"/>
        <pt x="276" y="3" on="0"/>
        <pt x="274" y="26" on="0"/>
        <pt x="274" y="40" on="1"/>
        <pt x="241" y="18" on="0"/>
        <pt x="177" y="-9" on="0"/>
        <pt x="142" y="-9" on="1"/>
        <pt x="119" y="-9" on="0"/>
        <pt x="81" y="7" on="0"/>
        <pt x="71" y="24" on="1"/>
        <pt x="36" y="-141" on="1"/>
        <pt x="-26" y="-141" on="1"/>
        <pt x="75" y="342" on="1"/>
        <pt x="138" y="342" on="1"/>
        <pt x="100" y="160" on="1"/>
        <pt x="75" y="47" on="0"/>
        <pt x="161" y="47" on="1"/>
        <pt x="198" y="47" on="0"/>
        <pt x="278" y="98" on="0"/>
        <pt x="287" y="139" on="1"/>
        <pt x="330" y="342" on="1"/>
        <pt x="393" y="342" on="1"/>
        <pt x="340" y="91" on="1"/>
        <pt x="336" y="73" on="0"/>
        <pt x="338" y="29" on="0"/>
      </contour>
    </TTGlyph>
    <TTGlyph name="multiply" xMin="-9" yMin="-5" xMax="416" yMax="372">
      <contour>
        <pt x="353" y="34" on="1"/>
        <pt x="304" y="-5" on="1"/>
        <pt x="194" y="143" on="1"/>
        <pt x="152" y="108" on="0"/>
        <pt x="63" y="30" on="0"/>
        <pt x="21" y="-5" on="1"/>
        <pt x="-9" y="34" on="1"/>
        <pt x="163" y="182" on="1"/>
        <pt x="136" y="219" on="0"/>
        <pt x="81" y="296" on="0"/>
        <pt x="53" y="333" on="1"/>
        <pt x="102" y="372" on="1"/>
        <pt x="212" y="224" on="1"/>
        <pt x="254" y="260" on="0"/>
        <pt x="344" y="337" on="0"/>
        <pt x="385" y="372" on="1"/>
        <pt x="416" y="333" on="1"/>
        <pt x="241" y="183" on="1"/>
      </contour>
    </TTGlyph>
    <TTGlyph name="n" xMin="6" yMin="-15" xMax="385" yMax="350">
      <contour>
        <pt x="345" y="76" on="1"/>
        <pt x="342" y="51" on="0"/>
        <pt x="346" y="20" on="0"/>
        <pt x="354" y="7" on="1"/>
        <pt x="294" y="-15" on="1"/>
        <pt x="285" y="-2" on="0"/>
        <pt x="278" y="53" on="0"/>
        <pt x="285" y="88" on="1"/>
        <pt x="307" y="193" on="1"/>
        <pt x="329" y="297" on="0"/>
        <pt x="234" y="297" on="1"/>
        <pt x="199" y="297" on="0"/>
        <pt x="118" y="234" on="0"/>
        <pt x="112" y="203" on="1"/>
        <pt x="69" y="0" on="1"/>
        <pt x="6" y="0" on="1"/>
        <pt x="59" y="250" on="1"/>
        <pt x="64" y="275" on="0"/>
        <pt x="67" y="294" on="1"/>
        <pt x="70" y="315" on="0"/>
        <pt x="61" y="338" on="1"/>
        <pt x="116" y="349" on="1"/>
        <pt x="129" y="325" on="0"/>
        <pt x="124" y="292" on="1"/>
        <pt x="186" y="350" on="0"/>
        <pt x="254" y="350" on="1"/>
        <pt x="322" y="350" on="0"/>
        <pt x="385" y="266" on="0"/>
        <pt x="370" y="193" on="1"/>
      </contour>
    </TTGlyph>
    <TTGlyph name="nine" xMin="19" yMin="-16" xMax="377" yMax="478">
      <contour>
        <pt x="360" y="299" on="1"/>
        <pt x="336" y="184" on="0"/>
        <pt x="146" y="8" on="0"/>
        <pt x="19" y="-16" on="1"/>
        <pt x="24" y="34" on="1"/>
        <pt x="88" y="50" on="0"/>
        <pt x="230" y="146" on="0"/>
        <pt x="264" y="196" on="1"/>
        <pt x="228" y="164" on="0"/>
        <pt x="168" y="164" on="1"/>
        <pt x="108" y="164" on="0"/>
        <pt x="45" y="254" on="0"/>
        <pt x="60" y="320" on="1"/>
        <pt x="74" y="387" on="0"/>
        <pt x="174" y="478" on="0"/>
        <pt x="237" y="478" on="1"/>
        <pt x="307" y="478" on="0"/>
        <pt x="377" y="380" on="0"/>
      </contour>
      <contour>
        <pt x="297" y="320" on="1"/>
        <pt x="305" y="362" on="0"/>
        <pt x="265" y="422" on="0"/>
        <pt x="227" y="422" on="1"/>
        <pt x="191" y="422" on="0"/>
        <pt x="126" y="360" on="0"/>
        <pt x="118" y="320" on="1"/>
        <pt x="109" y="280" on="0"/>
        <pt x="148" y="218" on="0"/>
        <pt x="184" y="218" on="1"/>
        <pt x="222" y="218" on="0"/>
        <pt x="287" y="277" on="0"/>
      </contour>
    </TTGlyph>
    <TTGlyph name="notequal" xMin="21" yMin="0" xMax="385" yMax="387">
      <contour>
        <pt x="347" y="97" on="1"/>
        <pt x="167" y="97" on="1"/>
        <pt x="150" y="74" on="0"/>
        <pt x="114" y="23" on="0"/>
        <pt x="98" y="0" on="1"/>
        <pt x="33" y="0" on="1"/>
        <pt x="101" y="97" on="1"/>
        <pt x="21" y="97" on="1"/>
        <pt x="32" y="150" on="1"/>
        <pt x="138" y="150" on="1"/>
        <pt x="154" y="170" on="0"/>
        <pt x="177" y="201" on="0"/>
        <pt x="193" y="223" on="1"/>
        <pt x="48" y="223" on="1"/>
        <pt x="59" y="276" on="1"/>
        <pt x="230" y="276" on="1"/>
        <pt x="312" y="387" on="1"/>
        <pt x="379" y="387" on="1"/>
        <pt x="298" y="276" on="1"/>
        <pt x="385" y="276" on="1"/>
        <pt x="374" y="223" on="1"/>
        <pt x="259" y="223" on="1"/>
        <pt x="246" y="204" on="0"/>
        <pt x="220" y="171" on="0"/>
        <pt x="205" y="150" on="1"/>
        <pt x="358" y="150" on="1"/>
      </contour>
    </TTGlyph>
    <TTGlyph name="ntilde" xMin="6" yMin="-15" xMax="1900" yMax="864">
      <component glyphName="n" x="0" y="0" flags="0x204"/>
      <component glyphName="tildecomb" x="341" y="0" flags="0x4"/>
    </TTGlyph>
    <TTGlyph name="numbersign" xMin="19" yMin="0" xMax="455" yMax="475">
      <contour>
        <pt x="278" y="0" on="1"/>
        <pt x="219" y="0" on="1"/>
        <pt x="269" y="142" on="1"/>
        <pt x="140" y="142" on="1"/>
        <pt x="93" y="0" on="1"/>
        <pt x="34" y="0" on="1"/>
        <pt x="81" y="142" on="1"/>
        <pt x="19" y="142" on="1"/>
        <pt x="30" y="195" on="1"/>
        <pt x="99" y="195" on="1"/>
        <pt x="130" y="284" on="1"/>
        <pt x="62" y="284" on="1"/>
        <pt x="73" y="338" on="1"/>
        <pt x="147" y="338" on="1"/>
        <pt x="195" y="475" on="1"/>
        <pt x="252" y="475" on="1"/>
        <pt x="206" y="338" on="1"/>
        <pt x="333" y="338" on="1"/>
        <pt x="379" y="475" on="1"/>
        <pt x="438" y="475" on="1"/>
        <pt x="392" y="338" on="1"/>
        <pt x="455" y="338" on="1"/>
        <pt x="444" y="284" on="1"/>
        <pt x="373" y="284" on="1"/>
        <pt x="343" y="195" on="1"/>
        <pt x="410" y="195" on="1"/>
        <pt x="399" y="142" on="1"/>
        <pt x="327" y="142" on="1"/>
      </contour>
      <contour>
        <pt x="285" y="195" on="1"/>
        <pt x="316" y="284" on="1"/>
        <pt x="188" y="284" on="1"/>
        <pt x="158" y="195" on="1"/>
      </contour>
    </TTGlyph>
    <TTGlyph name="o" xMin="2" yMin="-8" xMax="394" yMax="353">
      <contour>
        <pt x="378" y="172" on="1"/>
        <pt x="362" y="96" on="0"/>
        <pt x="238" y="-8" on="0"/>
        <pt x="160" y="-8" on="1"/>
        <pt x="82" y="-8" on="0"/>
        <pt x="2" y="96" on="0"/>
        <pt x="18" y="172" on="1"/>
        <pt x="34" y="248" on="0"/>
        <pt x="159" y="353" on="0"/>
        <pt x="237" y="353" on="1"/>
        <pt x="315" y="353" on="0"/>
        <pt x="394" y="248" on="0"/>
      </contour>
      <contour>
        <pt x="316" y="172" on="1"/>
        <pt x="328" y="226" on="0"/>
        <pt x="277" y="299" on="0"/>
        <pt x="225" y="299" on="1"/>
        <pt x="173" y="299" on="0"/>
        <pt x="92" y="226" on="0"/>
        <pt x="80" y="172" on="1"/>
        <pt x="69" y="118" on="0"/>
        <pt x="119" y="45" on="0"/>
        <pt x="171" y="45" on="1"/>
        <pt x="223" y="45" on="0"/>
        <pt x="305" y="118" on="0"/>
      </contour>
    </TTGlyph>
    <TTGlyph name="oacute" xMin="2" yMin="-8" xMax="3460" yMax="1316">
      <component glyphName="o" x="0" y="0" flags="0x204"/>
      <component glyphName="acutecomb" x="347" y="0" flags="0x4"/>
    </TTGlyph>
    <TTGlyph name="ocircumflex" xMin="2" yMin="-8" xMax="1102" yMax="1180">
      <component glyphName="o" x="0" y="0" flags="0x204"/>
      <component glyphName="circumflex" x="97" y="0" flags="0x4"/>
    </TTGlyph>
    <TTGlyph name="odieresis" xMin="2" yMin="-8" xMax="653" yMax="1149">
      <component glyphName="o" x="0" y="0" flags="0x204"/>
      <component glyphName="dieresis" x="35" y="0" flags="0x4"/>
    </TTGlyph>
    <TTGlyph name="oe" xMin="2" yMin="-9" xMax="691" yMax="353">
      <contour>
        <pt x="613" y="73" on="1"/>
        <pt x="608" y="18" on="1"/>
        <pt x="530" y="-9" on="0"/>
        <pt x="464" y="-9" on="1"/>
        <pt x="363" y="-9" on="0"/>
        <pt x="322" y="65" on="1"/>
        <pt x="254" y="-8" on="0"/>
        <pt x="160" y="-8" on="1"/>
        <pt x="82" y="-8" on="0"/>
        <pt x="2" y="96" on="0"/>
        <pt x="18" y="172" on="1"/>
        <pt x="34" y="248" on="0"/>
        <pt x="159" y="353" on="0"/>
        <pt x="237" y="353" on="1"/>
        <pt x="334" y="353" on="0"/>
        <pt x="368" y="276" on="1"/>
        <pt x="445" y="353" on="0"/>
        <pt x="537" y="353" on="1"/>
        <pt x="691" y="353" on="0"/>
        <pt x="653" y="160" on="1"/>
        <pt x="376" y="160" on="1"/>
        <pt x="368" y="107" on="0"/>
        <pt x="424" y="47" on="0"/>
        <pt x="479" y="47" on="1"/>
        <pt x="534" y="47" on="0"/>
      </contour>
      <contour>
        <pt x="316" y="172" on="1"/>
        <pt x="328" y="226" on="0"/>
        <pt x="277" y="299" on="0"/>
        <pt x="225" y="299" on="1"/>
        <pt x="173" y="299" on="0"/>
        <pt x="92" y="226" on="0"/>
        <pt x="80" y="172" on="1"/>
        <pt x="69" y="118" on="0"/>
        <pt x="119" y="45" on="0"/>
        <pt x="171" y="45" on="1"/>
        <pt x="223" y="45" on="0"/>
        <pt x="305" y="118" on="0"/>
      </contour>
      <contour>
        <pt x="391" y="213" on="1"/>
        <pt x="602" y="213" on="1"/>
        <pt x="605" y="253" on="0"/>
        <pt x="560" y="301" on="0"/>
        <pt x="519" y="301" on="1"/>
        <pt x="479" y="301" on="0"/>
        <pt x="406" y="252" on="0"/>
      </contour>
    </TTGlyph>
    <TTGlyph name="ogonek" xMin="-13" yMin="-153" xMax="141" yMax="19">
      <contour>
        <pt x="129" y="-136" on="1"/>
        <pt x="84" y="-153" on="0"/>
        <pt x="52" y="-153" on="1"/>
        <pt x="13" y="-153" on="0"/>
        <pt x="-13" y="-107" on="0"/>
        <pt x="-7" y="-76" on="1"/>
        <pt x="-3" y="-57" on="0"/>
        <pt x="18" y="-9" on="0"/>
        <pt x="32" y="19" on="1"/>
        <pt x="91" y="19" on="1"/>
        <pt x="58" y="-34" on="0"/>
        <pt x="52" y="-62" on="1"/>
        <pt x="46" y="-94" on="0"/>
        <pt x="73" y="-97" on="1"/>
        <pt x="84" y="-97" on="0"/>
        <pt x="121" y="-86" on="0"/>
        <pt x="141" y="-78" on="1"/>
      </contour>
    </TTGlyph>
    <TTGlyph name="ograve" xMin="2" yMin="-8" xMax="2874" yMax="1180">
      <component glyphName="o" x="0" y="0" flags="0x204"/>
      <component glyphName="gravecomb" x="325" y="0" flags="0x4"/>
    </TTGlyph>
    <TTGlyph name="ohorn" xMin="2" yMin="-8" xMax="436" yMax="379">
      <contour>
        <pt x="378" y="172" on="1"/>
        <pt x="362" y="96" on="0"/>
        <pt x="238" y="-8" on="0"/>
        <pt x="160" y="-8" on="1"/>
        <pt x="82" y="-8" on="0"/>
        <pt x="2" y="96" on="0"/>
        <pt x="18" y="172" on="1"/>
        <pt x="34" y="248" on="0"/>
        <pt x="159" y="353" on="0"/>
        <pt x="237" y="353" on="1"/>
        <pt x="307" y="353" on="0"/>
        <pt x="347" y="308" on="1"/>
        <pt x="374" y="341" on="0"/>
        <pt x="382" y="379" on="1"/>
        <pt x="436" y="379" on="1"/>
        <pt x="424" y="324" on="0"/>
        <pt x="371" y="270" on="1"/>
        <pt x="390" y="226" on="0"/>
      </contour>
      <contour>
        <pt x="316" y="172" on="1"/>
        <pt x="328" y="226" on="0"/>
        <pt x="277" y="299" on="0"/>
        <pt x="225" y="299" on="1"/>
        <pt x="173" y="299" on="0"/>
        <pt x="92" y="226" on="0"/>
        <pt x="80" y="172" on="1"/>
        <pt x="69" y="118" on="0"/>
        <pt x="119" y="45" on="0"/>
        <pt x="171" y="45" on="1"/>
        <pt x="223" y="45" on="0"/>
        <pt x="305" y="118" on="0"/>
      </contour>
    </TTGlyph>
    <TTGlyph name="one" xMin="52" yMin="0" xMax="291" yMax="478">
      <contour>
        <pt x="263" y="0" on="1"/>
        <pt x="52" y="0" on="1"/>
        <pt x="62" y="51" on="1"/>
        <pt x="136" y="51" on="1"/>
        <pt x="207" y="383" on="1"/>
        <pt x="133" y="330" on="1"/>
        <pt x="104" y="371" on="1"/>
        <pt x="254" y="478" on="1"/>
        <pt x="291" y="478" on="0"/>
        <pt x="281" y="430" on="1"/>
        <pt x="200" y="51" on="1"/>
        <pt x="273" y="51" on="1"/>
      </contour>
    </TTGlyph>
    <TTGlyph name="oneeighth" xMin="39" yMin="-9" xMax="510" yMax="468">
      <contour>
        <pt x="96" y="-9" on="1"/>
        <pt x="47" y="-9" on="1"/>
        <pt x="433" y="468" on="1"/>
        <pt x="482" y="468" on="1"/>
      </contour>
      <contour>
        <pt x="434" y="79" on="1"/>
        <pt x="438" y="96" on="0"/>
        <pt x="422" y="128" on="0"/>
        <pt x="396" y="130" on="1"/>
        <pt x="370" y="128" on="0"/>
        <pt x="339" y="96" on="0"/>
        <pt x="335" y="79" on="1"/>
        <pt x="331" y="59" on="0"/>
        <pt x="354" y="37" on="0"/>
        <pt x="376" y="37" on="1"/>
        <pt x="399" y="37" on="0"/>
        <pt x="430" y="59" on="0"/>
      </contour>
      <contour>
        <pt x="454" y="209" on="1"/>
        <pt x="457" y="223" on="0"/>
        <pt x="440" y="242" on="0"/>
        <pt x="420" y="242" on="1"/>
        <pt x="400" y="242" on="0"/>
        <pt x="375" y="223" on="0"/>
        <pt x="372" y="209" on="1"/>
        <pt x="369" y="197" on="0"/>
        <pt x="388" y="179" on="0"/>
        <pt x="404" y="174" on="1"/>
        <pt x="426" y="180" on="0"/>
        <pt x="452" y="198" on="0"/>
      </contour>
      <contour>
        <pt x="484" y="80" on="1"/>
        <pt x="475" y="39" on="0"/>
        <pt x="412" y="-8" on="0"/>
        <pt x="366" y="-8" on="1"/>
        <pt x="321" y="-8" on="0"/>
        <pt x="279" y="39" on="0"/>
        <pt x="288" y="80" on="1"/>
        <pt x="292" y="102" on="0"/>
        <pt x="322" y="142" on="0"/>
        <pt x="341" y="153" on="1"/>
        <pt x="330" y="163" on="0"/>
        <pt x="319" y="191" on="0"/>
        <pt x="322" y="207" on="1"/>
        <pt x="330" y="242" on="0"/>
        <pt x="391" y="287" on="0"/>
        <pt x="430" y="287" on="1"/>
        <pt x="468" y="287" on="0"/>
        <pt x="510" y="242" on="0"/>
        <pt x="502" y="207" on="1"/>
        <pt x="496" y="175" on="0"/>
        <pt x="461" y="153" on="1"/>
        <pt x="477" y="142" on="0"/>
        <pt x="488" y="103" on="0"/>
      </contour>
      <contour>
        <pt x="173" y="176" on="1"/>
        <pt x="39" y="176" on="1"/>
        <pt x="47" y="215" on="1"/>
        <pt x="90" y="215" on="1"/>
        <pt x="127" y="389" on="1"/>
        <pt x="82" y="356" on="1"/>
        <pt x="62" y="392" on="1"/>
        <pt x="162" y="466" on="1"/>
        <pt x="192" y="464" on="0"/>
        <pt x="185" y="431" on="1"/>
        <pt x="139" y="215" on="1"/>
        <pt x="181" y="215" on="1"/>
      </contour>
    </TTGlyph>
    <TTGlyph name="onehalf" xMin="39" yMin="-9" xMax="531" yMax="474">
      <contour>
        <pt x="476" y="0" on="1"/>
        <pt x="286" y="0" on="1"/>
        <pt x="297" y="38" on="0"/>
        <pt x="354" y="96" on="0"/>
        <pt x="384" y="119" on="1"/>
        <pt x="398" y="131" on="0"/>
        <pt x="428" y="154" on="0"/>
        <pt x="453" y="178" on="0"/>
        <pt x="471" y="201" on="0"/>
        <pt x="474" y="212" on="1"/>
        <pt x="477" y="226" on="0"/>
        <pt x="464" y="246" on="0"/>
        <pt x="447" y="246" on="1"/>
        <pt x="406" y="246" on="0"/>
        <pt x="387" y="192" on="1"/>
        <pt x="344" y="200" on="1"/>
        <pt x="358" y="245" on="0"/>
        <pt x="417" y="292" on="0"/>
        <pt x="454" y="292" on="1"/>
        <pt x="492" y="292" on="0"/>
        <pt x="531" y="250" on="0"/>
        <pt x="523" y="212" on="1"/>
        <pt x="517" y="187" on="0"/>
        <pt x="479" y="143" on="0"/>
        <pt x="431" y="102" on="0"/>
        <pt x="383" y="64" on="0"/>
        <pt x="367" y="46" on="1"/>
        <pt x="491" y="46" on="1"/>
      </contour>
      <contour>
        <pt x="112" y="-9" on="1"/>
        <pt x="62" y="-9" on="1"/>
        <pt x="451" y="474" on="1"/>
        <pt x="501" y="474" on="1"/>
      </contour>
      <contour>
        <pt x="173" y="176" on="1"/>
        <pt x="39" y="176" on="1"/>
        <pt x="47" y="215" on="1"/>
        <pt x="90" y="215" on="1"/>
        <pt x="127" y="389" on="1"/>
        <pt x="82" y="356" on="1"/>
        <pt x="62" y="392" on="1"/>
        <pt x="162" y="466" on="1"/>
        <pt x="192" y="464" on="0"/>
        <pt x="185" y="431" on="1"/>
        <pt x="139" y="215" on="1"/>
        <pt x="181" y="215" on="1"/>
      </contour>
    </TTGlyph>
    <TTGlyph name="onequarter" xMin="39" yMin="-9" xMax="501" yMax="474">
      <contour>
        <pt x="390" y="108" on="1"/>
        <pt x="416" y="226" on="1"/>
        <pt x="391" y="206" on="0"/>
        <pt x="344" y="139" on="0"/>
        <pt x="333" y="108" on="1"/>
      </contour>
      <contour>
        <pt x="420" y="0" on="1"/>
        <pt x="368" y="0" on="1"/>
        <pt x="380" y="60" on="1"/>
        <pt x="271" y="60" on="1"/>
        <pt x="278" y="92" on="0"/>
        <pt x="315" y="172" on="0"/>
        <pt x="370" y="243" on="0"/>
        <pt x="441" y="292" on="0"/>
        <pt x="482" y="293" on="1"/>
        <pt x="442" y="108" on="1"/>
        <pt x="484" y="108" on="1"/>
        <pt x="472" y="60" on="1"/>
        <pt x="432" y="60" on="1"/>
      </contour>
      <contour>
        <pt x="173" y="176" on="1"/>
        <pt x="39" y="176" on="1"/>
        <pt x="47" y="215" on="1"/>
        <pt x="90" y="215" on="1"/>
        <pt x="127" y="389" on="1"/>
        <pt x="82" y="356" on="1"/>
        <pt x="62" y="392" on="1"/>
        <pt x="162" y="466" on="1"/>
        <pt x="192" y="464" on="0"/>
        <pt x="185" y="431" on="1"/>
        <pt x="139" y="215" on="1"/>
        <pt x="181" y="215" on="1"/>
      </contour>
      <contour>
        <pt x="112" y="-9" on="1"/>
        <pt x="62" y="-9" on="1"/>
        <pt x="451" y="474" on="1"/>
        <pt x="501" y="474" on="1"/>
      </contour>
    </TTGlyph>
    <TTGlyph name="onesuperior" xMin="73" yMin="195" xMax="222" yMax="484">
      <contour>
        <pt x="207" y="195" on="1"/>
        <pt x="73" y="195" on="1"/>
        <pt x="81" y="234" on="1"/>
        <pt x="124" y="234" on="1"/>
        <pt x="162" y="414" on="1"/>
        <pt x="114" y="376" on="1"/>
        <pt x="97" y="410" on="1"/>
        <pt x="195" y="484" on="1"/>
        <pt x="210" y="484" on="0"/>
        <pt x="222" y="465" on="0"/>
        <pt x="219" y="450" on="1"/>
        <pt x="173" y="234" on="1"/>
        <pt x="215" y="234" on="1"/>
      </contour>
    </TTGlyph>
    <TTGlyph name="onethird" xMin="39" yMin="-9" xMax="503" yMax="468">
      <contour>
        <pt x="96" y="-9" on="1"/>
        <pt x="47" y="-9" on="1"/>
        <pt x="433" y="468" on="1"/>
        <pt x="482" y="468" on="1"/>
      </contour>
      <contour>
        <pt x="173" y="176" on="1"/>
        <pt x="39" y="176" on="1"/>
        <pt x="47" y="215" on="1"/>
        <pt x="90" y="215" on="1"/>
        <pt x="127" y="389" on="1"/>
        <pt x="82" y="356" on="1"/>
        <pt x="62" y="392" on="1"/>
        <pt x="162" y="466" on="1"/>
        <pt x="192" y="464" on="0"/>
        <pt x="185" y="431" on="1"/>
        <pt x="139" y="215" on="1"/>
        <pt x="181" y="215" on="1"/>
      </contour>
      <contour>
        <pt x="492" y="99" on="1"/>
        <pt x="486" y="73" on="0"/>
        <pt x="458" y="33" on="0"/>
        <pt x="420" y="6" on="0"/>
        <pt x="374" y="-8" on="0"/>
        <pt x="352" y="-8" on="1"/>
        <pt x="311" y="-8" on="0"/>
        <pt x="282" y="17" on="1"/>
        <pt x="311" y="60" on="1"/>
        <pt x="323" y="49" on="0"/>
        <pt x="349" y="38" on="0"/>
        <pt x="363" y="38" on="1"/>
        <pt x="395" y="38" on="0"/>
        <pt x="439" y="72" on="0"/>
        <pt x="444" y="98" on="1"/>
        <pt x="452" y="133" on="0"/>
        <pt x="419" y="133" on="1"/>
        <pt x="394" y="133" on="0"/>
        <pt x="369" y="115" on="1"/>
        <pt x="359" y="145" on="1"/>
        <pt x="408" y="168" on="0"/>
        <pt x="447" y="204" on="0"/>
        <pt x="451" y="224" on="1"/>
        <pt x="453" y="232" on="0"/>
        <pt x="443" y="243" on="0"/>
        <pt x="430" y="243" on="1"/>
        <pt x="390" y="243" on="0"/>
        <pt x="363" y="194" on="1"/>
        <pt x="330" y="213" on="1"/>
        <pt x="375" y="285" on="0"/>
        <pt x="442" y="285" on="1"/>
        <pt x="477" y="285" on="0"/>
        <pt x="503" y="253" on="0"/>
        <pt x="499" y="231" on="1"/>
        <pt x="491" y="197" on="0"/>
        <pt x="454" y="169" on="1"/>
        <pt x="481" y="165" on="0"/>
        <pt x="497" y="127" on="0"/>
      </contour>
    </TTGlyph>
    <TTGlyph name="ordfeminine" xMin="52" yMin="241" xMax="294" yMax="478">
      <contour>
        <pt x="294" y="443" on="1"/>
        <pt x="261" y="294" on="1"/>
        <pt x="259" y="285" on="0"/>
        <pt x="259" y="274" on="1"/>
        <pt x="259" y="258" on="0"/>
        <pt x="264" y="249" on="1"/>
        <pt x="230" y="241" on="1"/>
        <pt x="226" y="252" on="0"/>
        <pt x="226" y="265" on="1"/>
        <pt x="226" y="275" on="0"/>
        <pt x="227" y="282" on="1"/>
        <pt x="184" y="241" on="0"/>
        <pt x="136" y="241" on="1"/>
        <pt x="97" y="241" on="0"/>
        <pt x="52" y="287" on="0"/>
        <pt x="52" y="324" on="1"/>
        <pt x="52" y="383" on="0"/>
        <pt x="130" y="478" on="0"/>
        <pt x="189" y="478" on="1"/>
        <pt x="251" y="478" on="0"/>
      </contour>
      <contour>
        <pt x="229" y="345" on="1"/>
        <pt x="246" y="424" on="1"/>
        <pt x="219" y="441" on="0"/>
        <pt x="190" y="441" on="1"/>
        <pt x="149" y="441" on="0"/>
        <pt x="97" y="372" on="0"/>
        <pt x="97" y="331" on="1"/>
        <pt x="97" y="278" on="0"/>
        <pt x="148" y="278" on="1"/>
        <pt x="175" y="278" on="0"/>
        <pt x="222" y="319" on="0"/>
      </contour>
    </TTGlyph>
    <TTGlyph name="ordmasculine" xMin="39" yMin="232" xMax="317" yMax="487">
      <contour>
        <pt x="306" y="359" on="1"/>
        <pt x="294" y="305" on="0"/>
        <pt x="204" y="232" on="0"/>
        <pt x="151" y="232" on="1"/>
        <pt x="97" y="232" on="0"/>
        <pt x="39" y="305" on="0"/>
        <pt x="51" y="359" on="1"/>
        <pt x="62" y="412" on="0"/>
        <pt x="151" y="487" on="0"/>
        <pt x="205" y="487" on="1"/>
        <pt x="258" y="487" on="0"/>
        <pt x="317" y="412" on="0"/>
      </contour>
      <contour>
        <pt x="262" y="359" on="1"/>
        <pt x="269" y="393" on="0"/>
        <pt x="230" y="443" on="0"/>
        <pt x="196" y="443" on="1"/>
        <pt x="162" y="443" on="0"/>
        <pt x="102" y="393" on="0"/>
        <pt x="95" y="359" on="1"/>
        <pt x="88" y="325" on="0"/>
        <pt x="126" y="276" on="0"/>
        <pt x="160" y="276" on="1"/>
        <pt x="194" y="276" on="0"/>
        <pt x="255" y="325" on="0"/>
      </contour>
    </TTGlyph>
    <TTGlyph name="oslash" xMin="2" yMin="-28" xMax="394" yMax="378">
      <contour>
        <pt x="378" y="172" on="1"/>
        <pt x="362" y="96" on="0"/>
        <pt x="238" y="-8" on="0"/>
        <pt x="160" y="-8" on="1"/>
        <pt x="127" y="-8" on="0"/>
        <pt x="101" y="1" on="1"/>
        <pt x="80" y="-28" on="1"/>
        <pt x="16" y="-28" on="1"/>
        <pt x="56" y="28" on="1"/>
        <pt x="48" y="35" on="0"/>
        <pt x="42" y="44" on="1"/>
        <pt x="2" y="96" on="0"/>
        <pt x="18" y="172" on="1"/>
        <pt x="34" y="248" on="0"/>
        <pt x="159" y="353" on="0"/>
        <pt x="237" y="353" on="1"/>
        <pt x="265" y="353" on="0"/>
        <pt x="288" y="346" on="1"/>
        <pt x="312" y="378" on="1"/>
        <pt x="376" y="378" on="1"/>
        <pt x="335" y="321" on="1"/>
        <pt x="345" y="312" on="0"/>
        <pt x="354" y="300" on="1"/>
        <pt x="394" y="248" on="0"/>
      </contour>
      <contour>
        <pt x="316" y="172" on="1"/>
        <pt x="328" y="226" on="0"/>
        <pt x="302" y="262" on="1"/>
        <pt x="299" y="266" on="0"/>
        <pt x="297" y="269" on="1"/>
        <pt x="136" y="50" on="1"/>
        <pt x="152" y="45" on="0"/>
        <pt x="171" y="45" on="1"/>
        <pt x="223" y="45" on="0"/>
        <pt x="305" y="118" on="0"/>
      </contour>
      <contour>
        <pt x="251" y="296" on="1"/>
        <pt x="239" y="299" on="0"/>
        <pt x="225" y="299" on="1"/>
        <pt x="173" y="299" on="0"/>
        <pt x="92" y="226" on="0"/>
        <pt x="80" y="172" on="1"/>
        <pt x="69" y="118" on="0"/>
        <pt x="94" y="81" on="1"/>
        <pt x="95" y="80" on="1"/>
      </contour>
    </TTGlyph>
    <TTGlyph name="otilde" xMin="2" yMin="-8" xMax="2236" yMax="864">
      <component glyphName="o" x="0" y="0" flags="0x204"/>
      <component glyphName="tildecomb" x="336" y="0" flags="0x4"/>
    </TTGlyph>
    <TTGlyph name="p" xMin="-24" yMin="-143" xMax="414" yMax="353">
      <contour>
        <pt x="337" y="178" on="1"/>
        <pt x="348" y="230" on="0"/>
        <pt x="298" y="301" on="0"/>
        <pt x="248" y="301" on="1"/>
        <pt x="208" y="301" on="0"/>
        <pt x="119" y="237" on="0"/>
        <pt x="111" y="198" on="1"/>
        <pt x="99" y="142" on="1"/>
        <pt x="90" y="103" on="0"/>
        <pt x="143" y="46" on="0"/>
        <pt x="190" y="46" on="1"/>
        <pt x="246" y="46" on="0"/>
        <pt x="324" y="117" on="0"/>
      </contour>
      <contour>
        <pt x="399" y="179" on="1"/>
        <pt x="381" y="96" on="0"/>
        <pt x="257" y="-9" on="0"/>
        <pt x="181" y="-9" on="1"/>
        <pt x="111" y="-9" on="0"/>
        <pt x="75" y="32" on="1"/>
        <pt x="38" y="-143" on="1"/>
        <pt x="-24" y="-143" on="1"/>
        <pt x="67" y="291" on="1"/>
        <pt x="70" y="315" on="0"/>
        <pt x="61" y="338" on="1"/>
        <pt x="116" y="349" on="1"/>
        <pt x="129" y="325" on="0"/>
        <pt x="124" y="292" on="1"/>
        <pt x="185" y="353" on="0"/>
        <pt x="266" y="353" on="1"/>
        <pt x="340" y="353" on="0"/>
        <pt x="414" y="253" on="0"/>
      </contour>
    </TTGlyph>
    <TTGlyph name="paragraph" xMin="58" yMin="-63" xMax="379" yMax="475">
      <contour>
        <pt x="266" y="-63" on="1"/>
        <pt x="232" y="-63" on="1"/>
        <pt x="340" y="443" on="1"/>
        <pt x="292" y="443" on="1"/>
        <pt x="184" y="-63" on="1"/>
        <pt x="149" y="-63" on="1"/>
        <pt x="201" y="180" on="1"/>
        <pt x="197" y="180" on="1"/>
        <pt x="137" y="180" on="0"/>
        <pt x="58" y="255" on="0"/>
        <pt x="72" y="321" on="1"/>
        <pt x="104" y="475" on="0"/>
        <pt x="302" y="475" on="1"/>
        <pt x="355" y="475" on="0"/>
        <pt x="379" y="470" on="1"/>
      </contour>
    </TTGlyph>
    <TTGlyph name="parenleft" xMin="14" yMin="-55" xMax="301" yMax="530">
      <contour>
        <pt x="106" y="-55" on="1"/>
        <pt x="14" y="67" on="0"/>
        <pt x="49" y="235" on="1"/>
        <pt x="83" y="392" on="0"/>
        <pt x="227" y="530" on="1"/>
        <pt x="301" y="530" on="1"/>
        <pt x="145" y="391" on="0"/>
        <pt x="111" y="235" on="1"/>
        <pt x="80" y="87" on="0"/>
        <pt x="176" y="-55" on="1"/>
      </contour>
    </TTGlyph>
    <TTGlyph name="parenright" xMin="-43" yMin="-55" xMax="240" yMax="530">
      <contour>
        <pt x="205" y="238" on="1"/>
        <pt x="170" y="74" on="0"/>
        <pt x="25" y="-55" on="1"/>
        <pt x="-43" y="-55" on="1"/>
        <pt x="112" y="94" on="0"/>
        <pt x="143" y="238" on="1"/>
        <pt x="174" y="383" on="0"/>
        <pt x="79" y="530" on="1"/>
        <pt x="148" y="530" on="1"/>
        <pt x="240" y="403" on="0"/>
      </contour>
    </TTGlyph>
    <TTGlyph name="partialdiff" xMin="1" yMin="-5" xMax="367" yMax="455">
      <contour>
        <pt x="330" y="281" on="1"/>
        <pt x="310" y="184" on="0"/>
        <pt x="250" y="100" on="1"/>
        <pt x="175" y="-5" on="0"/>
        <pt x="86" y="-5" on="1"/>
        <pt x="46" y="-5" on="0"/>
        <pt x="1" y="54" on="0"/>
        <pt x="12" y="108" on="1"/>
        <pt x="31" y="196" on="0"/>
        <pt x="110" y="248" on="1"/>
        <pt x="180" y="293" on="0"/>
        <pt x="263" y="293" on="1"/>
        <pt x="272" y="293" on="1"/>
        <pt x="289" y="396" on="0"/>
        <pt x="251" y="396" on="1"/>
        <pt x="214" y="396" on="0"/>
        <pt x="174" y="324" on="1"/>
        <pt x="126" y="354" on="1"/>
        <pt x="193" y="455" on="0"/>
        <pt x="262" y="455" on="1"/>
        <pt x="367" y="455" on="0"/>
      </contour>
      <contour>
        <pt x="258" y="237" on="1"/>
        <pt x="251" y="237" on="1"/>
        <pt x="184" y="237" on="0"/>
        <pt x="135" y="195" on="1"/>
        <pt x="91" y="159" on="0"/>
        <pt x="80" y="108" on="1"/>
        <pt x="70" y="57" on="0"/>
        <pt x="111" y="57" on="1"/>
        <pt x="157" y="57" on="0"/>
        <pt x="203" y="125" on="1"/>
        <pt x="236" y="173" on="0"/>
      </contour>
    </TTGlyph>
    <TTGlyph name="percent" xMin="35" yMin="-9" xMax="665" yMax="485">
      <contour>
        <pt x="171" y="-9" on="1"/>
        <pt x="110" y="-9" on="1"/>
        <pt x="518" y="476" on="1"/>
        <pt x="579" y="476" on="1"/>
      </contour>
      <contour>
        <pt x="303" y="338" on="1"/>
        <pt x="272" y="192" on="0"/>
        <pt x="153" y="192" on="1"/>
        <pt x="35" y="192" on="0"/>
        <pt x="66" y="338" on="1"/>
        <pt x="98" y="485" on="0"/>
        <pt x="216" y="485" on="1"/>
        <pt x="335" y="485" on="0"/>
      </contour>
      <contour>
        <pt x="244" y="338" on="1"/>
        <pt x="264" y="432" on="0"/>
        <pt x="204" y="432" on="1"/>
        <pt x="146" y="432" on="0"/>
        <pt x="126" y="338" on="1"/>
        <pt x="107" y="246" on="0"/>
        <pt x="165" y="246" on="1"/>
        <pt x="225" y="246" on="0"/>
      </contour>
      <contour>
        <pt x="634" y="139" on="1"/>
        <pt x="603" y="-8" on="0"/>
        <pt x="483" y="-8" on="1"/>
        <pt x="364" y="-8" on="0"/>
        <pt x="395" y="139" on="1"/>
        <pt x="426" y="285" on="0"/>
        <pt x="545" y="285" on="1"/>
        <pt x="665" y="285" on="0"/>
      </contour>
      <contour>
        <pt x="574" y="139" on="1"/>
        <pt x="594" y="233" on="0"/>
        <pt x="534" y="233" on="1"/>
        <pt x="475" y="233" on="0"/>
        <pt x="455" y="139" on="1"/>
        <pt x="435" y="46" on="0"/>
        <pt x="494" y="46" on="1"/>
        <pt x="554" y="46" on="0"/>
      </contour>
    </TTGlyph>
    <TTGlyph name="period" xMin="-1" yMin="-9" xMax="102" yMax="87">
      <contour>
        <pt x="98" y="39" on="1"/>
        <pt x="94" y="19" on="0"/>
        <pt x="60" y="-9" on="0"/>
        <pt x="40" y="-9" on="1"/>
        <pt x="20" y="-9" on="0"/>
        <pt x="-1" y="19" on="0"/>
        <pt x="2" y="39" on="1"/>
        <pt x="6" y="59" on="0"/>
        <pt x="40" y="87" on="0"/>
        <pt x="60" y="87" on="1"/>
        <pt x="80" y="87" on="0"/>
        <pt x="102" y="59" on="0"/>
      </contour>
    </TTGlyph>
    <TTGlyph name="periodcentered" xMin="28" yMin="134" xMax="132" yMax="230">
      <contour>
        <pt x="128" y="182" on="1"/>
        <pt x="124" y="162" on="0"/>
        <pt x="90" y="134" on="0"/>
        <pt x="70" y="134" on="1"/>
        <pt x="50" y="134" on="0"/>
        <pt x="28" y="162" on="0"/>
        <pt x="32" y="182" on="1"/>
        <pt x="36" y="202" on="0"/>
        <pt x="70" y="230" on="0"/>
        <pt x="90" y="230" on="1"/>
        <pt x="110" y="230" on="0"/>
        <pt x="132" y="202" on="0"/>
      </contour>
    </TTGlyph>
    <TTGlyph name="perthousand" xMin="35" yMin="-9" xMax="949" yMax="485">
      <contour>
        <pt x="171" y="-9" on="1"/>
        <pt x="110" y="-9" on="1"/>
        <pt x="518" y="476" on="1"/>
        <pt x="579" y="476" on="1"/>
      </contour>
      <contour>
        <pt x="303" y="338" on="1"/>
        <pt x="272" y="192" on="0"/>
        <pt x="153" y="192" on="1"/>
        <pt x="35" y="192" on="0"/>
        <pt x="66" y="338" on="1"/>
        <pt x="98" y="485" on="0"/>
        <pt x="216" y="485" on="1"/>
        <pt x="335" y="485" on="0"/>
      </contour>
      <contour>
        <pt x="244" y="338" on="1"/>
        <pt x="264" y="432" on="0"/>
        <pt x="204" y="432" on="1"/>
        <pt x="146" y="432" on="0"/>
        <pt x="126" y="338" on="1"/>
        <pt x="107" y="246" on="0"/>
        <pt x="165" y="246" on="1"/>
        <pt x="225" y="246" on="0"/>
      </contour>
      <contour>
        <pt x="634" y="139" on="1"/>
        <pt x="603" y="-8" on="0"/>
        <pt x="483" y="-8" on="1"/>
        <pt x="364" y="-8" on="0"/>
        <pt x="395" y="139" on="1"/>
        <pt x="426" y="285" on="0"/>
        <pt x="545" y="285" on="1"/>
        <pt x="665" y="285" on="0"/>
      </contour>
      <contour>
        <pt x="574" y="139" on="1"/>
        <pt x="594" y="233" on="0"/>
        <pt x="534" y="233" on="1"/>
        <pt x="475" y="233" on="0"/>
        <pt x="455" y="139" on="1"/>
        <pt x="435" y="46" on="0"/>
        <pt x="494" y="46" on="1"/>
        <pt x="554" y="46" on="0"/>
      </contour>
      <contour>
        <pt x="918" y="139" on="1"/>
        <pt x="887" y="-8" on="0"/>
        <pt x="767" y="-8" on="1"/>
        <pt x="648" y="-8" on="0"/>
        <pt x="679" y="139" on="1"/>
        <pt x="710" y="285" on="0"/>
        <pt x="829" y="285" on="1"/>
        <pt x="949" y="285" on="0"/>
      </contour>
      <contour>
        <pt x="858" y="139" on="1"/>
        <pt x="878" y="233" on="0"/>
        <pt x="818" y="233" on="1"/>
        <pt x="759" y="233" on="0"/>
        <pt x="739" y="139" on="1"/>
        <pt x="719" y="46" on="0"/>
        <pt x="778" y="46" on="1"/>
        <pt x="838" y="46" on="0"/>
      </contour>
    </TTGlyph>
    <TTGlyph name="plus" xMin="18" yMin="0" xMax="389" yMax="363">
      <contour>
        <pt x="196" y="0" on="1"/>
        <pt x="133" y="0" on="1"/>
        <pt x="166" y="157" on="1"/>
        <pt x="18" y="157" on="1"/>
        <pt x="30" y="212" on="1"/>
        <pt x="178" y="212" on="1"/>
        <pt x="210" y="363" on="1"/>
        <pt x="273" y="363" on="1"/>
        <pt x="241" y="212" on="1"/>
        <pt x="389" y="212" on="1"/>
        <pt x="377" y="157" on="1"/>
        <pt x="229" y="157" on="1"/>
      </contour>
    </TTGlyph>
    <TTGlyph name="plusminus" xMin="-8" yMin="0" xMax="413" yMax="423">
      <contour>
        <pt x="361" y="0" on="1"/>
        <pt x="-8" y="0" on="1"/>
        <pt x="3" y="55" on="1"/>
        <pt x="372" y="55" on="1"/>
      </contour>
      <contour>
        <pt x="402" y="217" on="1"/>
        <pt x="254" y="217" on="1"/>
        <pt x="224" y="78" on="1"/>
        <pt x="161" y="78" on="1"/>
        <pt x="191" y="217" on="1"/>
        <pt x="43" y="217" on="1"/>
        <pt x="54" y="272" on="1"/>
        <pt x="202" y="272" on="1"/>
        <pt x="234" y="423" on="1"/>
        <pt x="297" y="423" on="1"/>
        <pt x="265" y="272" on="1"/>
        <pt x="413" y="272" on="1"/>
      </contour>
    </TTGlyph>
    <TTGlyph name="product" xMin="-6" yMin="-75" xMax="496" yMax="476">
      <contour>
        <pt x="379" y="-75" on="1"/>
        <pt x="316" y="-75" on="1"/>
        <pt x="421" y="422" on="1"/>
        <pt x="162" y="422" on="1"/>
        <pt x="57" y="-75" on="1"/>
        <pt x="-6" y="-75" on="1"/>
        <pt x="110" y="476" on="1"/>
        <pt x="496" y="476" on="1"/>
      </contour>
    </TTGlyph>
    <TTGlyph name="q" xMin="14" yMin="-143" xMax="397" yMax="353">
      <contour>
        <pt x="306" y="-143" on="1"/>
        <pt x="243" y="-143" on="1"/>
        <pt x="280" y="32" on="1"/>
        <pt x="227" y="-9" on="0"/>
        <pt x="158" y="-9" on="1"/>
        <pt x="95" y="-9" on="0"/>
        <pt x="14" y="67" on="0"/>
        <pt x="14" y="130" on="1"/>
        <pt x="14" y="220" on="0"/>
        <pt x="137" y="353" on="0"/>
        <pt x="227" y="353" on="1"/>
        <pt x="338" y="353" on="0"/>
        <pt x="397" y="290" on="1"/>
      </contour>
      <contour>
        <pt x="304" y="142" on="1"/>
        <pt x="329" y="262" on="1"/>
        <pt x="290" y="301" on="0"/>
        <pt x="221" y="301" on="1"/>
        <pt x="162" y="301" on="0"/>
        <pt x="75" y="204" on="0"/>
        <pt x="75" y="139" on="1"/>
        <pt x="75" y="46" on="0"/>
        <pt x="171" y="46" on="1"/>
        <pt x="218" y="46" on="0"/>
        <pt x="296" y="103" on="0"/>
      </contour>
    </TTGlyph>
    <TTGlyph name="question" xMin="47" yMin="-9" xMax="310" yMax="483">
      <contour>
        <pt x="299" y="371" on="1"/>
        <pt x="288" y="317" on="0"/>
        <pt x="208" y="250" on="1"/>
        <pt x="153" y="205" on="0"/>
        <pt x="142" y="159" on="1"/>
        <pt x="139" y="144" on="0"/>
        <pt x="140" y="117" on="1"/>
        <pt x="83" y="117" on="1"/>
        <pt x="80" y="147" on="0"/>
        <pt x="83" y="162" on="1"/>
        <pt x="93" y="211" on="0"/>
        <pt x="229" y="337" on="0"/>
        <pt x="236" y="369" on="1"/>
        <pt x="248" y="426" on="0"/>
        <pt x="178" y="426" on="1"/>
        <pt x="135" y="426" on="0"/>
        <pt x="89" y="397" on="1"/>
        <pt x="74" y="446" on="1"/>
        <pt x="141" y="483" on="0"/>
        <pt x="197" y="483" on="1"/>
        <pt x="254" y="483" on="0"/>
        <pt x="310" y="422" on="0"/>
      </contour>
      <contour>
        <pt x="147" y="39" on="1"/>
        <pt x="143" y="19" on="0"/>
        <pt x="109" y="-9" on="0"/>
        <pt x="89" y="-9" on="1"/>
        <pt x="69" y="-9" on="0"/>
        <pt x="47" y="19" on="0"/>
        <pt x="51" y="39" on="1"/>
        <pt x="55" y="59" on="0"/>
        <pt x="89" y="87" on="0"/>
        <pt x="109" y="87" on="1"/>
        <pt x="129" y="87" on="0"/>
        <pt x="151" y="59" on="0"/>
      </contour>
    </TTGlyph>
    <TTGlyph name="questiondown" xMin="-39" yMin="-151" xMax="223" yMax="341">
      <contour>
        <pt x="196" y="-114" on="1"/>
        <pt x="129" y="-151" on="0"/>
        <pt x="73" y="-151" on="1"/>
        <pt x="16" y="-151" on="0"/>
        <pt x="-39" y="-90" on="0"/>
        <pt x="-28" y="-39" on="1"/>
        <pt x="-17" y="14" on="0"/>
        <pt x="63" y="82" on="1"/>
        <pt x="91" y="105" on="0"/>
        <pt x="123" y="152" on="0"/>
        <pt x="128" y="173" on="1"/>
        <pt x="132" y="190" on="0"/>
        <pt x="130" y="215" on="1"/>
        <pt x="187" y="215" on="1"/>
        <pt x="189" y="201" on="0"/>
        <pt x="189" y="178" on="0"/>
        <pt x="188" y="170" on="1"/>
        <pt x="176" y="115" on="0"/>
        <pt x="105" y="54" on="1"/>
        <pt x="43" y="0" on="0"/>
        <pt x="35" y="-37" on="1"/>
        <pt x="23" y="-94" on="0"/>
        <pt x="93" y="-94" on="1"/>
        <pt x="136" y="-94" on="0"/>
        <pt x="182" y="-65" on="1"/>
      </contour>
      <contour>
        <pt x="219" y="293" on="1"/>
        <pt x="215" y="273" on="0"/>
        <pt x="181" y="245" on="0"/>
        <pt x="162" y="245" on="1"/>
        <pt x="143" y="245" on="0"/>
        <pt x="121" y="273" on="0"/>
        <pt x="125" y="293" on="1"/>
        <pt x="129" y="313" on="0"/>
        <pt x="163" y="341" on="0"/>
        <pt x="182" y="341" on="1"/>
        <pt x="201" y="341" on="0"/>
        <pt x="223" y="313" on="0"/>
      </contour>
    </TTGlyph>
    <TTGlyph name="quotedbl" xMin="88" yMin="333" xMax="308" yMax="526">
      <contour>
        <pt x="255" y="333" on="1"/>
        <pt x="209" y="333" on="1"/>
        <pt x="237" y="526" on="1"/>
        <pt x="308" y="526" on="1"/>
      </contour>
      <contour>
        <pt x="133" y="333" on="1"/>
        <pt x="88" y="333" on="1"/>
        <pt x="116" y="526" on="1"/>
        <pt x="187" y="526" on="1"/>
      </contour>
    </TTGlyph>
    <TTGlyph name="quotedblbase" xMin="23" yMin="-100" xMax="279" yMax="87">
      <contour>
        <pt x="145" y="42" on="1"/>
        <pt x="132" y="-18" on="0"/>
        <pt x="59" y="-91" on="0"/>
        <pt x="34" y="-100" on="1"/>
        <pt x="23" y="-83" on="1"/>
        <pt x="81" y="-50" on="0"/>
        <pt x="99" y="-3" on="1"/>
        <pt x="97" y="-3" on="0"/>
        <pt x="92" y="-4" on="0"/>
        <pt x="90" y="-4" on="1"/>
        <pt x="71" y="-4" on="0"/>
        <pt x="49" y="23" on="0"/>
        <pt x="53" y="42" on="1"/>
        <pt x="57" y="61" on="0"/>
        <pt x="90" y="87" on="0"/>
        <pt x="109" y="87" on="1"/>
        <pt x="128" y="87" on="0"/>
        <pt x="148" y="61" on="0"/>
      </contour>
      <contour>
        <pt x="276" y="42" on="1"/>
        <pt x="263" y="-18" on="0"/>
        <pt x="190" y="-91" on="0"/>
        <pt x="165" y="-100" on="1"/>
        <pt x="154" y="-83" on="1"/>
        <pt x="212" y="-50" on="0"/>
        <pt x="230" y="-3" on="1"/>
        <pt x="228" y="-3" on="0"/>
        <pt x="223" y="-4" on="0"/>
        <pt x="221" y="-4" on="1"/>
        <pt x="202" y="-4" on="0"/>
        <pt x="180" y="23" on="0"/>
        <pt x="184" y="42" on="1"/>
        <pt x="188" y="61" on="0"/>
        <pt x="221" y="87" on="0"/>
        <pt x="240" y="87" on="1"/>
        <pt x="259" y="87" on="0"/>
        <pt x="279" y="61" on="0"/>
      </contour>
    </TTGlyph>
    <TTGlyph name="quotedblleft" xMin="104" yMin="328" xMax="360" yMax="515">
      <contour>
        <pt x="199" y="373" on="1"/>
        <pt x="195" y="354" on="0"/>
        <pt x="162" y="328" on="0"/>
        <pt x="143" y="328" on="1"/>
        <pt x="124" y="328" on="0"/>
        <pt x="104" y="354" on="0"/>
        <pt x="107" y="373" on="1"/>
        <pt x="121" y="433" on="0"/>
        <pt x="193" y="506" on="0"/>
        <pt x="218" y="515" on="1"/>
        <pt x="229" y="498" on="1"/>
        <pt x="171" y="465" on="0"/>
        <pt x="153" y="418" on="1"/>
        <pt x="155" y="418" on="0"/>
        <pt x="161" y="419" on="0"/>
        <pt x="163" y="419" on="1"/>
        <pt x="182" y="419" on="0"/>
        <pt x="203" y="392" on="0"/>
      </contour>
      <contour>
        <pt x="330" y="373" on="1"/>
        <pt x="326" y="354" on="0"/>
        <pt x="293" y="328" on="0"/>
        <pt x="274" y="328" on="1"/>
        <pt x="255" y="328" on="0"/>
        <pt x="235" y="354" on="0"/>
        <pt x="238" y="373" on="1"/>
        <pt x="252" y="433" on="0"/>
        <pt x="324" y="506" on="0"/>
        <pt x="349" y="515" on="1"/>
        <pt x="360" y="498" on="1"/>
        <pt x="302" y="465" on="0"/>
        <pt x="284" y="418" on="1"/>
        <pt x="286" y="418" on="0"/>
        <pt x="292" y="419" on="0"/>
        <pt x="294" y="419" on="1"/>
        <pt x="313" y="419" on="0"/>
        <pt x="334" y="392" on="0"/>
      </contour>
    </TTGlyph>
    <TTGlyph name="quotedblright" xMin="111" yMin="314" xMax="367" yMax="501">
      <contour>
        <pt x="233" y="456" on="1"/>
        <pt x="220" y="396" on="0"/>
        <pt x="147" y="323" on="0"/>
        <pt x="122" y="314" on="1"/>
        <pt x="111" y="331" on="1"/>
        <pt x="169" y="364" on="0"/>
        <pt x="187" y="411" on="1"/>
        <pt x="185" y="411" on="0"/>
        <pt x="180" y="410" on="0"/>
        <pt x="178" y="410" on="1"/>
        <pt x="159" y="410" on="0"/>
        <pt x="137" y="437" on="0"/>
        <pt x="141" y="456" on="1"/>
        <pt x="145" y="475" on="0"/>
        <pt x="178" y="501" on="0"/>
        <pt x="197" y="501" on="1"/>
        <pt x="216" y="501" on="0"/>
        <pt x="236" y="475" on="0"/>
      </contour>
      <contour>
        <pt x="364" y="456" on="1"/>
        <pt x="351" y="396" on="0"/>
        <pt x="278" y="323" on="0"/>
        <pt x="253" y="314" on="1"/>
        <pt x="242" y="331" on="1"/>
        <pt x="300" y="364" on="0"/>
        <pt x="318" y="411" on="1"/>
        <pt x="316" y="411" on="0"/>
        <pt x="311" y="410" on="0"/>
        <pt x="309" y="410" on="1"/>
        <pt x="290" y="410" on="0"/>
        <pt x="268" y="437" on="0"/>
        <pt x="272" y="456" on="1"/>
        <pt x="276" y="475" on="0"/>
        <pt x="309" y="501" on="0"/>
        <pt x="328" y="501" on="1"/>
        <pt x="347" y="501" on="0"/>
        <pt x="367" y="475" on="0"/>
      </contour>
    </TTGlyph>
    <TTGlyph name="quoteleft" xMin="104" yMin="328" xMax="229" yMax="515">
      <contour>
        <pt x="199" y="373" on="1"/>
        <pt x="195" y="354" on="0"/>
        <pt x="162" y="328" on="0"/>
        <pt x="143" y="328" on="1"/>
        <pt x="124" y="328" on="0"/>
        <pt x="104" y="354" on="0"/>
        <pt x="107" y="373" on="1"/>
        <pt x="121" y="433" on="0"/>
        <pt x="193" y="506" on="0"/>
        <pt x="218" y="515" on="1"/>
        <pt x="229" y="498" on="1"/>
        <pt x="171" y="465" on="0"/>
        <pt x="153" y="418" on="1"/>
        <pt x="155" y="418" on="0"/>
        <pt x="161" y="419" on="0"/>
        <pt x="163" y="419" on="1"/>
        <pt x="182" y="419" on="0"/>
        <pt x="203" y="392" on="0"/>
      </contour>
    </TTGlyph>
    <TTGlyph name="quoteright" xMin="111" yMin="314" xMax="236" yMax="501">
      <contour>
        <pt x="233" y="456" on="1"/>
        <pt x="220" y="396" on="0"/>
        <pt x="147" y="323" on="0"/>
        <pt x="122" y="314" on="1"/>
        <pt x="111" y="331" on="1"/>
        <pt x="169" y="364" on="0"/>
        <pt x="187" y="411" on="1"/>
        <pt x="185" y="411" on="0"/>
        <pt x="180" y="410" on="0"/>
        <pt x="178" y="410" on="1"/>
        <pt x="159" y="410" on="0"/>
        <pt x="137" y="437" on="0"/>
        <pt x="141" y="456" on="1"/>
        <pt x="145" y="475" on="0"/>
        <pt x="178" y="501" on="0"/>
        <pt x="197" y="501" on="1"/>
        <pt x="216" y="501" on="0"/>
        <pt x="236" y="475" on="0"/>
      </contour>
    </TTGlyph>
</ttFont>
